<svg width="69" height="69" viewBox="0 0 69 69" fill="none" xmlns="http://www.w3.org/2000/svg">
<path fillRule="evenodd" clipRule="evenodd" d="M11.6986 9.87453C17.4715 4.10164 26.9174 4.10164 32.6868 9.87453L34.3743 11.562L36.0618 9.87453C41.8347 4.10164 51.2806 4.10164 57.05 9.87453C62.8229 15.6474 62.8229 25.0933 57.05 30.8627L34.3743 53.5385L11.6986 30.8662C5.92569 25.0933 5.92569 15.6474 11.6986 9.87799V9.87453Z" fill="#F36F63" stroke="#010101"/>
<path fillRule="evenodd" clipRule="evenodd" d="M16.7339 27.8443H29.5965C30.5667 26.59 31.1419 25.0376 31.1419 23.3605C31.1419 19.1746 27.5693 15.7788 23.1652 15.7788C18.761 15.7788 15.1885 19.1712 15.1885 23.3605C15.1885 25.0376 15.7602 26.59 16.7339 27.8443Z" fill="#5F6976" stroke="#010101"/>
<path fillRule="evenodd" clipRule="evenodd" d="M23.1659 19.1086C23.055 19.1086 22.9442 19.1086 22.8333 19.1155C21.9774 21.6277 19.5518 23.4711 16.655 23.6063C16.4332 24.2543 16.3223 24.9334 16.3223 25.616C16.3223 29.2094 19.3855 32.1201 23.1659 32.1201C26.9464 32.1201 30.0095 29.2059 30.0095 25.616C30.0095 22.0262 26.9464 19.112 23.1659 19.112V19.1086Z" fill="#F3E7DD" stroke="#010101"/>
<path fillRule="evenodd" clipRule="evenodd" d="M28.0694 32.1203H18.2631C14.7946 32.1203 11.9566 34.8161 11.9566 38.1114V62.0173H34.3725V38.1114C34.3725 34.8161 31.5346 32.1203 28.066 32.1203H28.0694Z" fill="#9ECE69" stroke="#010101"/>
<path fillRule="evenodd" clipRule="evenodd" d="M39.1508 27.8443H52.0133C52.9836 26.59 53.5588 25.0376 53.5588 23.3605C53.5588 19.1746 49.9863 15.7788 45.5821 15.7788C41.1779 15.7788 37.6054 19.1712 37.6054 23.3605C37.6054 25.0376 38.1771 26.59 39.1508 27.8443Z" fill="#603A17" stroke="#010101"/>
<path fillRule="evenodd" clipRule="evenodd" d="M45.5846 19.1086C45.4738 19.1086 45.3628 19.1086 45.252 19.1155C44.3961 21.6277 41.9705 23.4711 39.0737 23.6063C38.8519 24.2543 38.741 24.9334 38.741 25.616C38.741 29.2094 41.8042 32.1201 45.5846 32.1201C49.3651 32.1201 52.4282 29.2059 52.4282 25.616C52.4282 22.0262 49.3651 19.112 45.5846 19.112V19.1086Z" fill="#A8735E" stroke="#010101"/>
<path fillRule="evenodd" clipRule="evenodd" d="M50.4882 32.1203H40.6819C37.2133 32.1203 34.3754 34.8161 34.3754 38.1114V61.9307H56.7912V38.1114C56.7912 34.8161 53.9533 32.1203 50.4847 32.1203H50.4882Z" fill="#7481BF" stroke="#010101"/>
<path fillRule="evenodd" clipRule="evenodd" d="M5.52364 49.3247H18.3862C19.3564 48.0703 19.9316 46.5179 19.9316 44.8408C19.9316 40.6549 16.3591 37.2591 11.9549 37.2591C7.55075 37.2591 3.97821 40.6515 3.97821 44.8408C3.97821 46.5179 4.54994 48.0703 5.52364 49.3247Z" fill="#412312" stroke="#010101"/>
<path fillRule="evenodd" clipRule="evenodd" d="M11.9557 40.5889C11.8448 40.5889 11.7339 40.5889 11.623 40.5958C10.7671 43.108 8.34153 44.9515 5.44469 45.0866C5.22292 45.7346 5.11205 46.4138 5.11205 47.0964C5.11205 50.6897 8.17522 53.6004 11.9557 53.6004C15.7361 53.6004 18.7993 50.6862 18.7993 47.0964C18.7993 43.5065 15.7361 40.5924 11.9557 40.5924V40.5889Z" fill="#CEA487" stroke="#010101"/>
<path fillRule="evenodd" clipRule="evenodd" d="M16.8628 53.6006H7.0565C3.58791 53.6006 0.75 56.2964 0.75 59.5918V68.2476H23.1658V59.5918C23.1658 56.2964 20.3279 53.6006 16.8593 53.6006H16.8628Z" fill="#D4A0AC" stroke="#010101"/>
<path fillRule="evenodd" clipRule="evenodd" d="M27.9442 49.3247H40.8067C41.7769 48.0703 42.3521 46.5179 42.3521 44.8408C42.3521 40.6549 38.7796 37.2591 34.3754 37.2591C29.9712 37.2591 26.3987 40.6515 26.3987 44.8408C26.3987 46.5179 26.9705 48.0703 27.9442 49.3247Z" fill="white" stroke="#010101"/>
<path fillRule="evenodd" clipRule="evenodd" d="M34.3744 40.5889C34.2635 40.5889 34.1526 40.5889 34.0417 40.5958C33.1859 43.108 30.7603 44.9515 27.8635 45.0866C27.6417 45.7346 27.5308 46.4138 27.5308 47.0964C27.5308 50.6897 30.5939 53.6004 34.3744 53.6004C38.1548 53.6004 41.218 50.6862 41.218 47.0964C41.218 43.5065 38.1548 40.5924 34.3744 40.5924V40.5889Z" fill="#A64332" stroke="#010101"/>
<path fillRule="evenodd" clipRule="evenodd" d="M39.2797 53.6006H29.4735C26.0049 53.6006 23.1669 56.2964 23.1669 59.5918V68.2476H45.5828V59.5918C45.5828 56.2964 42.7448 53.6006 39.2762 53.6006H39.2797Z" fill="#FAED24" stroke="#010101"/>
<path fillRule="evenodd" clipRule="evenodd" d="M50.3594 49.3247H63.2219C64.1922 48.0703 64.7674 46.5179 64.7674 44.8408C64.7674 40.6549 61.1949 37.2591 56.7907 37.2591C52.3865 37.2591 48.8174 40.6515 48.8174 44.8408C48.8174 46.5179 49.3892 48.0703 50.3629 49.3247H50.3594Z" fill="#010101" stroke="#010101"/>
<path fillRule="evenodd" clipRule="evenodd" d="M56.7913 40.5889C56.6804 40.5889 56.5695 40.5889 56.4587 40.5958C55.5993 43.108 53.1772 44.9515 50.2803 45.0866C50.0586 45.7346 49.9477 46.4138 49.9477 47.0964C49.9477 50.6897 53.0108 53.6004 56.7913 53.6004C60.5717 53.6004 63.6349 50.6862 63.6349 47.0964C63.6349 43.5065 60.5717 40.5924 56.7913 40.5924V40.5889Z" fill="#46150D" stroke="#010101"/>
<path fillRule="evenodd" clipRule="evenodd" d="M61.6966 53.6006H51.8903C48.4217 53.6006 45.5838 56.2964 45.5838 59.5918V68.2476H67.9996V59.5918C67.9996 56.2964 65.1617 53.6006 61.6966 53.6006Z" fill="#5A9A45" stroke="#010101"/>
<path fillRule="evenodd" clipRule="evenodd" d="M34.376 17.7816C42.0651 12.6636 40.9112 16.0594 40.9112 2.68404C34.3933 1.02079 40.8419 2.66672 34.376 1L27.8373 2.68404C27.8373 16.0594 26.6869 12.6636 34.376 17.7816Z" fill="white" stroke="#010101"/>
<path fillRule="evenodd" clipRule="evenodd" d="M30.5784 7.11591H33.0491V4.64528H35.7068V7.11591H38.1775V9.77365H35.7068V12.2443H33.0491V9.77365H30.5784V7.11591Z" fill="#F36F63" stroke="#010101"/>
</svg>
