<svg width="25" height="24" viewBox="0 0 25 24" fill="none" xmlns="http://www.w3.org/2000/svg">
<path d="M15.5814 11.9999C15.5814 13.9799 13.9814 15.5799 12.0014 15.5799C10.0214 15.5799 8.42139 13.9799 8.42139 11.9999C8.42139 10.0199 10.0214 8.41992 12.0014 8.41992C13.9814 8.41992 15.5814 10.0199 15.5814 11.9999Z" stroke="#444444" stroke-width="1.5" stroke-linecap="round" stroke-linejoin="round"/>
<path d="M12.0013 20.2707C15.5313 20.2707 18.8213 18.1907 21.1113 14.5907C22.0113 13.1807 22.0113 10.8107 21.1113 9.4007C18.8213 5.8007 15.5313 3.7207 12.0013 3.7207C8.47131 3.7207 5.18131 5.8007 2.89131 9.4007C1.99131 10.8107 1.99131 13.1807 2.89131 14.5907C5.18131 18.1907 8.47131 20.2707 12.0013 20.2707Z" stroke="#444444" stroke-width="1.5" stroke-linecap="round" stroke-linejoin="round"/>
</svg>
