<svg width="25" height="24" viewBox="0 0 25 24" fill="none" xmlns="http://www.w3.org/2000/svg">
<path d="M21.0015 5.98047C17.6715 5.65047 14.3215 5.48047 10.9815 5.48047C9.00146 5.48047 7.02146 5.58047 5.04146 5.78047L3.00146 5.98047" stroke="#EC4242" stroke-width="1.5" stroke-linecap="round" stroke-linejoin="round"/>
<path d="M8.50146 4.97L8.72147 3.66C8.88147 2.71 9.00146 2 10.6915 2H13.3115C15.0015 2 15.1315 2.75 15.2815 3.67L15.5015 4.97" stroke="#EC4242" stroke-width="1.5" stroke-linecap="round" stroke-linejoin="round"/>
<path d="M18.8514 9.14062L18.2014 19.2106C18.0914 20.7806 18.0014 22.0006 15.2114 22.0006H8.79137C6.00137 22.0006 5.91137 20.7806 5.80137 19.2106L5.15137 9.14062" stroke="#EC4242" stroke-width="1.5" stroke-linecap="round" stroke-linejoin="round"/>
<path d="M10.3315 16.5H13.6615" stroke="#EC4242" stroke-width="1.5" stroke-linecap="round" stroke-linejoin="round"/>
<path d="M9.50146 12.5H14.5015" stroke="#EC4242" stroke-width="1.5" stroke-linecap="round" stroke-linejoin="round"/>
</svg>
