<svg width="84" height="71" viewBox="0 0 84 71" fill="none" xmlns="http://www.w3.org/2000/svg">
<path d="M11.349 14.7607C9.89726 14.7607 8.7211 16.0028 8.7211 17.5283C8.7211 19.0539 9.89727 20.2999 11.3529 20.2999H13.4412L13.779 19.6749V14.4929H11.8303L11.3451 14.7646L11.349 14.7607Z" fill="#FCCEC0" stroke="#010101"/>
<path d="M31.7119 14.7684C31.6537 14.7684 31.5993 14.7607 31.5411 14.7607H30.9162L30.6328 14.489H28.9676V20.0437L29.4528 20.2998H31.5411C31.5993 20.2998 31.6576 20.296 31.7119 20.2921V14.7723V14.7684Z" fill="#F9AFA1" stroke="#010101"/>
<path d="M37.5655 35.0075C37.1929 34.8639 32.2515 32.9503 29.053 31.712L28.397 32.0264H14.4229L13.829 31.6848L5.32813 35.0075C3.47656 35.7684 0.999985 38.1634 0.999985 41.719V49.7269H7.66871V57.502H35.225V49.7269H41.8937V41.719C41.8937 38.6564 39.9334 35.9819 37.5655 35.0075Z" fill="#6BB26A" stroke="#010101"/>
<path d="M7.66871 49.5678H0.999985V56.0657C0.999985 56.8615 1.64434 57.5059 2.44396 57.5059H7.66871V49.5639V49.5678Z" fill="#A8735E" stroke="#010101"/>
<path d="M35.222 49.5678V57.5098H40.4467C41.2425 57.5098 41.8868 56.8654 41.8868 56.0696V49.5717H35.2181L35.222 49.5678Z" fill="#A8735E" stroke="#010101"/>
<path d="M21.4412 26.7473H17.509L17.016 27.2908V29.9265C17.016 30.2564 16.8569 30.4505 16.6745 30.5747L13.8292 31.6849C14.8151 34.7087 17.61 37.0804 21.4412 37.1309V26.7473Z" fill="#F9AFA1" stroke="#010101"/>
<path d="M31.5411 14.7606H30.9162L30.6329 14.4889H29.2393L29.0569 14.0775L28.4009 13.6388L27.9079 11.5H26.9491L22.9432 14.4074H19.6088H13.8367L13.7862 14.4889H11.8377L11.3525 14.7606C9.90074 14.7606 8.72458 16.0028 8.72458 17.5283C8.72458 19.0538 9.90065 20.2998 11.3563 20.2998H13.4447V20.6957C13.4447 23.3431 14.7761 25.839 17.0197 27.2907V29.9264C17.0197 30.2564 16.8606 30.4505 16.6782 30.5747L13.8329 31.6848C14.8305 34.7397 17.6679 37.1309 21.5613 37.1309C25.0509 37.1309 28.0166 34.8523 29.0569 31.7081C27.6284 31.153 26.5493 30.7377 26.3863 30.6717C26.0796 30.5514 25.8778 30.2564 25.8739 29.9264V27.2946H25.87C28.0243 25.8856 29.4567 23.4517 29.4567 20.6919V20.2921H31.545C32.9967 20.2921 34.1768 19.0538 34.1768 17.5205C34.1768 15.9872 33.0006 14.749 31.545 14.749L31.5411 14.7606Z" fill="#A8735E" stroke="#010101"/>
<path d="M28.9354 4.64881C28.1824 4.70703 27.4876 4.23345 27.344 3.49204C27.0994 2.24214 26.4823 1 24.064 1H15.6756C12.5974 1 10.1014 3.49593 10.1014 6.57411V12.6917C10.1014 13.0139 10.1674 13.3244 10.2877 13.6039C10.6449 14.4462 11.4794 15.0362 12.4499 15.0362H21.9678C24.095 15.0362 25.9465 13.8407 26.8859 12.0861C26.9596 11.9503 27.1654 12.0046 27.1654 12.156C27.1654 13.7397 28.4619 15.0323 30.0456 15.0323C30.8763 15.0323 31.5517 14.353 31.5517 13.5224V7.14085C31.5517 5.63863 30.2397 4.544 28.9354 4.64492V4.64881Z" fill="#46150D" stroke="#010101"/>
<path d="M52.2974 17.8697C50.8456 17.8697 49.6694 19.1118 49.6694 20.6373C49.6694 22.1629 50.8456 23.4089 52.3013 23.4089H54.3896L54.7273 22.7839V17.6019H52.7787L52.2935 17.8736L52.2974 17.8697Z" fill="#FCCEC0" stroke="#010101"/>
<path d="M72.6603 17.8814C72.6021 17.8814 72.5477 17.8736 72.4895 17.8736H71.8645L71.5812 17.6019H69.9159V23.1566L70.4011 23.4128H72.4895C72.5477 23.4128 72.606 23.4089 72.6603 23.405V17.8852V17.8814Z" fill="#F9AFA1" stroke="#010101"/>
<path d="M78.5139 38.1205C78.1413 37.9769 73.1999 36.0632 70.0014 34.8249L69.3454 35.1393H55.3713L54.7774 34.7977L46.2765 38.1205C44.4249 38.8813 41.9483 41.2763 41.9483 44.8319V52.8399H48.6172V60.6149H76.1733V52.8399H82.842V44.8319C82.842 41.7693 80.8817 39.0948 78.5139 38.1205Z" fill="#F36F63" stroke="#010101"/>
<path d="M48.6172 52.6768H41.9483V59.1748C41.9483 59.9705 42.5927 60.6149 43.3923 60.6149H48.6172V52.6729V52.6768Z" fill="#664336" stroke="#010101"/>
<path d="M76.1703 52.6768V60.6188H81.395C82.1908 60.6188 82.8351 59.9744 82.8351 59.1787V52.6807H76.1664L76.1703 52.6768Z" fill="#664336" stroke="#010101"/>
<path d="M62.3896 29.8603H58.4574L57.9644 30.4037V33.0394C57.9644 33.3693 57.8053 33.5634 57.6228 33.6876L54.7775 34.7978C55.7635 37.8217 58.5583 40.1934 62.3896 40.2438V29.8603Z" fill="#F9AFA1" stroke="#010101"/>
<path d="M72.4896 17.8697H71.8646L71.5812 17.5979H70.1876L70.0052 17.1865L69.3492 16.7478L68.8562 14.609H67.8975L63.8915 17.5164H60.5571H54.7851L54.7346 17.5979H52.7861L52.3008 17.8697C50.8491 17.8697 49.6729 19.1118 49.6729 20.6373C49.6729 22.1628 50.8491 23.4088 52.3047 23.4088H54.393V23.8048C54.393 26.4521 55.7244 28.948 57.9681 30.3998V33.0354C57.9681 33.3654 57.809 33.5595 57.6265 33.6837L54.7812 34.7939C55.7788 37.8487 58.6163 40.2399 62.5096 40.2399C65.9993 40.2399 68.9649 37.9613 70.0052 34.8171C68.5767 34.2621 67.4977 33.8467 67.3346 33.7807C67.028 33.6604 66.8261 33.3654 66.8222 33.0354V30.4037H66.8184C68.9727 28.9946 70.405 26.5608 70.405 23.8009V23.4011H72.4933C73.9451 23.4011 75.1251 22.1628 75.1251 20.6295C75.1251 19.0963 73.949 17.858 72.4933 17.858L72.4896 17.8697Z" fill="#664336" stroke="#010101"/>
<path d="M69.889 7.76171C69.1359 7.81994 68.4412 7.34638 68.2976 6.60497C68.053 5.35507 67.4358 4.11293 65.0175 4.11293H56.6292C53.551 4.11293 51.055 6.60886 51.055 9.68704V15.8046C51.055 16.1268 51.121 16.4373 51.2413 16.7168C51.5984 17.5591 52.433 18.1491 53.4034 18.1491H62.9214C65.0485 18.1491 66.9001 16.9536 67.8394 15.1991C67.9132 15.0632 68.119 15.1175 68.119 15.2689C68.119 16.8527 69.4155 18.1453 70.9992 18.1453C71.8299 18.1453 72.5053 17.466 72.5053 16.6353V10.2538C72.5053 8.75154 71.1932 7.6569 69.889 7.75783V7.76171Z" fill="#FBFAF2" stroke="#010101"/>
<path d="M31.8519 26.8093C30.4002 26.8093 29.224 28.0515 29.224 29.577C29.224 31.1025 30.4002 32.3485 31.8558 32.3485H33.9442L34.2819 31.7236V26.5415H32.3333L31.8481 26.8132L31.8519 26.8093Z" fill="#FCCEC0" stroke="#010101"/>
<path d="M52.2148 26.821C52.1566 26.821 52.1022 26.8132 52.044 26.8132H51.4191L51.1358 26.5415H49.4705V32.0962L49.9557 32.3524H52.044C52.1022 32.3524 52.1604 32.3485 52.2148 32.3446V26.8249V26.821Z" fill="#F9AFA1" stroke="#010101"/>
<path d="M58.0685 47.0601C57.6958 46.9165 52.7545 45.0028 49.5559 43.7645L48.9 44.079H34.9259L34.3319 43.7374L25.831 47.0601C23.9794 47.8209 21.5029 50.2159 21.5029 53.7716V61.7795H28.1716V69.5545H55.7278V61.7795H62.3966V53.7716C62.3966 50.7089 60.4363 48.0344 58.0685 47.0601Z" fill="#7481BF" stroke="#010101"/>
<path d="M28.1716 61.6164H21.5029V68.1144C21.5029 68.9101 22.1473 69.5545 22.9469 69.5545H28.1716V61.6125V61.6164Z" fill="#F9AFA1" stroke="#010101"/>
<path d="M55.7232 61.6164V69.5584H60.9479C61.7437 69.5584 62.3881 68.914 62.3881 68.1183V61.6203H55.7193L55.7232 61.6164Z" fill="#FCCEC0" stroke="#010101"/>
<path d="M41.944 38.7999H38.0119L37.5189 39.3433V41.979C37.5189 42.309 37.3598 42.503 37.1773 42.6272L34.3321 43.7374C35.318 46.7612 38.1128 49.133 41.944 49.1834V38.7999Z" fill="#F9AFA1" stroke="#010101"/>
<path d="M52.0441 26.8093H51.4192L51.1359 26.5376H49.7423L49.5599 26.1261L48.9039 25.6875L48.4109 23.5486H47.4521L43.4462 26.4561H40.1118H34.3398L34.2893 26.5376H32.3406L31.8554 26.8093C30.4037 26.8093 29.2275 28.0514 29.2275 29.5769C29.2275 31.1024 30.4037 32.3485 31.8593 32.3485H33.9477V32.7444C33.9477 35.3917 35.2791 37.8877 37.5227 39.3394V41.9751C37.5227 42.305 37.3635 42.4991 37.1811 42.6233L34.3359 43.7335C35.3335 46.7884 38.171 49.1795 42.0643 49.1795C45.554 49.1795 48.5196 46.901 49.5599 43.7568C48.1314 43.2017 47.0523 42.7863 46.8892 42.7204C46.5826 42.6 46.3808 42.305 46.3769 41.9751V39.3433H46.373C48.5274 37.9342 49.9597 35.5004 49.9597 32.7405V32.3407H52.048C53.4998 32.3407 54.6798 31.1024 54.6798 29.5692C54.6798 28.0359 53.5037 26.7976 52.048 26.7976L52.0441 26.8093Z" fill="#FCCEC0" stroke="#010101"/>
<path d="M49.4436 16.7014C48.6905 16.7596 47.9956 16.286 47.852 15.5446C47.6075 14.2947 46.9903 13.0526 44.572 13.0526H36.1837C33.1055 13.0526 30.6096 15.5485 30.6096 18.6267V24.7442C30.6096 25.0664 30.6755 25.377 30.7959 25.6564C31.153 26.4988 31.9876 27.0888 32.958 27.0888H42.4759C44.6031 27.0888 46.4546 25.8932 47.394 24.1387C47.4678 24.0028 47.6735 24.0572 47.6735 24.2085C47.6735 25.7923 48.97 27.0849 50.5538 27.0849C51.3844 27.0849 52.0598 26.4056 52.0598 25.5749V19.1934C52.0598 17.6912 50.7478 16.5965 49.4436 16.6975V16.7014Z" fill="#010101" stroke="#010101"/>
</svg>
