<svg width="68" height="68" viewBox="0 0 68 68" fill="none" xmlns="http://www.w3.org/2000/svg">
<path d="M59.4399 11.9646C59.4399 9.55875 57.4893 7.6084 55.0834 7.6084H5.35039C2.94489 7.6084 0.994141 9.55875 0.994141 11.9646V61.6973C0.994141 62.9425 1.51755 64.0649 2.35507 64.8588H55.0835V66.0537H62.7142C64.5891 66.0537 66.1873 64.8692 66.8015 63.2076C67.3105 61.8622 67.4906 64.4344 59.4399 11.9646Z" fill="#BABABA"/>
<path d="M62.1002 61.6975V29.3028L59.4399 11.9646C59.4399 9.55875 57.4893 7.6084 55.0834 7.6084H8.01068C5.60505 7.6084 3.6543 9.55875 3.6543 11.9646V61.6973C3.6543 62.9425 4.17771 64.0649 5.01523 64.8588H55.0834V66.0537H57.7436C60.1495 66.054 62.1002 64.1035 62.1002 61.6975Z" fill="#A8A8A8"/>
<path d="M55.0835 7.6084H5.35052C2.94489 7.6084 0.994141 9.55875 0.994141 11.9646V61.6973C0.994141 64.1034 2.94489 66.0537 5.35052 66.0537H55.0834C57.4893 66.0537 59.4399 64.1034 59.4399 61.6973V11.9646C59.4399 9.55875 57.4893 7.6084 55.0835 7.6084Z" fill="#E6E6E6"/>
<path d="M3.65437 61.6975V11.9646C3.65437 9.55875 5.60512 7.6084 8.01076 7.6084H5.35052C2.94489 7.6084 0.994141 9.55875 0.994141 11.9646V61.6973C0.994141 64.1034 2.94489 66.0537 5.35052 66.0537H8.01076C5.60512 66.054 3.65437 64.1035 3.65437 61.6975Z" fill="#CCCBCA"/>
<path d="M55.0835 7.6084H5.35052C2.94489 7.6084 0.994141 9.55875 0.994141 11.9646V23.155H59.4399V11.9646C59.4399 9.55875 57.4893 7.6084 55.0835 7.6084Z" fill="#EA473B"/>
<path d="M3.65437 11.9646C3.65437 9.55875 5.60512 7.6084 8.01076 7.6084H5.35052C2.94489 7.6084 0.994141 9.55875 0.994141 11.9646V23.155H3.65437V11.9646Z" fill="#D63322"/>
<path d="M47.6444 11.5029V12.4098C47.6444 13.2914 46.9299 13.3408 46.0483 13.3408H45.5163C44.6348 13.3408 43.9201 13.2913 43.9201 12.4098V11.5031C43.0761 12.0921 42.5235 13.0696 42.5235 14.1767C42.5235 15.9765 43.9825 17.4355 45.7823 17.4355C48.974 17.4355 50.242 13.3158 47.6444 11.5029ZM31.151 11.5029V12.4098C31.151 13.2914 30.4365 13.2078 29.5548 13.2078H29.0228C28.1413 13.2078 27.4267 13.2914 27.4267 12.4098V11.5031C26.5826 12.0921 26.03 13.0696 26.03 14.1767C26.03 15.9765 27.4891 17.4355 29.2888 17.4355C31.0886 17.4355 32.5476 15.9766 32.5476 14.1767C32.5476 13.0695 31.9949 12.092 31.151 11.5029ZM14.6575 11.5029V12.4098C14.6575 13.4377 13.6901 13.3408 12.5294 13.3408C11.6479 13.3408 10.9332 13.2913 10.9332 12.4098V11.5031C8.33314 13.3175 9.60761 17.4355 12.7954 17.4355C14.5951 17.4355 16.0542 15.9766 16.0542 14.1767C16.0542 13.0695 15.5014 12.092 14.6575 11.5029Z" fill="#414356"/>
<path d="M45.3173 14.1771C45.3173 14.1153 45.3197 14.0543 45.323 13.9934C44.5331 13.8976 43.9207 13.226 43.9207 12.4101V11.5034C43.0766 12.0924 42.524 13.0699 42.524 14.1771C42.524 15.9768 43.9831 17.4359 45.7828 17.4359C46.2827 17.4359 46.7561 17.323 47.1795 17.1218C46.0786 16.5988 45.3173 15.477 45.3173 14.1771ZM28.8239 14.1771C28.8239 14.1153 28.8263 14.0543 28.8296 13.9934C28.0396 13.8976 27.4272 13.226 27.4272 12.4101V11.5034C26.5832 12.0924 26.0306 13.0699 26.0306 14.1771C26.0306 15.9768 27.4896 17.4359 29.2894 17.4359C29.7893 17.4359 30.2626 17.323 30.686 17.1218C29.5852 16.5988 28.8239 15.477 28.8239 14.1771ZM12.3361 13.9934C11.5463 13.8976 10.9338 13.226 10.9338 12.4101V11.5034C10.0897 12.0924 9.53711 13.0699 9.53711 14.1771C9.53711 16.5771 12.0439 18.1428 14.1926 17.1218C13.0252 16.567 12.2604 15.3546 12.3361 13.9934Z" fill="#2F3242"/>
<path d="M0.994141 23.1548H59.4395V26.8791H0.994141V23.1548Z" fill="#F77C79"/>
<path d="M0.994141 23.1548H3.65437V26.8791H0.994141V23.1548Z" fill="#DD6464"/>
<path d="M13.0618 1.94629C13.9434 1.94629 14.6579 2.66095 14.6579 3.54243V12.4099C14.6579 13.2915 13.9434 14.0061 13.0618 14.0061H12.5297C11.6483 14.0061 10.9336 13.2915 10.9336 12.4099V3.54243C10.9336 2.66095 11.6483 1.94629 12.5297 1.94629H13.0618ZM29.5552 1.94629C30.4368 1.94629 31.1514 2.66095 31.1514 3.54243V12.4099C31.1514 13.2915 30.4368 14.0061 29.5552 14.0061H29.0232C28.1417 14.0061 27.427 13.2915 27.427 12.4099V3.54243C27.427 2.66095 28.1417 1.94629 29.0232 1.94629H29.5552ZM46.0487 1.94629C46.9303 1.94629 47.6448 2.66095 47.6448 3.54243V12.4099C47.6448 13.2915 46.9303 14.0061 46.0487 14.0061H45.5166C44.6352 14.0061 43.9205 13.2915 43.9205 12.4099V3.54243C43.9205 2.66095 44.6352 1.94629 45.5166 1.94629H46.0487Z" fill="#585A60"/>
<path d="M13.0618 1.94629C13.9434 1.94629 14.6579 2.66095 14.6579 3.54243V12.4099C14.6579 13.2915 13.9434 14.0061 13.0618 14.0061H12.5297C11.6483 14.0061 10.9336 13.2915 10.9336 12.4099V3.54243C10.9336 2.66095 11.6483 1.94629 12.5297 1.94629H13.0618ZM29.5552 1.94629C30.4368 1.94629 31.1514 2.66095 31.1514 3.54243V12.4099C31.1514 13.2915 30.4368 14.0061 29.5552 14.0061H29.0232C28.1417 14.0061 27.427 13.2915 27.427 12.4099V3.54243C27.427 2.66095 28.1417 1.94629 29.0232 1.94629H29.5552ZM46.0487 1.94629C46.9303 1.94629 47.6448 2.66095 47.6448 3.54243V12.4099C47.6448 13.2915 46.9303 14.0061 46.0487 14.0061H45.5166C44.6352 14.0061 43.9205 13.2915 43.9205 12.4099V3.54243C43.9205 2.66095 44.6352 1.94629 45.5166 1.94629H46.0487Z" fill="#585A60"/>
<path d="M12.7958 12.4099V3.54243C12.7958 2.89869 13.1779 2.34513 13.7268 2.09291C13.5183 1.99653 13.2914 1.9465 13.0618 1.94629H12.5297C11.6483 1.94629 10.9336 2.66095 10.9336 3.54243V12.4099C10.9336 13.2915 11.6483 14.0061 12.5297 14.0061H13.0618C13.2995 14.0061 13.5242 13.9527 13.7268 13.8594C13.1779 13.6072 12.7958 13.0539 12.7958 12.4099ZM29.2892 12.4099V3.54243C29.2892 2.89869 29.6713 2.34513 30.2202 2.09291C30.0117 1.99651 29.7848 1.94649 29.5551 1.94629H29.0231C28.1416 1.94629 27.4269 2.66095 27.4269 3.54243V12.4099C27.4269 13.2915 28.1416 14.0061 29.0231 14.0061H29.5551C29.7928 14.0061 30.0176 13.9527 30.2202 13.8594C29.6713 13.6072 29.2892 13.0539 29.2892 12.4099ZM45.7827 12.4099V3.54243C45.7827 2.89869 46.1648 2.34513 46.7137 2.09291C46.5052 1.99651 46.2783 1.94649 46.0486 1.94629H45.5165C44.635 1.94629 43.9204 2.66095 43.9204 3.54243V12.4099C43.9204 13.2915 44.635 14.0061 45.5165 14.0061H46.0486C46.2863 14.0061 46.511 13.9527 46.7137 13.8594C46.1648 13.6072 45.7827 13.0539 45.7827 12.4099Z" fill="#414356"/>
<path d="M60.3912 11.2452C60.0384 8.61932 57.783 6.61079 55.0868 6.61079H48.6462V3.54243C48.6462 2.1123 47.4826 0.94873 46.0525 0.94873H45.5204C44.0902 0.94873 42.9267 2.1123 42.9267 3.54243V6.61079H32.1527V3.54243C32.1527 2.1123 30.9891 0.94873 29.559 0.94873H29.027C27.5967 0.94873 26.4333 2.1123 26.4333 3.54243V6.61079H15.6593V3.54243C15.6593 2.1123 14.4957 0.94873 13.0656 0.94873H12.5335C11.1033 0.94873 9.93982 2.1123 9.93982 3.54243V6.61079H5.35394C2.40178 6.61079 0 9.01257 0 11.9646V61.6973C0 64.6495 2.40178 67.0512 5.35394 67.0512H62.7176C64.9488 67.0512 66.9674 65.6456 67.738 63.5605C67.8429 63.2829 68.1639 62.2417 67.8955 60.4734C67.6362 58.641 61.0968 16.4541 60.3912 11.2452ZM48.0452 14.0686C48.0469 14.1046 48.0478 14.1406 48.0478 14.1767C48.0478 15.4236 47.0336 16.438 45.7866 16.438C44.5397 16.438 43.5254 15.4237 43.5254 14.1767C43.5254 14.1406 43.5262 14.1045 43.5281 14.0686C43.5741 14.1237 43.6228 14.1762 43.673 14.2272C43.6812 14.2356 43.6893 14.2441 43.6977 14.2523C43.7488 14.303 43.8022 14.3512 43.8575 14.3975L43.8879 14.4226C43.9439 14.4682 44.0017 14.5117 44.0616 14.5524C44.0708 14.5587 44.0802 14.5647 44.0895 14.5708C44.1523 14.6123 44.2165 14.6522 44.2829 14.6883C44.2863 14.6902 44.2899 14.6918 44.2934 14.6938C44.3595 14.7294 44.4274 14.762 44.4968 14.7919L44.5189 14.8017C44.588 14.8305 44.6583 14.8563 44.7297 14.879C44.7416 14.8829 44.7534 14.8869 44.7655 14.8905C44.9221 14.9379 45.0827 14.9707 45.2454 14.9883C45.2555 14.9894 45.2656 14.9899 45.2756 14.991C45.3564 14.9986 45.4378 15.0033 45.5204 15.0033H46.0525C46.1351 15.0033 46.2165 14.9986 46.2972 14.991C46.3073 14.9901 46.3176 14.9895 46.3275 14.9883C46.4164 14.9788 46.5047 14.9647 46.5921 14.946C46.6651 14.9304 46.737 14.9121 46.8074 14.8905L46.8432 14.879C46.9148 14.8561 46.9853 14.8306 47.054 14.8017L47.0761 14.7919C47.1453 14.7622 47.2132 14.7295 47.2795 14.6938C47.283 14.6919 47.2866 14.6903 47.29 14.6883C47.3566 14.6522 47.4206 14.6123 47.4834 14.5708C47.4927 14.5647 47.5021 14.5587 47.5113 14.5524C47.5712 14.5117 47.6288 14.4681 47.685 14.4226L47.7154 14.3975C47.7707 14.3511 47.8239 14.303 47.8752 14.2523C47.8836 14.2441 47.8917 14.2356 47.8999 14.2272C47.9505 14.1762 47.9992 14.1237 48.0452 14.0686ZM44.922 3.54243C44.9221 3.38372 44.9853 3.23157 45.0975 3.11936C45.2097 3.00714 45.3619 2.94402 45.5206 2.94384H46.0526C46.2113 2.94402 46.3635 3.00714 46.4757 3.11936C46.5879 3.23157 46.651 3.38372 46.6512 3.54243V12.4099C46.651 12.5686 46.5879 12.7208 46.4757 12.833C46.3635 12.9452 46.2113 13.0083 46.0526 13.0085H45.5206C45.3619 13.0083 45.2097 12.9452 45.0975 12.833C44.9853 12.7208 44.9221 12.5686 44.922 12.4099V3.54243ZM31.5517 14.0686C31.5535 14.1046 31.5544 14.1406 31.5544 14.1767C31.5544 15.4236 30.5401 16.438 29.2931 16.438C28.0461 16.438 27.032 15.4237 27.032 14.1767C27.032 14.1406 27.0328 14.1045 27.0345 14.0686C27.0805 14.1237 27.1292 14.1762 27.1794 14.2272C27.1876 14.2356 27.1957 14.2441 27.2041 14.2523C27.2552 14.303 27.3086 14.3512 27.3639 14.3975L27.3943 14.4226C27.4504 14.4682 27.5081 14.5117 27.568 14.5524C27.5772 14.5587 27.5866 14.5647 27.5959 14.5708C27.6587 14.6123 27.7229 14.6522 27.7893 14.6883C27.7927 14.6902 27.7963 14.6918 27.7998 14.6938C27.8659 14.7294 27.9339 14.762 28.0033 14.7919L28.0253 14.8017C28.0944 14.8305 28.1647 14.8563 28.2361 14.879C28.248 14.8829 28.2598 14.8869 28.2719 14.8905C28.4285 14.9379 28.5891 14.9707 28.7518 14.9883C28.7619 14.9894 28.772 14.9899 28.7822 14.991C28.8628 14.9986 28.9444 15.0033 29.027 15.0033H29.559C29.6416 15.0033 29.723 14.9986 29.8038 14.991C29.8139 14.9901 29.8241 14.9895 29.8342 14.9883C29.9231 14.9788 30.0114 14.9647 30.0988 14.946C30.1718 14.9304 30.2437 14.9121 30.3141 14.8905L30.3499 14.879C30.4215 14.8561 30.492 14.8306 30.5607 14.8017L30.5827 14.7919C30.652 14.7622 30.7199 14.7295 30.7862 14.6938C30.7897 14.6919 30.7932 14.6903 30.7967 14.6883C30.8631 14.6522 30.9272 14.6123 30.9901 14.5708C30.9994 14.5647 31.0088 14.5587 31.018 14.5524C31.0779 14.5117 31.1355 14.4681 31.1917 14.4226L31.2221 14.3975C31.2773 14.3511 31.3306 14.303 31.3819 14.2523C31.3902 14.2441 31.3983 14.2356 31.4066 14.2272C31.457 14.1762 31.5058 14.1237 31.5517 14.0686ZM28.4286 3.54243C28.4288 3.38372 28.4919 3.23157 28.6042 3.11936C28.7164 3.00714 28.8685 2.94402 29.0272 2.94384H29.5593C29.718 2.94402 29.8701 3.00714 29.9824 3.11936C30.0946 3.23157 30.1577 3.38372 30.1579 3.54243V12.4099C30.1577 12.5686 30.0946 12.7208 29.9824 12.833C29.8701 12.9452 29.718 13.0083 29.5593 13.0085H29.0272C28.8685 13.0083 28.7164 12.9452 28.6042 12.833C28.4919 12.7208 28.4288 12.5686 28.4286 12.4099V3.54243ZM15.0583 14.0686C15.06 14.1046 15.0609 14.1406 15.0609 14.1767C15.0609 15.4236 14.0466 16.438 12.7997 16.438C11.5079 16.438 10.4784 15.3529 10.5412 14.0686C10.7523 14.3201 11.0082 14.5303 11.296 14.6886C11.2994 14.6904 11.303 14.692 11.3065 14.694C11.3726 14.7296 11.4406 14.7623 11.5099 14.7922L11.532 14.802C11.6011 14.8308 11.6714 14.8566 11.7428 14.8793C11.7547 14.8832 11.7665 14.8871 11.7785 14.8907C11.935 14.9382 12.0957 14.9709 12.2583 14.9886C12.2684 14.9897 12.2785 14.9902 12.2887 14.9913C12.3694 14.9988 12.4509 15.0036 12.5335 15.0036H13.0656C13.1482 15.0036 13.2296 14.9988 13.3103 14.9913C13.3204 14.9903 13.3307 14.9898 13.3407 14.9886C13.4296 14.9791 13.5179 14.9649 13.6053 14.9462C13.6784 14.9307 13.7502 14.9124 13.8206 14.8907L13.8565 14.8793C13.928 14.8563 13.9986 14.8308 14.0672 14.802L14.0893 14.7922C14.1585 14.7625 14.2264 14.7297 14.2927 14.694C14.2962 14.6922 14.2998 14.6906 14.3032 14.6886C14.3696 14.6525 14.4338 14.6126 14.4966 14.571C14.5059 14.5649 14.5153 14.559 14.5245 14.5527C14.5844 14.5119 14.642 14.4684 14.6982 14.4228L14.7286 14.3977C14.7839 14.3514 14.8371 14.3033 14.8884 14.2526C14.8968 14.2443 14.9049 14.2358 14.9131 14.2275C14.9637 14.1765 15.0121 14.1235 15.0583 14.0686ZM11.9351 3.54243C11.9352 3.38372 11.9984 3.23157 12.1106 3.11936C12.2228 3.00714 12.3749 2.94402 12.5336 2.94384H13.0657C13.2244 2.94402 13.3765 3.00714 13.4888 3.11936C13.601 3.23157 13.6641 3.38372 13.6643 3.54243V12.4099C13.6641 12.5686 13.601 12.7208 13.4888 12.833C13.3765 12.9452 13.2244 13.0083 13.0657 13.0085H12.5335C12.3748 13.0083 12.2227 12.9452 12.1104 12.833C11.9982 12.7208 11.9351 12.5686 11.9349 12.4099V11.5032L11.9351 3.54243ZM1.99524 11.9646C1.99524 10.1127 3.502 8.6059 5.35407 8.6059H9.94009V11.0263C7.06815 13.6359 8.92062 18.4331 12.7998 18.4331C15.1467 18.4331 17.0562 16.5237 17.0562 14.1767C17.0562 12.9703 16.5419 11.8281 15.6595 11.0261V8.60603H26.4335V11.0264C25.5511 11.8282 25.0369 12.9704 25.0369 14.1769C25.0369 16.5238 26.9463 18.4332 29.2933 18.4332C31.6402 18.4332 33.5496 16.5238 33.5496 14.1769C33.5496 12.9704 33.0354 11.8282 32.153 11.0263V8.60603H42.9269V11.0264C42.0445 11.8282 41.5302 12.9704 41.5302 14.1769C41.5302 16.5238 43.4396 18.4332 45.7866 18.4332C48.1335 18.4332 50.043 16.5238 50.043 14.1769C50.043 12.9704 49.5287 11.8282 48.6463 11.0263V8.60603H55.0869C56.939 8.60603 58.4459 10.1128 58.4459 11.9647V22.1576H1.99524V11.9646ZM65.8692 62.8619C65.3841 64.1745 64.1175 65.0564 62.7175 65.0564H59.2519C59.9946 64.1372 60.4407 62.9687 60.4407 61.6976V48.485C60.4407 48.2204 60.3356 47.9667 60.1485 47.7796C59.9615 47.5925 59.7077 47.4874 59.4432 47.4874C59.1786 47.4874 58.9249 47.5925 58.7378 47.7796C58.5507 47.9667 58.4456 48.2204 58.4456 48.485V61.6976C58.4456 63.5496 56.9387 65.0564 55.0866 65.0564H5.35394C3.50187 65.0564 1.99511 63.5496 1.99511 61.6976V27.8771H26.9721C27.2367 27.8771 27.4904 27.772 27.6775 27.585C27.8645 27.3979 27.9696 27.1441 27.9696 26.8796C27.9696 26.615 27.8645 26.3613 27.6775 26.1742C27.4904 25.9871 27.2367 25.882 26.9721 25.882H1.99524V24.1528H58.4459V25.882H31.6142C31.3496 25.882 31.0959 25.9871 30.9088 26.1742C30.7217 26.3613 30.6166 26.615 30.6166 26.8796C30.6166 27.1441 30.7217 27.3979 30.9088 27.585C31.0959 27.772 31.3496 27.8771 31.6142 27.8771H58.4459V43.8295C58.4459 44.0941 58.551 44.3478 58.738 44.5349C58.9251 44.722 59.1789 44.8271 59.4434 44.8271C59.708 44.8271 59.9617 44.722 60.1488 44.5349C60.3359 44.3478 60.441 44.0941 60.441 43.8295V25.0442L65.9188 60.7458L65.9211 60.7608C66.132 62.1366 65.8745 62.8477 65.8692 62.8619Z" fill="black"/>
<path d="M22.735 32.9917H19.4507C19.1861 32.9917 18.9324 33.0968 18.7453 33.2839C18.5582 33.471 18.4531 33.7247 18.4531 33.9893C18.4531 34.2538 18.5582 34.5076 18.7453 34.6946C18.9324 34.8817 19.1861 34.9868 19.4507 34.9868H22.735C22.866 34.9868 22.9957 34.961 23.1168 34.9109C23.2378 34.8608 23.3478 34.7873 23.4404 34.6947C23.5331 34.602 23.6065 34.4921 23.6567 34.371C23.7068 34.25 23.7326 34.1203 23.7326 33.9893C23.7326 33.8582 23.7068 33.7285 23.6567 33.6075C23.6065 33.4864 23.5331 33.3765 23.4404 33.2838C23.3478 33.1912 23.2378 33.1177 23.1168 33.0676C22.9957 33.0175 22.866 32.9917 22.735 32.9917ZM31.8657 32.9917H28.581C28.3164 32.9917 28.0627 33.0968 27.8756 33.2839C27.6886 33.471 27.5835 33.7247 27.5835 33.9893C27.5835 34.2538 27.6886 34.5076 27.8756 34.6946C28.0627 34.8817 28.3164 34.9868 28.581 34.9868H31.8657C31.9967 34.9868 32.1265 34.961 32.2475 34.9109C32.3685 34.8608 32.4785 34.7873 32.5711 34.6947C32.6638 34.602 32.7373 34.4921 32.7874 34.371C32.8375 34.25 32.8633 34.1203 32.8633 33.9893C32.8633 33.8582 32.8375 33.7285 32.7874 33.6075C32.7373 33.4864 32.6638 33.3765 32.5711 33.2838C32.4785 33.1912 32.3685 33.1177 32.2475 33.0676C32.1265 33.0175 31.9967 32.9917 31.8657 32.9917ZM40.9966 32.9917H37.7117C37.4472 32.9917 37.1934 33.0968 37.0064 33.2839C36.8193 33.471 36.7142 33.7247 36.7142 33.9893C36.7142 34.2538 36.8193 34.5076 37.0064 34.6946C37.1934 34.8817 37.4472 34.9868 37.7117 34.9868H40.9966C41.2612 34.9868 41.5149 34.8817 41.702 34.6946C41.889 34.5076 41.9941 34.2538 41.9941 33.9893C41.9941 33.7247 41.889 33.471 41.702 33.2839C41.5149 33.0968 41.2612 32.9917 40.9966 32.9917ZM50.1269 32.9917H46.8422C46.5776 32.9917 46.3239 33.0968 46.1368 33.2839C45.9497 33.471 45.8446 33.7247 45.8446 33.9893C45.8446 34.2538 45.9497 34.5076 46.1368 34.6946C46.3239 34.8817 46.5776 34.9868 46.8422 34.9868H50.1269C50.2579 34.9868 50.3876 34.961 50.5087 34.9109C50.6297 34.8608 50.7397 34.7873 50.8323 34.6947C50.925 34.602 50.9984 34.4921 51.0486 34.371C51.0987 34.25 51.1245 34.1203 51.1245 33.9893C51.1245 33.8582 51.0987 33.7285 51.0486 33.6075C50.9984 33.4864 50.925 33.3765 50.8323 33.2838C50.7397 33.1912 50.6297 33.1177 50.5087 33.0676C50.3876 33.0175 50.2579 32.9917 50.1269 32.9917ZM13.6045 41.029H10.3198C10.0553 41.029 9.80152 41.1341 9.61444 41.3212C9.42736 41.5082 9.32227 41.762 9.32227 42.0265C9.32227 42.2911 9.42736 42.5448 9.61444 42.7319C9.80152 42.919 10.0553 43.0241 10.3198 43.0241H13.6045C13.7355 43.0241 13.8653 42.9983 13.9863 42.9482C14.1073 42.8981 14.2173 42.8246 14.31 42.732C14.4026 42.6393 14.4761 42.5293 14.5262 42.4083C14.5763 42.2873 14.6021 42.1575 14.6021 42.0265C14.6021 41.8955 14.5763 41.7658 14.5262 41.6447C14.4761 41.5237 14.4026 41.4137 14.31 41.3211C14.2174 41.2284 14.1074 41.155 13.9863 41.1048C13.8653 41.0547 13.7355 41.0289 13.6045 41.029ZM22.735 41.029H19.4507C19.1861 41.029 18.9324 41.1341 18.7453 41.3212C18.5582 41.5082 18.4531 41.762 18.4531 42.0265C18.4531 42.2911 18.5582 42.5448 18.7453 42.7319C18.9324 42.919 19.1861 43.0241 19.4507 43.0241H22.735C22.866 43.0241 22.9957 42.9983 23.1168 42.9482C23.2378 42.8981 23.3478 42.8246 23.4404 42.732C23.5331 42.6393 23.6065 42.5293 23.6567 42.4083C23.7068 42.2873 23.7326 42.1575 23.7326 42.0265C23.7326 41.8955 23.7068 41.7658 23.6567 41.6448C23.6065 41.5237 23.5331 41.4138 23.4404 41.3211C23.3478 41.2285 23.2378 41.155 23.1168 41.1049C22.9957 41.0548 22.866 41.029 22.735 41.029ZM31.8657 41.029H28.581C28.3164 41.029 28.0627 41.1341 27.8756 41.3212C27.6886 41.5082 27.5835 41.762 27.5835 42.0265C27.5835 42.2911 27.6886 42.5448 27.8756 42.7319C28.0627 42.919 28.3164 43.0241 28.581 43.0241H31.8657C31.9967 43.0241 32.1265 42.9983 32.2475 42.9482C32.3685 42.8981 32.4785 42.8246 32.5711 42.732C32.6638 42.6393 32.7373 42.5293 32.7874 42.4083C32.8375 42.2873 32.8633 42.1575 32.8633 42.0265C32.8633 41.8955 32.8375 41.7658 32.7874 41.6447C32.7373 41.5237 32.6638 41.4137 32.5712 41.3211C32.4785 41.2284 32.3686 41.155 32.2475 41.1048C32.1265 41.0547 31.9967 41.0289 31.8657 41.029ZM40.9966 41.029H37.7117C37.4472 41.029 37.1934 41.1341 37.0064 41.3212C36.8193 41.5082 36.7142 41.762 36.7142 42.0265C36.7142 42.2911 36.8193 42.5448 37.0064 42.7319C37.1934 42.919 37.4472 43.0241 37.7117 43.0241H40.9966C41.2612 43.0241 41.5149 42.919 41.702 42.7319C41.889 42.5448 41.9941 42.2911 41.9941 42.0265C41.9941 41.762 41.889 41.5082 41.702 41.3212C41.5149 41.1341 41.2612 41.029 40.9966 41.029ZM50.1269 41.029H46.8422C46.5776 41.029 46.3239 41.1341 46.1368 41.3212C45.9497 41.5082 45.8446 41.762 45.8446 42.0265C45.8446 42.2911 45.9497 42.5448 46.1368 42.7319C46.3239 42.919 46.5776 43.0241 46.8422 43.0241H50.1269C50.2579 43.0241 50.3876 42.9983 50.5087 42.9482C50.6297 42.8981 50.7397 42.8246 50.8323 42.732C50.925 42.6393 50.9984 42.5293 51.0486 42.4083C51.0987 42.2873 51.1245 42.1575 51.1245 42.0265C51.1245 41.8955 51.0987 41.7658 51.0486 41.6447C50.9985 41.5237 50.925 41.4137 50.8324 41.3211C50.7397 41.2284 50.6297 41.155 50.5087 41.1048C50.3877 41.0547 50.2579 41.0289 50.1269 41.029ZM13.6045 49.0664H10.3198C10.0553 49.0664 9.80152 49.1715 9.61444 49.3586C9.42736 49.5457 9.32227 49.7994 9.32227 50.0639C9.32227 50.3285 9.42736 50.5823 9.61444 50.7693C9.80152 50.9564 10.0553 51.0615 10.3198 51.0615H13.6045C14.1556 51.0615 14.6021 50.6149 14.6021 50.0639C14.6021 49.513 14.1557 49.0664 13.6045 49.0664ZM22.735 49.0664H19.4507C19.1861 49.0664 18.9324 49.1715 18.7453 49.3586C18.5582 49.5457 18.4531 49.7994 18.4531 50.0639C18.4531 50.3285 18.5582 50.5823 18.7453 50.7693C18.9324 50.9564 19.1861 51.0615 19.4507 51.0615H22.735C23.286 51.0615 23.7326 50.6149 23.7326 50.0639C23.7326 49.513 23.286 49.0664 22.735 49.0664ZM31.8657 49.0664H28.581C28.3164 49.0664 28.0627 49.1715 27.8756 49.3586C27.6886 49.5457 27.5835 49.7994 27.5835 50.0639C27.5835 50.3285 27.6886 50.5823 27.8756 50.7693C28.0627 50.9564 28.3164 51.0615 28.581 51.0615H31.8657C32.4168 51.0615 32.8633 50.6149 32.8633 50.0639C32.8633 49.513 32.4169 49.0664 31.8657 49.0664ZM40.9966 49.0664H37.7117C37.4472 49.0664 37.1934 49.1715 37.0064 49.3586C36.8193 49.5457 36.7142 49.7994 36.7142 50.0639C36.7142 50.3285 36.8193 50.5823 37.0064 50.7693C37.1934 50.9564 37.4472 51.0615 37.7117 51.0615H40.9966C41.2612 51.0615 41.5149 50.9564 41.702 50.7693C41.889 50.5823 41.9941 50.3285 41.9941 50.0639C41.9941 49.7994 41.889 49.5457 41.702 49.3586C41.5149 49.1715 41.2612 49.0664 40.9966 49.0664ZM50.1269 49.0664H46.8422C46.5776 49.0664 46.3239 49.1715 46.1368 49.3586C45.9497 49.5457 45.8446 49.7994 45.8446 50.0639C45.8446 50.3285 45.9497 50.5823 46.1368 50.7693C46.3239 50.9564 46.5776 51.0615 46.8422 51.0615H50.1269C50.678 51.0615 51.1245 50.6149 51.1245 50.0639C51.1245 49.513 50.6781 49.0664 50.1269 49.0664ZM13.6045 57.1039H10.3198C10.0553 57.1039 9.80152 57.209 9.61444 57.3961C9.42736 57.5832 9.32227 57.8369 9.32227 58.1015C9.32227 58.3661 9.42736 58.6198 9.61444 58.8069C9.80152 58.9939 10.0553 59.099 10.3198 59.099H13.6045C13.7355 59.0991 13.8653 59.0733 13.9863 59.0231C14.1073 58.973 14.2173 58.8995 14.31 58.8069C14.4026 58.7143 14.4761 58.6043 14.5262 58.4833C14.5763 58.3622 14.6021 58.2325 14.6021 58.1015C14.6021 57.9705 14.5763 57.8408 14.5262 57.7197C14.4761 57.5987 14.4026 57.4887 14.31 57.3961C14.2173 57.3034 14.1073 57.23 13.9863 57.1798C13.8653 57.1297 13.7355 57.1039 13.6045 57.1039ZM22.735 57.1039H19.4507C19.1861 57.1039 18.9324 57.209 18.7453 57.3961C18.5582 57.5832 18.4531 57.8369 18.4531 58.1015C18.4531 58.3661 18.5582 58.6198 18.7453 58.8069C18.9324 58.9939 19.1861 59.099 19.4507 59.099H22.735C22.866 59.0991 22.9957 59.0733 23.1168 59.0231C23.2378 58.973 23.3478 58.8995 23.4404 58.8069C23.5331 58.7143 23.6065 58.6043 23.6567 58.4833C23.7068 58.3622 23.7326 58.2325 23.7326 58.1015C23.7326 57.9705 23.7068 57.8408 23.6567 57.7197C23.6065 57.5987 23.5331 57.4887 23.4404 57.3961C23.3478 57.3034 23.2378 57.23 23.1168 57.1798C22.9957 57.1297 22.866 57.1039 22.735 57.1039ZM31.8657 57.1039H28.581C28.3164 57.1039 28.0627 57.209 27.8756 57.3961C27.6886 57.5832 27.5835 57.8369 27.5835 58.1015C27.5835 58.3661 27.6886 58.6198 27.8756 58.8069C28.0627 58.9939 28.3164 59.099 28.581 59.099H31.8657C31.9967 59.0991 32.1265 59.0733 32.2475 59.0231C32.3685 58.973 32.4785 58.8995 32.5711 58.8069C32.6638 58.7143 32.7373 58.6043 32.7874 58.4833C32.8375 58.3622 32.8633 58.2325 32.8633 58.1015C32.8633 57.9705 32.8375 57.8408 32.7874 57.7197C32.7373 57.5987 32.6638 57.4887 32.5711 57.3961C32.4785 57.3034 32.3685 57.23 32.2475 57.1798C32.1265 57.1297 31.9967 57.1039 31.8657 57.1039ZM40.9966 57.1039H37.7117C37.4472 57.1039 37.1934 57.209 37.0064 57.3961C36.8193 57.5832 36.7142 57.8369 36.7142 58.1015C36.7142 58.3661 36.8193 58.6198 37.0064 58.8069C37.1934 58.9939 37.4472 59.099 37.7117 59.099H40.9966C41.2612 59.099 41.5149 58.9939 41.702 58.8069C41.889 58.6198 41.9941 58.3661 41.9941 58.1015C41.9941 57.8369 41.889 57.5832 41.702 57.3961C41.5149 57.209 41.2612 57.1039 40.9966 57.1039Z" fill="black"/>
</svg>
