<svg width="81" height="77" viewBox="0 0 81 77" fill="none" xmlns="http://www.w3.org/2000/svg">
<path d="M7.2625 19.8082H44.8355V29.1906H7.2625V19.8082Z" fill="#46150D" stroke="#010101"/>
<path d="M51.0993 64.5558C51.0993 62.4571 50.4385 60.4092 49.2076 58.7027C47.9767 56.9998 46.2448 55.7253 44.2478 55.0609L32.3128 51.085H19.7897L7.85482 55.0609C5.86143 55.7253 4.12583 56.9998 2.89494 58.7027C1.66405 60.4056 1.00323 62.4535 1.00323 64.5558V76.1094H51.0993V64.5558Z" fill="white" stroke="#010101"/>
<path d="M28.5541 64.8498H23.5434L21.0381 57.3447H31.0559L28.5505 64.8498H28.5541Z" fill="#9ECE67" stroke="#010101"/>
<path d="M44.2476 55.0608L36.0707 52.3376V76.1094H51.0991V64.5557C51.0991 62.457 50.4383 60.4092 49.2074 58.7026C47.9765 56.9997 46.2446 55.7253 44.2476 55.0608Z" fill="#664998" stroke="#010101"/>
<path d="M7.85159 55.0608L16.0285 52.3376V76.1094H1V64.5557C1 62.457 1.66082 60.4092 2.89171 58.7026C4.1226 56.9997 5.85457 55.7253 7.85159 55.0608Z" fill="#664998" stroke="#010101"/>
<path d="M26.0509 57.3449C24.5368 56.9673 23.157 56.1866 22.0532 55.0828C20.9494 53.9826 20.1688 52.5993 19.7875 51.0888V39.8292H32.3106V51.0888C31.933 52.5993 31.1487 53.979 30.0449 55.0828C28.9411 56.183 27.5614 56.9673 26.0472 57.3449H26.0509Z" fill="#CEA487" stroke="#010101"/>
<path d="M43.9172 26.983C43.329 26.3948 42.5339 26.068 41.7024 26.068H39.8252V19.8119H12.2736V26.068H10.3928C9.56128 26.068 8.76611 26.3984 8.1779 26.983C7.58969 27.5712 7.25926 28.3664 7.25926 29.1942C7.25926 30.0221 7.58969 30.8209 8.1779 31.4055C8.76611 31.9937 9.56128 32.3205 10.3928 32.3205H12.3171C12.5023 34.9239 13.2794 37.4583 14.601 39.7203C16.126 42.3346 18.3191 44.4986 20.9552 45.991C22.5092 46.8697 24.263 47.3308 26.0494 47.3308C27.8358 47.3308 29.5896 46.8733 31.1436 45.9946C33.7797 44.5023 35.9728 42.3382 37.4978 39.7203C38.8194 37.4546 39.5964 34.9202 39.7816 32.3168H41.706C42.5375 32.3168 43.3327 31.9864 43.9209 31.4018C44.5091 30.8136 44.8395 30.0185 44.8395 29.1906C44.8395 28.3628 44.5091 27.5639 43.9209 26.9794L43.9172 26.983Z" fill="#CEA487" stroke="#010101"/>
<path d="M39.4107 34.8219H38.8334C35.3659 34.8219 31.9491 34.0158 28.8483 32.4691C27.9805 32.0333 27.0183 31.8082 26.0489 31.8082C25.0794 31.8082 24.1172 32.0333 23.2494 32.4691C20.1486 34.0195 16.7319 34.8256 13.2643 34.8219H12.687C13.2062 37.1566 14.2083 39.3606 15.6353 41.2814C17.0586 43.2058 18.8705 44.8106 20.9546 45.9907C22.5087 46.8694 24.2624 47.3305 26.0489 47.3305C27.8353 47.3305 29.589 46.8694 31.1431 45.9907C33.2273 44.8106 35.0391 43.2058 36.4624 41.2814C37.8857 39.357 38.8915 37.1566 39.4107 34.8219Z" fill="white" stroke="#010101"/>
<path d="M33.5652 29.8186C33.2348 29.8186 32.9153 29.6879 32.6792 29.4519C32.4432 29.2158 32.3125 28.8999 32.3125 28.5659V27.3132C32.3125 26.9828 32.4432 26.6633 32.6792 26.4273C32.9153 26.1913 33.2311 26.0606 33.5652 26.0606C33.8992 26.0606 34.2151 26.1913 34.4511 26.4273C34.6872 26.6633 34.8179 26.9792 34.8179 27.3132V28.5659C34.8179 28.8963 34.6872 29.2158 34.4511 29.4519C34.2151 29.6879 33.8992 29.8186 33.5652 29.8186Z" fill="#010101" stroke="#010101"/>
<path d="M18.5326 29.8186C18.2021 29.8186 17.8826 29.6879 17.6466 29.4519C17.4106 29.2158 17.2799 28.8999 17.2799 28.5659V27.3132C17.2799 26.9828 17.4106 26.6633 17.6466 26.4273C17.8826 26.1913 18.1985 26.0606 18.5326 26.0606C18.8666 26.0606 19.1825 26.1913 19.4185 26.4273C19.6545 26.6633 19.7853 26.9792 19.7853 27.3132V28.5659C19.7853 28.8963 19.6545 29.2158 19.4185 29.4519C19.1825 29.6879 18.8666 29.8186 18.5326 29.8186Z" fill="#010101" stroke="#010101"/>
<path d="M32.3134 61.0953L26.05 57.3409L32.3134 48.5831L36.2493 50.9432C36.5471 51.1211 36.8012 51.3571 37.0045 51.6403C37.2042 51.9235 37.3459 52.2431 37.4148 52.5808C37.4838 52.9184 37.4838 53.267 37.4148 53.6047C37.3422 53.9424 37.2043 54.2619 37.001 54.5451L32.3134 61.099V61.0953Z" fill="white" stroke="#010101"/>
<path d="M19.7891 61.0953L26.0525 57.3409L19.7891 48.5831L15.8531 50.9432C15.5554 51.1211 15.3013 51.3571 15.0979 51.6403C14.8982 51.9235 14.7566 52.2431 14.6876 52.5808C14.6186 52.9184 14.6186 53.267 14.6876 53.6047C14.7602 53.9424 14.8982 54.2619 15.1016 54.5451L19.7891 61.099V61.0953Z" fill="white" stroke="#010101"/>
<path d="M7.2625 7.25601H44.8355V19.7682H7.2625V7.25601Z" fill="#1A231D" stroke="#010101"/>
<path d="M44.2482 55.061L43.5837 54.8395V76.1096H51.0998V64.5559C51.0998 62.4572 50.4389 60.4094 49.2081 58.7028C47.9772 56.9999 46.2452 55.7255 44.2482 55.061Z" fill="#CEA487" stroke="#010101"/>
<path d="M47.4145 54.0334L47.164 53.1837C47.1059 52.984 46.997 52.8061 46.8481 52.6572C46.7029 52.512 46.5213 52.403 46.3216 52.345C46.1219 52.2869 45.9113 52.276 45.708 52.3196C45.5047 52.3631 45.3158 52.4539 45.1561 52.5846C43.4096 54.0588 42.1715 56.0485 41.6232 58.267C41.0749 60.4855 41.2419 62.8202 42.1024 64.9407L43.5803 68.6043L44.6986 62.2574C45.0943 60.0099 46.3688 58.0092 48.2387 56.6948C48.4021 56.5823 48.5328 56.4298 48.6272 56.2555C48.718 56.0812 48.7689 55.8851 48.7725 55.6891C48.7725 55.4894 48.7289 55.2969 48.6418 55.119C48.5546 54.9411 48.4239 54.7886 48.2641 54.6688L47.4072 54.0334H47.4145Z" fill="#664998" stroke="#010101"/>
<path d="M51.0997 7.25611L26.0499 1L1 7.25611V22.2701C1 22.6005 1.13072 22.92 1.36673 23.156C1.60274 23.392 1.91861 23.5227 2.25266 23.5227C2.5867 23.5227 2.90262 23.392 3.13863 23.156C3.37464 22.92 3.50536 22.6041 3.50536 22.2701V7.88064L26.0499 13.5122L51.0997 7.25611Z" fill="#1A231D" stroke="#010101"/>
<path d="M28.5541 64.85H23.5434L21.9313 76.1096H30.1626L28.5505 64.85H28.5541Z" fill="#9ECE67" stroke="#010101"/>
<path d="M47.7508 67.1191C47.5148 66.8831 47.3841 66.5672 47.3841 66.2368C47.3841 65.9064 47.5148 65.5869 47.7508 65.3509L55.7207 57.3882C55.8369 57.272 55.9749 57.1812 56.1274 57.1159C56.2799 57.0542 56.4433 57.0215 56.6067 57.0215C56.7701 57.0215 56.9335 57.0542 57.086 57.1159C57.2385 57.1776 57.3764 57.272 57.4926 57.3882C57.6088 57.5044 57.6996 57.6424 57.7649 57.7949C57.8267 57.9474 57.8594 58.1108 57.8594 58.2741C57.8594 58.4375 57.8267 58.6009 57.7649 58.7534C57.7032 58.9059 57.6088 59.0439 57.4926 59.1601L49.5227 67.1228C49.4065 67.2389 49.2686 67.3297 49.1161 67.3951C48.9636 67.4568 48.8001 67.4895 48.6368 67.4895C48.4734 67.4895 48.31 67.4568 48.1575 67.3951C48.005 67.3333 47.867 67.2389 47.7508 67.1228V67.1191Z" fill="#ABB3DB" stroke="#010101"/>
<path d="M60.4672 57.9584L56.9234 54.4182C56.455 53.9498 56.1899 53.3144 56.1899 52.6499C56.1899 51.9855 56.455 51.3501 56.9234 50.8817L62.2355 45.5732L69.3194 52.6499L64.0074 57.9584C63.775 58.1908 63.499 58.3759 63.194 58.4994C62.889 58.6265 62.5659 58.6882 62.2355 58.6882C61.9051 58.6882 61.5819 58.6228 61.2769 58.4994C60.9719 58.3723 60.6959 58.1908 60.4636 57.9584H60.4672Z" fill="#ABB3DB" stroke="#010101"/>
<path d="M62.2251 45.5733L67.5371 40.2649L74.6211 47.3416L69.309 52.65L62.2251 45.5733Z" fill="white" stroke="#010101"/>
<path d="M64.8821 48.2276L74.6239 38.4967L76.3958 40.2649L66.654 49.9958L64.8821 48.2276Z" fill="#ABB3DB" stroke="#010101"/>
<path d="M75.2168 49.6905L65.1954 39.68C64.9666 39.444 64.8396 39.1281 64.8432 38.8013C64.8432 38.4745 64.9775 38.1587 65.2099 37.9263C65.4423 37.6939 65.7546 37.5632 66.085 37.5596C66.4118 37.5596 66.7313 37.683 66.9673 37.9117L76.9851 47.9223C77.2138 48.1583 77.3409 48.4742 77.3373 48.801C77.3373 49.1277 77.2029 49.4436 76.9705 49.676C76.7382 49.9084 76.4259 50.0391 76.0955 50.0427C75.7687 50.0427 75.4528 49.9193 75.2132 49.6905H75.2168Z" fill="#ABB3DB" stroke="#010101"/>
<path d="M55.1401 56.19L56.912 54.4217L60.4558 57.9619L58.6839 59.7301C58.2155 60.1985 57.5765 60.4636 56.912 60.4636C56.2476 60.4636 55.6085 60.1985 55.1401 59.7301C54.6717 59.2617 54.4067 58.6227 54.4067 57.9619C54.4067 57.301 54.6717 56.662 55.1401 56.1936V56.19Z" fill="white" stroke="#010101"/>
<path d="M77.7651 43.3912L71.5017 37.1351C71.273 36.8991 71.1459 36.5832 71.1495 36.2564C71.1495 35.9296 71.2839 35.6137 71.5162 35.3813C71.7486 35.149 72.0609 35.0182 72.3913 35.0146C72.7181 35.0146 73.0376 35.1381 73.2736 35.3668L79.537 41.6229C79.7657 41.8589 79.8929 42.1748 79.8892 42.5016C79.8892 42.8284 79.7549 43.1443 79.5225 43.3767C79.2901 43.6091 78.9778 43.7398 78.6474 43.7434C78.3206 43.7434 78.0047 43.6199 77.7651 43.3912Z" fill="#ABB3DB" stroke="#010101"/>
</svg>
