<svg width="74" height="74" viewBox="0 0 74 74" fill="none" xmlns="http://www.w3.org/2000/svg">
<path d="M24.9091 63.3978L17.5948 70.7121L3.46539 56.5826L10.7247 49.3195C11.1177 50.1605 11.55 50.982 12.0217 51.7837C13.1104 53.6231 20.7745 61.1614 22.5509 62.1873C23.3174 62.6275 24.1034 63.0323 24.9052 63.4017L24.9091 63.3978Z" fill="#507793" stroke="#010101"/>
<path d="M66.0165 36.9813C66.0165 53.013 53.0229 66.0066 36.9912 66.0066C20.9595 66.0066 7.96594 53.013 7.96594 36.9813C7.96594 20.9496 20.9595 7.95607 36.9912 7.95607C53.0229 7.95607 66.0165 20.9496 66.0165 36.9813Z" fill="#FCCBAB" stroke="#010101"/>
<path d="M4.14524 50.7813L9.29787 45.6287C9.68697 46.8824 11.5499 50.9739 12.0255 51.7757L9.27427 54.5269C8.09125 55.7099 8.09125 57.6318 9.27427 58.8148L15.4527 64.9933C16.6357 66.1763 18.5576 66.1763 19.7407 64.9933L27.2475 57.4824C28.4738 56.2562 30.4586 56.2562 31.6849 57.4824C32.9111 58.7087 32.9111 60.6935 31.6849 61.9198L23.4862 70.1184C19.835 73.7696 14.0221 73.9465 10.1625 70.6411C9.96994 70.4721 9.78129 70.2992 9.60049 70.1184L4.14524 64.6631C3.94479 64.4627 3.75614 64.2544 3.57141 64.0382C0.317126 60.1826 0.509703 54.4089 4.1413 50.7773L4.14524 50.7813Z" fill="#F383A7" stroke="#010101"/>
<path d="M70.5435 17.4125L63.2842 24.6718C62.8912 23.8307 62.4588 23.0093 61.9872 22.2075C60.8749 20.3327 59.5583 18.5916 58.0569 17.0116C57.88 16.823 57.6992 16.6383 57.5145 16.4535C57.4398 16.3789 57.3691 16.3042 57.2905 16.2334C57.0311 15.978 56.7678 15.7304 56.5005 15.4867C54.9559 14.0796 53.2659 12.8455 51.4579 11.804C50.6915 11.3638 49.9054 10.959 49.0997 10.5934L56.414 3.27916L70.5435 17.4086V17.4125Z" fill="#507793" stroke="#010101"/>
<path d="M69.8645 23.2096L64.7119 28.3623C64.3228 27.1006 63.8433 25.8704 63.2852 24.6756C62.8922 23.8345 62.4598 23.0131 61.9882 22.2153L64.7394 19.464C65.9224 18.281 65.9224 16.3591 64.7394 15.1761L58.561 9.00159C57.3779 7.81857 55.456 7.81857 54.273 9.00159L46.7661 16.5085C45.5399 17.7347 43.5551 17.7347 42.3288 16.5085C41.1026 15.2822 41.1026 13.2974 42.3288 12.0712L50.5274 3.87255C54.1787 0.221302 59.9916 0.0444314 63.8511 3.34981C64.0437 3.51489 64.2324 3.69176 64.4132 3.87255L69.8684 9.32781C70.0689 9.52826 70.2575 9.73655 70.4383 9.95271C73.6926 13.8083 73.5 19.5819 69.8684 23.2135L69.8645 23.2096Z" fill="#F383A7" stroke="#010101"/>
<path d="M62.6815 13.1204L60.6653 11.1042C59.3997 9.83862 59.3997 7.78702 60.6653 6.52539L64.6192 2.57151C65.8847 1.30596 67.9324 1.30596 69.198 2.57151L71.2142 4.58776C72.4798 5.85332 72.4798 7.90492 71.2142 9.16655L67.2603 13.1204C65.9948 14.386 63.9471 14.386 62.6815 13.1204Z" fill="#CEA487" stroke="#010101"/>
<path d="M64.8828 10.9155L62.8666 8.89929C61.601 7.63373 61.601 5.58213 62.8666 4.3205L64.6195 2.57151C65.8851 1.30596 67.9328 1.30596 69.1983 2.57151L71.2146 4.58776C72.4801 5.85332 72.4801 7.90099 71.2146 9.16655L69.4616 10.9155C68.1961 12.1811 66.1484 12.1811 64.8828 10.9155Z" fill="#F3F3F3" stroke="#010101"/>
<path d="M11.3192 60.8739L13.3354 62.8901C14.601 64.1557 14.601 66.2033 13.3354 67.4689L9.38157 71.4228C8.11601 72.6883 6.06438 72.6883 4.80276 71.4228L2.78651 69.4065C1.52095 68.141 1.52095 66.0933 2.78651 64.8277L6.7404 60.8739C8.00596 59.6083 10.0576 59.6083 11.3192 60.8739Z" fill="#FCCBAB" stroke="#010101"/>
<path d="M9.14819 63.0474L11.1644 65.0637C12.43 66.3292 12.43 68.3808 11.1644 69.6425L9.38793 71.419C8.12237 72.6845 6.07076 72.6845 4.80913 71.419L2.79289 69.4027C1.52733 68.1372 1.52733 66.0895 2.79289 64.8239L4.56939 63.0474C5.83495 61.7819 7.88656 61.7819 9.14819 63.0474Z" fill="#F9CB7B" stroke="#010101"/>
<path d="M70.7122 56.4049L56.5827 70.5343L49.3235 63.2751C50.1646 62.882 50.986 62.4497 51.7839 61.9741C53.6586 60.8658 55.3997 59.5452 56.9797 58.0438C57.1684 57.867 57.3531 57.6862 57.5378 57.5014C57.6125 57.4268 57.6872 57.356 57.7579 57.2813C58.0134 57.0219 58.261 56.7586 58.5047 56.4874C59.9117 54.9428 61.1458 53.2528 62.1874 51.4448C62.6275 50.6784 63.0324 49.8924 63.4018 49.0867L70.7161 56.4009L70.7122 56.4049Z" fill="#507793" stroke="#010101"/>
<path d="M50.7874 69.8507L45.6348 64.6981C46.8964 64.305 48.1266 63.8295 49.3214 63.2714C50.1625 62.8783 50.9839 62.446 51.7818 61.9744L54.533 64.7256C55.716 65.9086 57.6379 65.9086 58.821 64.7256L64.9994 58.5511C66.1824 57.3681 66.1824 55.4461 64.9994 54.2631L57.4886 46.7562C56.2623 45.53 56.2623 43.5452 57.4886 42.3189C58.7149 41.0927 60.6996 41.0927 61.9259 42.3189L70.1245 50.5175C73.7757 54.1688 73.9526 59.9817 70.6472 63.8413C70.4822 64.0339 70.3053 64.2225 70.1245 64.4033L64.6692 69.8586C64.4688 70.059 64.2605 70.2476 64.0443 70.4284C60.1848 73.6827 54.4151 73.4902 50.7835 69.8586L50.7874 69.8507Z" fill="#7481BF" stroke="#010101"/>
<path d="M60.8763 62.6738L62.8925 60.6576C64.1581 59.392 66.2057 59.392 67.4713 60.6576L71.4252 64.6114C72.6907 65.877 72.6907 67.9247 71.4252 69.1902L69.4089 71.2065C68.1434 72.4721 66.0957 72.4721 64.8301 71.2065L60.8763 67.2526C59.6107 65.9871 59.6107 63.9394 60.8763 62.6738Z" fill="#A64332" stroke="#010101"/>
<path d="M63.08 64.8751L65.0962 62.8588C66.3618 61.5933 68.4095 61.5933 69.675 62.8588L71.428 64.6117C72.6935 65.8773 72.6935 67.925 71.428 69.1905L69.4117 71.2068C68.1462 72.4723 66.0945 72.4723 64.8329 71.2068L63.0839 69.4539C61.8184 68.1883 61.8184 66.1367 63.0839 64.8751H63.08Z" fill="#C97F4C" stroke="#010101"/>
<path d="M24.6772 10.7117C23.8361 11.1047 23.0147 11.537 22.2168 12.0126C20.3421 13.121 18.601 14.4415 17.021 15.9429C16.8323 16.1198 16.6476 16.3006 16.4629 16.4853C16.3882 16.56 16.3175 16.6307 16.2428 16.7093C15.9912 16.9687 15.7397 17.2321 15.496 17.5033C14.089 19.0479 12.8549 20.7379 11.8133 22.5458C11.3731 23.3122 10.9683 24.0983 10.6028 24.904L3.28851 17.5897L17.4179 3.4603L24.6772 10.7196V10.7117Z" fill="#507793" stroke="#010101"/>
<path d="M23.2133 4.13235L28.3659 9.28497C27.1043 9.67407 25.8741 10.1536 24.6793 10.7117C23.8382 11.1047 23.0168 11.5371 22.2189 12.0087L19.4677 9.25748C18.2847 8.07446 16.3628 8.07446 15.1798 9.25748L9.00135 15.432C7.81833 16.615 7.81833 18.5369 9.00135 19.7199L16.5082 27.2268C17.7345 28.4531 17.7345 30.4379 16.5082 31.6641C15.282 32.8904 13.2972 32.8904 12.0709 31.6641L3.8723 23.4655C0.221051 19.8143 0.0441927 14.0014 3.34958 10.1418C3.51465 9.94921 3.68758 9.76054 3.8723 9.57974L9.32756 4.12451C9.528 3.92406 9.73631 3.7354 9.95248 3.55461C13.8081 0.30032 19.5817 0.49291 23.2133 4.12451V4.13235Z" fill="#7481BF" stroke="#010101"/>
<path d="M13.1202 11.3125L11.1039 13.3288C9.83839 14.5943 7.79071 14.5943 6.52515 13.3288L2.57127 9.37488C1.30571 8.10933 1.30571 6.0577 2.57127 4.79607L4.58751 2.77983C5.85307 1.51427 7.90469 1.51427 9.16631 2.77983L13.1202 6.73371C14.3858 7.99926 14.3858 10.047 13.1202 11.3125Z" fill="#664336" stroke="#010101"/>
<path d="M10.5891 8.7814L8.57283 10.7976C7.30728 12.0632 5.25959 12.0632 3.99404 10.7976L2.57127 9.37488C1.30571 8.10932 1.30571 6.0577 2.57127 4.79607L4.58751 2.77983C5.85307 1.51427 7.90469 1.51427 9.16631 2.77983L10.5891 4.20259C11.8546 5.46815 11.8546 7.51585 10.5891 8.7814Z" fill="#46150D" stroke="#010101"/>
<path d="M30.1154 49.5783L24.782 54.3065C24.5934 54.4755 24.3458 54.558 24.0903 54.5463C23.8387 54.5305 23.6029 54.4166 23.4339 54.2279L21.3273 51.8501L19.8809 50.219L17.6603 47.7115C17.5778 47.6171 17.5149 47.5071 17.4717 47.3892C17.4324 47.2713 17.4127 47.1455 17.4206 47.0197C17.4284 46.8939 17.4599 46.7721 17.5149 46.6621C17.5699 46.5481 17.6446 46.4498 17.7389 46.3673L23.0723 41.6391C23.1667 41.5566 23.2767 41.4937 23.3946 41.4505C23.5125 41.4112 23.6383 41.3915 23.7641 41.3994C23.8898 41.4073 24.0117 41.4387 24.1217 41.4937C24.2357 41.5487 24.334 41.6234 24.4165 41.7177L26.5939 44.1742L28.0402 45.8053L30.1901 48.2303C30.3591 48.4189 30.4416 48.6665 30.4299 48.922C30.4141 49.1735 30.3002 49.4093 30.1115 49.5783H30.1154ZM56.6646 28.0049L49.0162 34.7847C48.7922 34.9812 48.5014 35.0834 48.2066 35.0637C47.9118 35.0441 47.6328 34.9105 47.4363 34.6904L41.8827 28.4255C41.7845 28.3154 41.7098 28.1857 41.6627 28.0482C41.6155 27.9106 41.5958 27.7612 41.6037 27.6158C41.6116 27.4704 41.6509 27.325 41.7137 27.1953C41.7766 27.0616 41.867 26.9438 41.9771 26.8455L49.6255 20.0657C49.7355 19.9675 49.8652 19.8928 50.0028 19.8456C50.1403 19.7985 50.2897 19.7788 50.4351 19.7867C50.5805 19.7945 50.7259 19.8338 50.8556 19.8967C50.9893 19.9596 51.1072 20.05 51.2015 20.1601L56.755 26.425C56.8533 26.535 56.9279 26.6647 56.9751 26.8022C57.0223 26.9398 57.0419 27.0892 57.0341 27.2346C57.0262 27.38 56.9869 27.5254 56.924 27.6551C56.8611 27.7888 56.7707 27.9067 56.6607 28.001L56.6646 28.0049Z" fill="white" stroke="#010101"/>
</svg>
