<svg width="328" height="41" viewBox="0 0 328 41" fill="none" xmlns="http://www.w3.org/2000/svg">
<path d="M150.51 12.3405V19.3075H153.351C154.873 19.3075 155.921 17.6503 155.921 16.0269C155.921 14.0315 155.38 12.3405 153.08 12.3405H150.51ZM145.403 33.0049V8.58636H154.602C159.269 8.58636 161.096 11.4273 161.096 15.8916C161.096 18.6649 160.284 23.0616 154.298 23.0616H150.51V33.0049H145.403ZM169.37 12.3405V19.1384H171.636C173.666 19.1384 174.24 17.1092 174.24 15.5534C174.24 13.2198 173.26 12.3405 171.636 12.3405H169.37ZM169.37 22.8925V33.0049H164.263V8.58636H173.699C177.183 8.58636 179.415 10.8185 179.415 14.9785C179.415 18.09 178.197 20.4236 174.883 20.9647V21.0324C175.999 21.1676 179.314 21.4382 179.314 25.8349C179.314 27.3907 179.415 31.9903 179.889 33.0049H174.883C174.207 31.5168 174.342 29.8596 174.342 28.27C174.342 25.3614 174.613 22.8925 170.689 22.8925H169.37ZM196.957 33.0049H183.361V8.58636H196.686V12.3405H188.468V18.3605H196.043V22.1146H188.468V29.2508H196.957V33.0049ZM204.532 33.0049L198.512 8.58636H203.822L207.61 26.3422H207.678L211.939 8.58636H216.978L210.519 33.0049H204.532ZM233.066 33.0049H219.47V8.58636H232.795V12.3405H224.577V18.3605H232.153V22.1146H224.577V29.2508H233.066V33.0049ZM241.386 33.0049H236.617V8.58636H243.516L250.01 25.4967H250.078V8.58636H254.846V33.0049H248.116L241.453 15.1476H241.386V33.0049ZM257.416 8.58636H273.887V12.6448H268.205V33.0049H263.098V12.6448H257.416V8.58636ZM281.564 33.0049H276.457V8.58636H281.564V33.0049ZM294.258 29.7581C297.133 29.7581 297.505 27.0524 297.505 20.7956C297.505 14.5388 297.133 11.8331 294.258 11.8331C291.383 11.8331 291.011 14.5388 291.011 20.7956C291.011 27.0524 291.383 29.7581 294.258 29.7581ZM294.258 33.4107C285.837 33.4107 285.837 27.1877 285.837 20.7956C285.837 14.3359 285.837 8.18051 294.258 8.18051C302.679 8.18051 302.679 14.3359 302.679 20.7956C302.679 27.1877 302.679 33.4107 294.258 33.4107ZM311.754 33.0049H306.986V8.58636H313.885L320.379 25.4967H320.446V8.58636H325.215V33.0049H318.485L311.822 15.1476H311.754V33.0049Z" fill="#5A2F84"/>
<path d="M120.478 26.8526C122.382 26.8526 122.629 25.0598 122.629 20.914C122.629 16.7682 122.382 14.9755 120.478 14.9755C118.573 14.9755 118.326 16.7682 118.326 20.914C118.326 25.0598 118.573 26.8526 120.478 26.8526ZM120.478 29.2728C114.898 29.2728 114.898 25.1494 114.898 20.914C114.898 16.6338 114.898 12.5552 120.478 12.5552C126.058 12.5552 126.058 16.6338 126.058 20.914C126.058 25.1494 126.058 29.2728 120.478 29.2728ZM132.205 29.0039H128.821V12.8241H137.225V15.3116H132.205V19.4574H137.001V21.9449H132.205V29.0039Z" fill="#5A2F84"/>
<path d="M7.27543 12.3291V19.3H10.1179C11.6407 19.3 12.6897 17.6419 12.6897 16.0176C12.6897 14.0211 12.1483 12.3291 9.84721 12.3291H7.27543ZM2.16571 33.0049V8.57296H11.37C16.0398 8.57296 17.8671 11.4155 17.8671 15.8822C17.8671 18.6571 17.055 23.0562 11.0654 23.0562H7.27543V33.0049H2.16571Z" fill="#5A2F84"/>
<path d="M45.2183 33L39.8041 8.56808H45.0491L48.23 25.7246H48.2977L52.1554 8.56808H58.1788L61.8334 25.7246H61.9011L64.9466 8.56808H69.9548L64.5405 33H58.8894L55.0655 15.1329H54.9979L50.768 33H45.2183ZM85.8481 33H72.2448V8.56808H85.5774V12.3242H77.3545V18.3476H84.9345V22.1038H77.3545V29.2438H85.8481V33ZM94.3756 12.3242V19.1259H96.6428C98.6732 19.1259 99.2485 17.0956 99.2485 15.539C99.2485 13.2041 98.2671 12.3242 96.6428 12.3242H94.3756ZM94.3756 22.8821V33H89.2659V8.56808H98.707C102.192 8.56808 104.426 10.8015 104.426 14.9637C104.426 18.0769 103.208 20.4118 99.8914 20.9532V21.0209C101.008 21.1563 104.324 21.427 104.324 25.8261C104.324 27.3827 104.426 31.9848 104.9 33H99.8914C99.2146 31.5111 99.35 29.853 99.35 28.2625C99.35 25.3523 99.6207 22.8821 95.6953 22.8821H94.3756Z" fill="#5A2F84"/>
<path d="M37.8945 20.8985C37.8945 27.35 37.8945 33.6309 29.3662 33.6309C20.8379 33.6309 20.8379 27.35 20.8379 20.8985C20.8379 14.3786 20.8379 8.16602 29.3662 8.16602C37.8945 8.16602 37.8945 14.3786 37.8945 20.8985Z" fill="#5A2F84"/>
<path d="M24.7578 19.3194L32.8561 9.64648L30.3973 16.4212H34.098L30.3973 22.0829H34.098L25.8177 31.855L28.2446 24.7945H24.7578L28.2446 19.3194H24.7578Z" fill="#F8CB20"/>
</svg>
