<svg width="41" height="41" viewBox="0 0 41 41" fill="none" xmlns="http://www.w3.org/2000/svg">
<path d="M14.4151 21.315H17.2361V32.5968C17.2361 32.8195 17.4219 33 17.6512 33H22.4342C22.6635 33 22.8493 32.8195 22.8493 32.5968V21.3681H26.0923C26.3032 21.3681 26.4806 21.2144 26.5046 21.011L26.9972 16.8576C27.0107 16.7433 26.9734 16.6289 26.8947 16.5431C26.816 16.4573 26.7032 16.4082 26.5849 16.4082H22.8495V13.8047C22.8495 13.0198 23.2845 12.6219 24.1426 12.6219C24.2648 12.6219 26.5849 12.6219 26.5849 12.6219C26.8142 12.6219 27 12.4413 27 12.2186V8.40621C27 8.18347 26.8142 8.00298 26.5849 8.00298H23.219C23.1953 8.00185 23.1425 8 23.0648 8C22.4808 8 20.4508 8.11137 18.8473 9.54444C17.0705 11.1325 17.3175 13.034 17.3765 13.3636V16.4081H14.4151C14.1858 16.4081 14 16.5886 14 16.8114V20.9117C14 21.1344 14.1858 21.315 14.4151 21.315Z" fill="#555555"/>
</svg>
