<svg width="41" height="41" viewBox="0 0 41 41" fill="none" xmlns="http://www.w3.org/2000/svg">
<path d="M25.5524 8H15.4476C11.341 8 8 11.341 8 15.4476V25.5524C8 29.659 11.341 33 15.4476 33H25.5524C29.659 33 33 29.659 33 25.5524V15.4476C33 11.341 29.659 8 25.5524 8ZM30.485 25.5524C30.485 28.2766 28.2766 30.485 25.5524 30.485H15.4476C12.7234 30.485 10.515 28.2766 10.515 25.5524V15.4476C10.515 12.7234 12.7234 10.515 15.4476 10.515H25.5524C28.2766 10.515 30.485 12.7234 30.485 15.4476V25.5524Z" fill="#555555"/>
<path d="M20.5001 14.0347C16.9348 14.0347 14.0342 16.9353 14.0342 20.5005C14.0342 24.0658 16.9348 26.9664 20.5001 26.9664C24.0654 26.9664 26.966 24.0658 26.966 20.5005C26.966 16.9352 24.0654 14.0347 20.5001 14.0347ZM20.5001 24.4514C18.318 24.4514 16.5492 22.6826 16.5492 20.5006C16.5492 18.3185 18.3181 16.5497 20.5001 16.5497C22.6821 16.5497 24.451 18.3185 24.451 20.5006C24.451 22.6825 22.6821 24.4514 20.5001 24.4514Z" fill="#555555"/>
<path d="M26.977 15.6328C27.8327 15.6328 28.5264 14.9392 28.5264 14.0835C28.5264 13.2278 27.8327 12.5342 26.977 12.5342C26.1214 12.5342 25.4277 13.2278 25.4277 14.0835C25.4277 14.9392 26.1214 15.6328 26.977 15.6328Z" fill="#555555"/>
</svg>
