<svg width="41" height="41" viewBox="0 0 41 41" fill="none" xmlns="http://www.w3.org/2000/svg">
<path d="M34 11.5632C33.8127 11.9586 33.4641 12.4581 32.9543 13.0616C32.4445 13.665 31.815 14.1957 31.0658 14.6536C31.0866 14.8201 31.1022 14.9761 31.1126 15.1218C31.1934 17.3646 30.6562 19.6917 29.9108 21.6303C28.4661 25.2348 26.2523 28.1357 23.0903 30.1054C19.793 31.9968 15.9528 32.3991 12.4147 32.0564C10.0658 31.7866 7.75077 31.0196 6 29.5747C9.2021 29.9575 12.1904 28.8682 14.5529 27.1087C11.9286 27.1751 10.0218 25.2766 9.12153 23.0818C9.52737 23.1882 9.95192 23.1754 10.3389 23.1443C10.8153 23.0995 11.2675 23.0548 11.7124 22.957C10.039 22.4171 8.57479 21.4246 7.8105 19.929C7.3622 18.9815 7.15978 18.0791 7.155 17.0572C7.93912 17.47 8.88232 17.8724 9.74586 17.8376C8.44172 16.7328 7.3962 15.3208 7.20183 13.7014C7.07912 12.3512 7.41699 11.1187 7.90419 9.97116C9.85502 12.1152 12.0439 13.8796 14.5686 14.9657C16.2952 15.6728 18.0169 16.0509 19.7972 16.0582C19.5917 14.4681 19.7515 12.9303 20.4995 11.6256C21.3799 10.2228 22.6643 9.40891 24.1049 9.00343C26.1661 8.47488 28.1765 9.22149 29.4427 10.6579C30.8082 10.5104 32.1162 9.90459 33.1573 9.28437C32.7149 10.624 31.8536 11.9559 30.5977 12.5933C31.7934 12.3719 32.9345 12.0179 34 11.5632Z" fill="#555555"/>
</svg>
