<svg width="41" height="41" viewBox="0 0 41 41" fill="none" xmlns="http://www.w3.org/2000/svg">
<path fill-rule="evenodd" clip-rule="evenodd" d="M17.3821 25.0639V16.2453C20.47 17.7184 22.8616 19.1415 25.6901 20.6757C23.3572 21.9874 20.47 23.4591 17.3821 25.0639ZM34.5911 11.8594C34.0584 11.148 33.1506 10.5941 32.184 10.4108C29.3431 9.86385 11.62 9.86229 8.78069 10.4108C8.00562 10.5581 7.31545 10.9142 6.72257 11.4674C4.22444 13.8181 5.00723 26.4241 5.60938 28.4661C5.86259 29.35 6.18992 29.9874 6.60216 30.4058C7.13328 30.959 7.86047 31.3399 8.69575 31.5107C11.0349 32.0013 23.0855 32.2755 32.1346 31.5844C32.9683 31.4371 33.7063 31.0439 34.2884 30.4672C36.5982 28.1259 36.4407 14.8119 34.5911 11.8594Z" fill="#555555"/>
</svg>
