<svg width="79" height="146" viewBox="0 0 79 146" fill="none" xmlns="http://www.w3.org/2000/svg">
<path d="M41.5716 70.1927C42.0665 70.1927 42.5276 69.9368 42.8404 69.4533C44.2398 67.2916 42.5955 59.0262 42.4021 58.0876C42.3566 57.86 42.1747 57.6894 41.9472 57.6495C41.7196 57.6154 41.4921 57.7235 41.3783 57.9226C37.7433 64.271 38.796 68.7649 40.7017 69.931C40.9861 70.1074 41.2872 70.1927 41.5716 70.1927ZM41.6061 59.8566C42.192 63.2242 42.658 67.6955 41.9072 68.8502C41.7877 69.038 41.6174 69.1915 41.2761 68.9868C40.3659 68.435 38.9552 65.3119 41.6061 59.8566Z" fill="#625E8A"/>
<path d="M75.1031 136.162L74.5401 136.379C74.1988 136.509 73.9938 136.862 74.0507 137.226L74.5857 140.736C74.6824 141.384 75.2454 141.879 75.9053 141.857C76.1613 141.845 76.4685 141.794 76.8269 141.669C77.5266 141.424 77.9133 141.015 78.1238 140.634C78.3684 140.201 78.3172 139.661 78.0271 139.257L76.0192 136.447C75.8144 136.157 75.4331 136.043 75.1031 136.174V136.162Z" fill="#58595B"/>
<path d="M75.8552 141.923C75.8552 141.923 75.8892 141.923 75.9063 141.923C76.1907 141.911 76.5094 141.849 76.8507 141.729C77.4593 141.519 77.9087 141.16 78.1931 140.66C78.4434 140.21 78.4036 139.641 78.0964 139.203L76.0882 136.393C75.8607 136.075 75.4512 135.955 75.0872 136.092L74.5239 136.308C74.1541 136.45 73.9267 136.843 73.9836 137.235L74.5183 140.745C74.6207 141.428 75.1953 141.928 75.8666 141.928L75.8552 141.923ZM75.383 136.177C75.6048 136.177 75.8209 136.285 75.9574 136.473L77.9656 139.283C78.2443 139.676 78.2783 140.182 78.0564 140.58C77.7948 141.047 77.3681 141.382 76.7993 141.581C76.4693 141.695 76.1679 141.758 75.8949 141.769C75.2862 141.797 74.7458 141.337 74.6491 140.711L74.1144 137.201C74.0633 136.877 74.2509 136.553 74.558 136.433L75.1213 136.217C75.2067 136.183 75.292 136.171 75.3716 136.171L75.383 136.177Z" fill="black"/>
<path d="M17.8789 136.283C16.9744 129.81 18.4305 129.508 17.6967 128.132C16.9629 126.755 12.7532 124.832 10.0966 127.768C7.44006 130.697 8.81691 126.488 7.62232 126.761C6.42772 127.034 7.25814 129.69 6.79737 131.431C6.3366 133.172 4.78378 133.172 6.24574 135.828C7.71338 138.485 5.51196 139.952 7.71342 142.512C9.9092 145.078 13.8512 145.812 16.9629 145.442C20.0745 145.078 19.8926 144.162 19.8016 142.876C19.7105 141.596 19.881 141.153 18.7888 138.553C18.4134 137.66 17.9472 136.773 17.8789 136.283Z" fill="#91B1DA"/>
<path d="M15.4663 145.601C15.9953 145.601 16.5014 145.573 16.9679 145.516C20.0397 145.152 19.9772 144.253 19.8805 143.007L19.8694 142.871C19.8523 142.666 19.8467 142.478 19.841 142.302C19.8012 141.38 19.7726 140.715 18.8511 138.525C18.7373 138.252 18.6121 137.984 18.4983 137.723C18.2367 137.148 17.9922 136.602 17.9467 136.272C17.412 132.455 17.702 130.788 17.8784 129.787C18.0035 129.076 18.0718 128.678 17.7589 128.098C17.3494 127.33 15.9157 126.408 14.2319 126.198C13.0715 126.056 11.4105 126.198 10.0339 127.717C9.35692 128.462 8.89022 128.797 8.64561 128.724C8.41807 128.655 8.3614 128.206 8.30452 127.779C8.24763 127.33 8.19068 126.909 7.95176 126.738C7.85506 126.67 7.7354 126.653 7.60456 126.687C6.81954 126.869 6.84228 127.933 6.87072 129.167C6.88778 129.941 6.90485 130.743 6.7285 131.414C6.58629 131.96 6.33593 132.324 6.09132 132.677C5.57366 133.428 5.16418 134.025 6.18243 135.868C6.8423 137.063 6.74564 138.013 6.65462 138.934C6.54085 140.072 6.43832 141.147 7.65567 142.564C9.60115 144.834 12.8098 145.607 15.4663 145.607V145.601ZM13.5492 126.3C13.7824 126.3 14.0099 126.317 14.2147 126.34C15.8303 126.539 17.2467 127.444 17.6278 128.16C17.9179 128.701 17.8552 129.053 17.73 129.759C17.5537 130.766 17.2637 132.45 17.7984 136.289C17.8496 136.642 18.0886 137.171 18.3617 137.78C18.4811 138.036 18.6007 138.309 18.7144 138.576C19.6246 140.743 19.6529 141.398 19.6927 142.302C19.6984 142.478 19.7097 142.666 19.721 142.871L19.7327 143.007C19.8237 144.213 19.8808 145.015 16.9512 145.357C14.1468 145.687 10.0565 145.124 7.764 142.45C6.58647 141.079 6.68875 140.032 6.79683 138.929C6.88785 137.984 6.98449 137.006 6.30186 135.777C5.32912 134.014 5.71599 133.451 6.2052 132.745C6.44412 132.398 6.71171 132.012 6.85961 131.437C7.04164 130.749 7.02444 129.935 7.00738 129.15C6.98462 127.984 6.96178 126.971 7.62734 126.818C7.72404 126.795 7.79808 126.806 7.86066 126.846C8.04838 126.977 8.09986 127.387 8.15675 127.785C8.22501 128.285 8.28719 128.752 8.60006 128.854C8.91861 128.951 9.39643 128.632 10.1416 127.802C11.2281 126.607 12.5026 126.289 13.5436 126.289L13.5492 126.3Z" fill="black"/>
<path d="M39.2253 135.825C38.3208 129.352 39.7774 129.05 39.0436 127.674C38.3098 126.297 34.1001 124.374 31.4435 127.31C28.787 130.239 30.1638 126.03 28.9692 126.303C27.7746 126.576 28.6051 129.232 28.1443 130.973C27.6835 132.714 26.1307 132.714 27.5927 135.37C29.0603 138.027 26.8589 139.494 29.0603 142.054C31.2561 144.62 35.1981 145.354 38.3098 144.984C41.4214 144.62 41.2395 143.704 41.1485 142.418C41.0575 141.139 41.228 140.695 40.1358 138.095C39.7603 137.202 39.2935 136.315 39.2253 135.825Z" fill="#91B1DA"/>
<path d="M36.8135 145.15C37.3425 145.15 37.8486 145.122 38.315 145.065C41.3869 144.701 41.3243 143.802 41.2276 142.556L41.216 142.42C41.1989 142.215 41.1933 142.027 41.1876 141.851C41.1478 140.929 41.1192 140.264 40.1977 138.073C40.0839 137.8 39.9593 137.533 39.8455 137.271C39.5838 136.697 39.3388 136.151 39.2933 135.821C38.7586 132.004 39.0486 130.337 39.225 129.336C39.3501 128.625 39.4184 128.227 39.1055 127.646C38.696 126.878 37.2629 125.957 35.5791 125.746C34.4243 125.604 32.7514 125.746 31.3805 127.265C30.7035 128.01 30.2374 128.352 29.9928 128.272C29.7652 128.204 29.7086 127.754 29.6517 127.328C29.5948 126.878 29.5378 126.457 29.2989 126.287C29.2022 126.219 29.0883 126.201 28.9517 126.236C28.1667 126.418 28.1894 127.481 28.2179 128.716C28.235 129.489 28.252 130.292 28.0757 130.963C27.9335 131.509 27.6831 131.873 27.4385 132.226C26.9208 132.976 26.5113 133.574 27.5296 135.417C28.1895 136.612 28.0928 137.561 28.0018 138.483C27.888 139.621 27.7855 140.696 29.0028 142.112C30.9483 144.382 34.1569 145.156 36.8135 145.156V145.15ZM39.1511 135.844C39.2023 136.196 39.4413 136.725 39.7144 137.334C39.8339 137.59 39.9534 137.863 40.0672 138.13C40.9773 140.298 41.0056 140.952 41.0454 141.856C41.0511 142.033 41.0624 142.22 41.0738 142.431L41.0854 142.567C41.1764 143.773 41.2335 144.575 38.3039 144.917C35.4995 145.247 31.4092 144.683 29.1167 142.01C27.9392 140.639 28.0415 139.592 28.1496 138.489C28.2406 137.544 28.3372 136.566 27.6546 135.337C26.6818 133.574 27.0687 133.011 27.5579 132.305C27.7968 131.958 28.0644 131.571 28.2123 130.997C28.3944 130.309 28.3772 129.495 28.3601 128.71C28.3373 127.544 28.3145 126.531 28.9801 126.378C29.0768 126.355 29.1508 126.366 29.2134 126.406C29.4011 126.537 29.4522 126.947 29.5034 127.345C29.5716 127.846 29.6344 128.312 29.9472 128.414C30.2658 128.517 30.7436 128.192 31.4888 127.368C32.8199 125.9 34.4357 125.764 35.5563 125.9C37.1719 126.099 38.5883 127.004 38.9694 127.72C39.2596 128.261 39.1968 128.613 39.0717 129.319C38.8953 130.326 38.6053 132.01 39.14 135.849L39.1511 135.844Z" fill="black"/>
<path d="M75.384 137.833C75.7936 137.662 75.987 137.195 75.8106 136.786L42.7599 58.1931L41.2867 58.8018L74.3371 137.4C74.5078 137.804 74.9686 137.992 75.3782 137.827L75.384 137.833Z" fill="#748A78"/>
<path d="M75.0765 137.97C75.1846 137.97 75.2984 137.947 75.4065 137.901C75.6226 137.81 75.7877 137.645 75.8787 137.429C75.9697 137.213 75.964 136.974 75.8787 136.758L42.8279 58.1651C42.8109 58.1253 42.7711 58.1082 42.7313 58.1252L41.258 58.7339C41.258 58.7339 41.2237 58.7567 41.218 58.7738C41.2124 58.7909 41.2124 58.8135 41.218 58.8306L74.2688 137.429C74.411 137.759 74.735 137.958 75.0707 137.958L75.0765 137.97ZM42.7202 58.2959L75.742 136.821C75.816 136.997 75.816 137.196 75.742 137.378C75.6681 137.554 75.5316 137.696 75.3495 137.77C74.9798 137.924 74.5587 137.748 74.4052 137.384L41.383 58.8534L42.7146 58.3016L42.7202 58.2959Z" fill="black"/>
<path d="M40.9896 56.3398C40.9896 56.3398 41.0348 57.7278 40.8129 58.7973C40.591 59.8724 42.2013 63.2685 42.315 64.4744C42.4231 65.6804 42.8324 68.0354 43.9871 66.5735C45.1419 65.1172 43.2249 62.1137 43.9871 62.3298C44.5958 62.5062 46.547 67.1765 47.3036 69.0367C47.3491 69.1561 47.5255 69.1106 47.5142 68.9854C47.3378 67.4495 46.9964 64.19 47.1614 63.4448C47.3832 62.4607 48.191 62.1932 47.6108 61.3855C47.0306 60.5834 45.7336 58.6153 45.597 57.944C45.4605 57.2728 44.3913 55.35 43.4527 55.0371C42.5141 54.7242 41.3023 55.1793 40.9951 56.3341L40.9896 56.3398Z" fill="#9F6C56"/>
<path d="M47.401 69.1849C47.401 69.1849 47.4352 69.1849 47.4465 69.1792C47.5375 69.1565 47.5946 69.0768 47.5832 68.9801C47.4239 67.5693 47.0598 64.2074 47.2304 63.4679C47.3101 63.1152 47.4693 62.8536 47.6115 62.6203C47.8504 62.2278 48.0551 61.8922 47.6626 61.3518C47.0255 60.4701 45.7912 58.5701 45.6661 57.9387C45.5296 57.2447 44.4428 55.2991 43.4701 54.9748C42.9525 54.8042 42.3555 54.8554 41.8663 55.1171C41.3942 55.373 41.0586 55.7997 40.9164 56.3174C40.9164 56.3231 40.9164 56.3345 40.9164 56.3402C40.9164 56.3516 40.9559 57.7282 40.7397 58.7806C40.6032 59.4234 41.0927 60.817 41.5591 62.1595C41.8834 63.0981 42.1963 63.9856 42.2419 64.4805C42.3101 65.203 42.5319 66.8924 43.1918 67.0915C43.4478 67.1711 43.7434 67.0119 44.0506 66.6194C44.7674 65.7149 44.3466 64.2529 44.0678 63.2859C43.9598 62.9047 43.8289 62.4667 43.9029 62.3984C43.9085 62.3927 43.9312 62.387 43.9767 62.3984C44.3693 62.5122 45.6207 65.0663 47.2477 69.0597C47.2761 69.1336 47.3387 69.1735 47.4126 69.1735L47.401 69.1849ZM42.8501 55.0261C43.0492 55.0261 43.2429 55.0545 43.4307 55.1171C44.3408 55.4186 45.3986 57.3185 45.5294 57.967C45.666 58.661 46.9803 60.6407 47.5549 61.4371C47.8905 61.9035 47.7309 62.1595 47.4976 62.5463C47.3497 62.7852 47.1852 63.0583 47.0999 63.4338C46.9349 64.1676 47.2474 67.2337 47.4465 68.9972C47.4465 69.0256 47.4296 69.0313 47.4182 69.037C47.4068 69.037 47.3896 69.037 47.3782 69.0143C46.3827 66.5682 44.625 62.4439 44.0106 62.2676C43.9139 62.2391 43.8457 62.2506 43.7945 62.3018C43.6694 62.4269 43.7493 62.7227 43.9256 63.3314C44.1987 64.27 44.608 65.6864 43.9367 66.534C43.6694 66.8696 43.4308 67.0118 43.2373 66.9549C42.7709 66.8127 42.4976 65.5841 42.3952 64.4748C42.3497 63.9572 42.0368 63.064 41.7069 62.1197C41.2689 60.8568 40.7685 59.4233 40.8936 58.8203C41.1041 57.8021 41.0753 56.4881 41.0753 56.3573C41.2061 55.8794 41.519 55.4868 41.9513 55.2593C42.2301 55.1114 42.5489 55.0318 42.8618 55.0318L42.8501 55.0261Z" fill="black"/>
<path d="M35.3198 52.9714L13.14 54.2854C13.14 54.2854 4.46478 65.9526 7.20096 85.0206C8.7198 95.5842 6.29642 93.69 7.13263 96.6139C7.96885 99.5378 5.80178 102.803 4.13504 107.672C2.75842 111.677 1.52978 128.874 0.955238 134.835C0.841469 136.03 1.62078 137.122 2.78124 137.406C6.33657 138.271 13.2026 139.813 17.4803 138.846C18.5782 138.595 19.363 137.628 19.363 136.502C19.363 129.977 19.4369 105.75 20.1935 102.155C20.9558 98.5594 22.5149 74.8836 23.3511 70.987C23.3511 70.987 25.3704 97.1941 25.2282 98.3091C25.0917 99.3956 24.4147 117.525 23.9255 136.479C23.9027 137.457 24.4661 138.362 25.3648 138.749C26.8439 139.38 29.489 140.148 33.5904 140.148C37.6919 140.148 40.4962 139.596 42.106 139.096C43.2267 138.749 43.9203 137.634 43.7554 136.468C42.703 129.05 38.7554 101.591 37.7941 100.266C36.6791 98.7357 38.4881 97.3419 37.7941 95.6752C37.1001 94.0084 37.8453 71.3283 37.0091 65.4862C36.1729 59.6441 35.3137 52.977 35.3137 52.977L35.3198 52.9714Z" fill="#7185F1"/>
<path d="M33.5947 140.216C37.8441 140.216 40.5858 139.641 42.1331 139.164C43.2879 138.805 44.0048 137.667 43.8341 136.456C42.6736 128.287 38.8226 101.545 37.8556 100.22C37.281 99.4349 37.5143 98.6841 37.7589 97.8877C37.9751 97.1766 38.2023 96.4427 37.8667 95.6406C37.5425 94.8556 37.5369 89.1102 37.5312 83.0234C37.5312 76.2256 37.5196 68.5234 37.0873 65.4687C36.2625 59.6948 35.3981 53.0222 35.3924 52.9596C35.3924 52.9198 35.3522 52.897 35.3124 52.897L13.1332 54.2111C13.1332 54.2111 13.0931 54.2225 13.076 54.2395C13.0533 54.268 10.8802 57.226 9.07126 62.4765C7.40452 67.3175 5.70938 75.1619 7.12583 85.0315C8.07013 91.6245 7.47309 93.3766 7.11472 94.4233C6.88718 95.0832 6.73894 95.5156 7.0575 96.6305C7.64342 98.6898 6.71623 100.948 5.5387 103.809C5.07224 104.953 4.53774 106.244 4.05991 107.643C2.95633 110.869 1.95508 122.474 1.28952 130.159C1.13024 132.03 0.987762 133.646 0.873993 134.823C0.754532 136.041 1.56831 137.178 2.75721 137.468C5.27154 138.083 12.9109 139.943 17.4902 138.908C18.6336 138.646 19.4301 137.656 19.4301 136.49C19.4301 129.334 19.5097 105.709 20.2606 102.16C20.6303 100.402 21.1823 93.9967 21.7683 87.2103C22.3257 80.7595 22.8944 74.1095 23.3154 71.5497C23.6055 75.3724 25.2782 97.2903 25.153 98.2915C25.0165 99.361 24.3452 117.308 23.8503 136.467C23.8219 137.491 24.4075 138.407 25.3347 138.805C26.8422 139.448 29.4991 140.216 33.5892 140.216H33.5947ZM35.2502 53.0506C35.3412 53.773 36.1602 60.0303 36.9395 65.497C37.3776 68.5461 37.3777 76.2427 37.3834 83.0348C37.3834 89.4003 37.3887 94.8954 37.73 95.7089C38.0429 96.4598 37.8272 97.1709 37.6167 97.8535C37.3721 98.6442 37.1218 99.4691 37.7362 100.311C38.487 101.341 41.3028 119.669 43.6863 136.479C43.8456 137.616 43.1741 138.686 42.0875 139.021C40.546 139.499 37.8213 140.068 33.5947 140.068C29.3682 140.068 26.8936 139.306 25.3975 138.674C24.5214 138.305 23.9754 137.44 23.9981 136.479C24.493 117.32 25.17 99.3837 25.3008 98.3143C25.4373 97.205 23.5033 72.0503 23.4237 70.9809C23.4237 70.9467 23.3895 70.9125 23.3554 70.9125C23.3212 70.9125 23.2868 70.9353 23.2754 70.9695C22.8487 72.9718 22.2235 80.2077 21.6205 87.1989C21.0346 93.9796 20.4881 100.385 20.1184 102.131C19.3618 105.698 19.2879 129.334 19.2879 136.496C19.2879 137.594 18.537 138.526 17.4619 138.771C12.911 139.801 5.29392 137.941 2.79665 137.332C1.67601 137.059 0.914234 135.989 1.02232 134.84C1.13609 133.663 1.27801 132.047 1.43729 130.176C2.09716 122.502 3.09855 110.903 4.20212 107.695C4.67995 106.295 5.20877 105.004 5.68092 103.866C6.86982 100.977 7.80256 98.6954 7.20527 96.5907C6.89809 95.5212 7.03508 95.1287 7.25693 94.4745C7.62099 93.4165 8.22969 91.6359 7.27971 85.0087C5.86895 75.1733 7.55242 67.3572 9.21347 62.5276C10.92 57.5672 12.9564 54.6661 13.1782 54.3533L35.2557 53.0449L35.2502 53.0506Z" fill="black"/>
<path d="M9.61951 58.5406C9.61951 58.5406 5.91613 57.4711 5.21644 59.1208C5.21644 59.1208 5.45547 60.8217 5.33033 62.8867C5.20518 64.9459 4.28955 65.6512 4.13596 67.0563C3.95392 68.7003 4.39765 70.6913 5.01201 70.5491C5.01201 70.5491 5.42148 71.8802 6.03584 71.6071C6.03584 71.6071 6.35468 72.4605 7.043 72.8132C7.737 73.1658 7.69716 73.5982 8.44236 73.382C8.44236 73.382 9.34654 74.0476 9.71061 74.2752C10.0747 74.5027 10.3648 73.4674 9.61395 72.7165C8.86306 71.9713 8.60686 69.1953 9.10176 68.0348C9.59666 66.8744 9.64213 68.0064 9.34063 69.5593C9.1074 70.7824 10.2226 72.4377 10.7517 71.9542C11.2807 71.4707 10.7457 70.5036 11.0472 68.7913C11.3544 67.0791 11.4456 66.6012 11.1327 64.7866C10.8199 62.9662 9.12474 61.4076 9.61395 58.552L9.61951 58.5406Z" fill="#9F6C56"/>
<path d="M9.81194 74.3701C9.89158 74.3701 9.9656 74.3303 10.0225 74.2564C10.2557 73.9662 10.2273 73.2153 9.66418 72.6522C8.95311 71.9468 8.66293 69.2333 9.16921 68.0501C9.31142 67.7258 9.38575 67.6405 9.41419 67.6234C9.47677 67.7258 9.49952 68.3516 9.27198 69.5292C9.09563 70.4507 9.68113 71.6909 10.2614 72.0208C10.4661 72.1346 10.6597 72.1289 10.8019 71.998C11.1148 71.7136 11.0866 71.2869 11.0524 70.6953C11.024 70.1947 10.9841 69.5746 11.1263 68.7896L11.1374 68.7271C11.4332 67.0718 11.5242 66.5712 11.2113 64.7622C11.0975 64.1137 10.8188 63.505 10.523 62.8565C9.98829 61.6961 9.37964 60.382 9.69251 58.5503C9.6982 58.5161 9.67553 58.4764 9.6414 58.465C9.48781 58.4195 5.86441 57.3956 5.15334 59.0851C5.15334 59.0965 5.14766 59.1077 5.15334 59.1248C5.15334 59.1419 5.39237 60.8485 5.26723 62.8736C5.19896 64.0227 4.86892 64.7622 4.58449 65.4107C4.35695 65.9283 4.14056 66.4176 4.0723 67.0376C3.91871 68.4541 4.20318 70.0752 4.68671 70.5019C4.77772 70.5815 4.86874 70.6099 4.97113 70.6156C5.0394 70.8204 5.29538 71.486 5.6822 71.6567C5.79028 71.7022 5.89854 71.7136 6.00663 71.6851C6.09764 71.9013 6.42191 72.5555 7.0249 72.8627C7.25813 72.9822 7.40583 73.1072 7.53098 73.221C7.76989 73.4315 7.94657 73.5795 8.44147 73.4429C8.60075 73.5624 9.35702 74.1141 9.68695 74.3189C9.73246 74.3473 9.77797 74.3644 9.82917 74.3644L9.81194 74.3701ZM9.41975 67.47C9.30598 67.47 9.19225 67.6292 9.03866 67.9933C8.55513 69.1253 8.77112 71.9695 9.56752 72.7602C10.1022 73.2949 10.074 73.9605 9.91472 74.1653C9.85214 74.2449 9.7951 74.2222 9.75528 74.1994C9.3969 73.9776 8.49827 73.3178 8.49258 73.3064C8.47552 73.295 8.45256 73.2893 8.42981 73.295C7.98041 73.4259 7.85531 73.3121 7.62208 73.113C7.49693 72.9992 7.33741 72.8627 7.08711 72.7319C6.42724 72.3906 6.1144 71.5714 6.1144 71.5657C6.10871 71.5486 6.09202 71.5315 6.07495 71.5258C6.05789 71.5201 6.0348 71.5201 6.01774 71.5258C5.92672 71.5657 5.83599 71.5657 5.74497 71.5258C5.35815 71.3495 5.09613 70.5246 5.09613 70.5133C5.08475 70.4734 5.04526 70.4565 5.01113 70.4622C4.93718 70.4792 4.86898 70.4564 4.79503 70.3881C4.35702 70.0013 4.08397 68.3801 4.22618 67.049C4.28875 66.446 4.50485 65.9682 4.7267 65.4676C5.01682 64.8077 5.3466 64.0568 5.42055 62.8793C5.54001 60.9566 5.33511 59.3239 5.30667 59.1191C5.9381 57.6856 9.06108 58.4536 9.55029 58.5844C9.25449 60.4275 9.86316 61.7473 10.4036 62.9135C10.6994 63.5506 10.9727 64.1534 11.0808 64.7792C11.3879 66.5597 11.297 67.0547 11.0069 68.693L10.9952 68.7556C10.853 69.5577 10.8929 70.1891 10.9213 70.6953C10.9555 71.2642 10.9784 71.6454 10.7224 71.8786C10.6257 71.9639 10.5059 71.9639 10.358 71.8786C9.86881 71.6055 9.26631 70.4507 9.43697 69.5462C9.49954 69.2163 9.80066 67.561 9.47641 67.4643C9.46503 67.4643 9.45403 67.4586 9.43697 67.4586L9.41975 67.47Z" fill="black"/>
<path d="M29.028 5.40251L23.3511 3.36597L17.8726 6.62549L17.3837 11.8534L20.2391 18.0196L25.2338 20.3976L29.3124 18.0196L31.0701 14.1516L29.028 5.40251Z" fill="#9F6C56"/>
<path d="M25.2346 20.4718C25.2346 20.4718 25.2632 20.4717 25.2746 20.4604L29.3477 18.0826C29.3477 18.0826 29.3703 18.0655 29.376 18.0484L31.1337 14.1802C31.1337 14.1802 31.1394 14.1462 31.1337 14.1348L29.0916 5.38574C29.0916 5.38574 29.0688 5.34032 29.0461 5.33464L23.3631 3.2981C23.3631 3.2981 23.3174 3.2981 23.3003 3.30379L17.8284 6.569C17.8284 6.569 17.794 6.60305 17.794 6.62581L17.299 11.8537C17.299 11.8537 17.2989 11.882 17.3046 11.8934L20.1605 18.0598C20.1605 18.0598 20.1773 18.0883 20.1944 18.094L25.1946 20.4718C25.1946 20.4718 25.2177 20.4774 25.2291 20.4774L25.2346 20.4718ZM29.2505 17.9689L25.2291 20.3125L20.291 17.9632L17.4584 11.8366L17.9479 6.66566L23.3575 3.44031L28.9661 5.45407L30.9915 14.1405L29.2505 17.9689Z" fill="#625E8A"/>
<path d="M23.6616 10.0025C23.7185 10.0025 23.7754 9.98543 23.8266 9.94561C23.8493 9.92854 24.3045 9.57011 24.8165 9.89436C24.936 9.96831 25.0952 9.93424 25.1748 9.81478C25.2488 9.69532 25.2143 9.53611 25.0948 9.45647C24.4236 9.02983 23.7583 9.33127 23.4966 9.54744C23.3885 9.63845 23.3711 9.80336 23.4621 9.91144C23.5133 9.97402 23.5876 10.0025 23.6616 10.0025Z" fill="#625E8A"/>
<path d="M23.6618 10.079C23.7414 10.079 23.8154 10.0506 23.8723 10.0051C23.8894 9.98804 24.3104 9.66374 24.7711 9.95955C24.9247 10.0563 25.1293 10.0108 25.2317 9.85719C25.3284 9.7036 25.283 9.49878 25.1295 9.39639C24.4241 8.94699 23.7187 9.26551 23.4457 9.49305C23.3774 9.54994 23.3376 9.62966 23.3262 9.72067C23.3205 9.81169 23.3432 9.89698 23.4001 9.96524C23.4627 10.0392 23.5595 10.0847 23.6562 10.0847L23.6618 10.079ZM24.3673 9.68651C24.0373 9.68651 23.7927 9.87984 23.7756 9.89122C23.696 9.95379 23.5766 9.94253 23.514 9.86858C23.4514 9.78894 23.4571 9.67506 23.5368 9.60679C23.7814 9.40201 24.4125 9.11763 25.0439 9.52152C25.0837 9.54996 25.112 9.58975 25.1233 9.63526C25.1347 9.68077 25.1239 9.73196 25.1011 9.77178C25.0442 9.85711 24.9304 9.88561 24.845 9.82872C24.6744 9.72064 24.5091 9.68082 24.3612 9.68082L24.3673 9.68651Z" fill="black"/>
<path d="M27.9018 4.14681C27.9018 4.14681 27.9298 4.1468 27.9412 4.13543C27.9754 4.11267 27.9868 4.0672 27.964 4.03307L27.0313 2.59955C27.0085 2.56542 26.9632 2.55402 26.9291 2.57677C26.8949 2.59953 26.8835 2.645 26.9063 2.67913L27.839 4.11265C27.839 4.11265 27.879 4.14681 27.9018 4.14681Z" fill="#625E8A"/>
<path d="M17.5297 20.8841C17.5297 20.8841 9.42383 19.3425 6.44872 23.8705C3.95714 27.6591 0.526688 32.8186 1.34015 40.3787C1.51081 41.9487 0.253685 45.5894 0.247993 47.6544C0.236618 51.4145 2.09088 51.3064 2.31842 54.9528C2.43219 56.7447 2.81892 57.3305 3.64945 57.6889C4.12729 57.8937 4.48044 58.3203 4.55439 58.838L4.69661 59.879C4.75349 60.2829 5.16876 60.5331 5.54989 60.3795C6.34628 60.061 7.97843 59.4297 9.19577 59.7937C9.59397 59.9132 9.99239 59.5889 9.99239 59.1736L9.83296 58.3488C9.75901 57.9506 9.90713 57.5524 10.2029 57.2793C10.6011 56.9096 10.9821 56.0962 10.2824 54.3555C9.67939 52.8594 9.67979 51.13 10.4079 48.189C10.4079 48.189 9.53744 56.8982 20.084 54.9072C21.9157 54.5602 34.715 55.1462 36.0802 53.5364C36.0802 53.5364 36.0574 56.1246 38.8789 57.2225C39.4193 57.433 39.9653 59.077 40.4033 59.2249C40.8129 59.3671 41.0404 58.8096 41.2566 58.5024C41.9449 57.5069 43.4012 56.1757 45.688 57.8368C45.688 57.8368 47.025 57.7401 45.1819 52.3588C44.5903 50.6295 47.5084 48.3369 43.5492 41.4765C41.1031 37.2443 39.6923 23.4895 34.3564 22.7727C30.3119 22.2266 17.5353 20.8898 17.5353 20.8898L17.5297 20.8841Z" fill="#AB6D71"/>
<path d="M5.3237 60.4947C5.40902 60.4947 5.50015 60.4776 5.57979 60.4434C6.29086 60.159 7.95765 59.4991 9.18068 59.8632C9.38547 59.9258 9.60152 59.886 9.77787 59.7551C9.9599 59.6186 10.0678 59.4024 10.0678 59.1749L9.90841 58.333C9.84015 57.9689 9.97118 57.5935 10.2556 57.3318C10.6879 56.9279 11.0633 56.0803 10.3523 54.3226C9.7948 52.9346 9.77784 51.3246 10.3239 48.8729C10.3581 49.9765 10.6484 52.1553 12.281 53.657C13.9592 55.1929 16.5868 55.6366 20.0967 54.9767C20.6598 54.8686 22.2753 54.8515 24.3175 54.8288C28.7375 54.7833 34.7335 54.715 36.0135 53.6911C36.0647 54.2884 36.4284 56.342 38.8461 57.2806C39.1077 57.383 39.3924 57.8893 39.6427 58.333C39.9044 58.7995 40.1321 59.2033 40.371 59.2829C40.7578 59.4195 40.9964 59.027 41.1898 58.7141C41.2296 58.6458 41.2694 58.5832 41.3092 58.532C41.6904 57.9859 42.3274 57.2976 43.2319 57.144C43.9771 57.0189 44.7796 57.2635 45.6329 57.8836C45.6442 57.895 45.667 57.895 45.6784 57.9007C45.6955 57.9007 45.8545 57.8837 45.9967 57.6675C46.3153 57.184 46.4462 55.8641 45.2346 52.3259C45.0639 51.831 45.2001 51.2734 45.3651 50.5681C45.7747 48.8558 46.3894 46.2733 43.5963 41.4267C42.7942 40.0444 42.0944 37.5812 41.3492 34.9758C39.7678 29.4466 37.9761 23.1778 34.3525 22.6885C30.3762 22.1538 17.7816 20.8342 17.5313 20.8057C17.3322 20.7716 9.32252 19.3438 6.37585 23.8207L6.32475 23.9003C3.84454 27.6775 0.448399 32.8426 1.25617 40.3743C1.3415 41.1763 1.05172 42.5245 0.744537 43.9467C0.46011 45.2664 0.164017 46.6373 0.164017 47.6442C0.158329 49.6181 0.653385 50.5226 1.17673 51.4783C1.64319 52.3316 2.12691 53.2133 2.235 54.9483C2.34308 56.6435 2.69004 57.3489 3.61158 57.7471C4.08373 57.9519 4.40784 58.3614 4.47042 58.8392L4.61263 59.8803C4.64107 60.0964 4.76642 60.2841 4.95983 60.3979C5.06791 60.4604 5.18744 60.4947 5.31259 60.4947H5.3237ZM8.37851 59.6072C7.28062 59.6072 6.09711 60.0794 5.52257 60.3069C5.36329 60.3695 5.19273 60.3581 5.04483 60.2727C4.89692 60.1874 4.79482 60.0395 4.77206 59.8632L4.62985 58.8221C4.5559 58.2931 4.20325 57.8438 3.67991 57.6162C2.91196 57.2863 2.50209 56.7801 2.38832 54.9427C2.28024 53.1735 1.78554 52.2804 1.31339 51.4101C0.795731 50.4715 0.312206 49.584 0.317894 47.6442C0.317894 46.6544 0.613434 45.2949 0.897858 43.9808C1.21073 42.5416 1.50107 41.182 1.41005 40.3572C0.607967 32.8824 3.98702 27.7343 6.45585 23.9798L6.50696 23.9003C9.41949 19.4689 17.4287 20.9309 17.5141 20.948C17.5141 20.948 17.5145 20.948 17.5202 20.948C17.6453 20.9593 30.3474 22.2903 34.3408 22.8308C37.8677 23.3029 39.6481 29.5262 41.2181 35.01C41.9633 37.6267 42.669 40.0955 43.4824 41.4949C46.2528 46.2846 45.6383 48.8388 45.2401 50.5226C45.0638 51.2508 44.9275 51.8253 45.1096 52.36C46.3554 55.995 46.139 57.1782 45.9001 57.5593C45.8261 57.6788 45.7466 57.7186 45.7068 57.73C44.8307 57.1042 43.9944 56.8539 43.2208 56.9848C42.2651 57.1497 41.594 57.8665 41.2015 58.4354C41.1617 58.4922 41.1219 58.5606 41.082 58.6288C40.8659 58.9815 40.6953 59.2204 40.4393 59.135C40.2573 59.0725 40.0237 58.6572 39.7904 58.2533C39.5117 57.7641 39.2273 57.2521 38.9144 57.1327C36.1782 56.0689 36.1668 53.5433 36.1668 53.5205C36.1668 53.4921 36.1497 53.4636 36.1212 53.4522C36.0928 53.4408 36.0589 53.4522 36.0418 53.475C35.1259 54.5558 28.6296 54.6241 24.3347 54.6753C22.2869 54.6981 20.6658 54.7151 20.0856 54.8232C16.6269 55.4774 14.0384 55.0451 12.3944 53.5433C10.1872 51.5239 10.4945 48.2244 10.4945 48.1903C10.4945 48.1505 10.4721 48.1164 10.4323 48.1107C10.3924 48.1107 10.3581 48.1277 10.3467 48.1675C9.64134 51.0345 9.60154 52.8379 10.2273 54.3795C10.9042 56.0576 10.5684 56.854 10.1645 57.2238C9.84026 57.5253 9.69267 57.9519 9.77231 58.3615L9.93119 59.1863C9.93119 59.3512 9.84064 59.5276 9.69843 59.6357C9.5619 59.7381 9.39107 59.7722 9.23179 59.721C8.96443 59.6413 8.67973 59.6072 8.38962 59.6072H8.37851Z" fill="black"/>
<path d="M26.3662 13.9726C26.3662 13.9726 24.2045 16.1911 22.5037 13.3752C22.5037 13.3752 23.3339 13.8701 24.4602 14.0237C25.5865 14.1773 26.3662 13.9726 26.3662 13.9726Z" fill="#DD4232"/>
<path d="M24.5395 14.8777C25.5748 14.8777 26.3768 14.0643 26.4166 14.0245C26.4394 14.0017 26.4448 13.9619 26.4277 13.9335C26.4107 13.905 26.3767 13.8879 26.3483 13.8993C26.3426 13.8993 25.5691 14.0985 24.4712 13.9506C23.3733 13.8027 22.5543 13.3191 22.543 13.3134C22.5145 13.2963 22.4746 13.302 22.4519 13.3248C22.4291 13.3475 22.4231 13.3874 22.4402 13.4159C22.9749 14.2976 23.6067 14.781 24.3234 14.8663C24.3974 14.8777 24.4711 14.8777 24.5451 14.8777H24.5395ZM26.1094 14.0985C25.7852 14.3601 25.1025 14.8039 24.3345 14.7186C23.7315 14.6503 23.1857 14.2635 22.7135 13.5752C23.0434 13.7345 23.6748 13.9961 24.4484 14.0985C25.1936 14.2009 25.7852 14.144 26.1094 14.0985Z" fill="black"/>
<path d="M30.6663 16.7378C30.3306 17.318 29.034 20.2818 23.6356 20.0599L30.6663 16.7378Z" fill="#9F6C56"/>
<path d="M24.1969 20.1508C27.3086 20.1508 29.4817 19.0586 30.6649 16.8913C30.6876 16.8458 30.7106 16.806 30.7277 16.7775C30.7504 16.7434 30.7335 16.6979 30.6993 16.6752C30.6652 16.6524 30.6193 16.6638 30.5965 16.7036C30.5795 16.7378 30.5571 16.7776 30.5343 16.8231C29.3113 19.0587 26.9903 20.128 23.6398 19.9915C23.6056 19.9915 23.5654 20.02 23.5598 20.0598C23.5598 20.0996 23.5883 20.1337 23.6281 20.1394C23.8215 20.1451 24.0094 20.1508 24.1914 20.1508H24.1969Z" fill="#625E8A"/>
<path d="M17.4978 9.01722C19.3124 9.70553 20.12 4.72231 23.954 4.68818C27.7881 4.64836 28.8802 8.18658 30.1942 8.75543C31.5253 9.32997 27.9021 3.05565 27.9021 3.05565L21.1098 1.84961L18.1405 5.43342C18.1405 5.43342 16.6502 8.69297 17.4978 9.01722Z" fill="#CEA387"/>
<path d="M17.8454 9.15536C18.5109 9.15536 19.0515 8.44428 19.7114 7.57962C20.6614 6.32815 21.8446 4.7752 23.955 4.75813H24.0178C26.5549 4.75813 27.8803 6.37363 28.853 7.55685C29.3252 8.13139 29.7345 8.62628 30.1668 8.81969C30.3147 8.88226 30.4286 8.87655 30.4968 8.79691C30.9633 8.27356 28.4715 3.88775 27.9709 3.01741C27.9595 3.00034 27.9425 2.98324 27.9198 2.98324L21.128 1.77734C21.128 1.77734 21.0767 1.77723 21.0596 1.79998L18.0904 5.38379C18.0904 5.38379 18.0844 5.39518 18.0787 5.40087C18.0275 5.50895 16.8954 8.00624 17.231 8.83107C17.2822 8.95622 17.3679 9.04152 17.476 9.08134C17.6068 9.13253 17.732 9.15536 17.8515 9.15536H17.8454ZM24.0117 4.61022C24.0117 4.61022 23.9722 4.61022 23.9494 4.61022C21.7651 4.63298 20.559 6.21998 19.5919 7.49421C18.8524 8.46695 18.2724 9.23493 17.5215 8.94482C17.4476 8.91637 17.3962 8.85946 17.3621 8.77413C17.0549 8.03462 18.1241 5.63417 18.2037 5.4692L21.1391 1.92511L27.8575 3.11976C29.0066 5.11075 30.69 8.35894 30.3885 8.70025C30.3601 8.73438 30.2753 8.70023 30.2241 8.68317C29.8202 8.50682 29.4216 8.02336 28.9608 7.46588C27.971 6.25991 26.617 4.61022 24.0117 4.61022Z" fill="black"/>
<path d="M37.6792 25.6274C36.4107 26.492 35.3924 24.4101 31.0691 25.5193C28.5377 26.1678 28.5435 27.9597 25.2328 28.045C21.922 28.1303 17.4454 27.5501 15.8583 24.7399C14.2656 21.9298 11.9728 24.2792 10.7953 22.8741C10.2037 22.1687 9.77123 20.337 12.7691 19.7511C15.7669 19.1709 13.3893 19.2221 14.9651 18.0559C16.5408 16.8898 16.7339 17.7658 15.5223 14.1763C14.3106 10.5868 15.7954 4.90969 16.7738 5.39322C16.7738 5.39322 18.3325 0.739946 22.8435 0.933357C27.3545 1.12677 28.612 3.55014 28.612 3.55014C28.612 3.55014 30.2162 4.46598 30.5063 7.08839C30.7964 9.70512 31.8146 9.84734 31.8146 11.935C31.8146 14.0227 32.0417 15.3027 32.1384 18.2095C32.2351 21.1164 33.7258 18.9206 35.2333 20.6727C35.7794 21.3041 36.1661 22.7547 36.4676 23.0903C37.2071 23.9152 39.0673 24.6774 37.6737 25.6274H37.6792ZM29.778 9.63115C29.687 8.57308 30.1308 6.73 27.4287 4.08483C24.7267 1.43966 21.7627 2.84482 20.352 4.60827C18.9412 6.37172 19.5161 6.30909 18.8448 9.10216C18.2646 11.5255 19.4193 14.3697 19.8686 15.2116C20.318 16.0535 22.4625 18.7954 26.1544 17.2993C29.8462 15.8032 29.8746 10.6892 29.7836 9.63115H29.778Z" fill="#D39FAB"/>
<path d="M24.6527 28.1265C24.8632 28.1265 25.0619 28.1265 25.2382 28.1208C27.178 28.0696 27.9804 27.4497 28.828 26.7898C29.4196 26.329 30.0338 25.8568 31.0862 25.5895C33.5834 24.9467 34.9487 25.3789 35.9442 25.6861C36.6553 25.908 37.1672 26.0673 37.7246 25.6861C38.0773 25.4472 38.2539 25.2027 38.2596 24.9353C38.2767 24.4689 37.7416 24.0479 37.2297 23.6497C36.9737 23.4506 36.7123 23.2401 36.5303 23.041C36.4108 22.9045 36.2568 22.5461 36.0975 22.1593C35.87 21.6132 35.6145 20.9931 35.2959 20.6234C34.619 19.8384 33.942 19.8213 33.4016 19.81C32.7246 19.7929 32.2752 19.7815 32.2183 18.2057C32.1728 16.8462 32.0988 15.8393 32.0306 14.9462C31.9566 13.9223 31.8883 13.0405 31.8883 11.9313C31.8883 10.822 31.6265 10.2987 31.325 9.65586C31.0406 9.04719 30.7223 8.35886 30.5801 7.07894C30.307 4.60443 28.8506 3.6146 28.6685 3.50083C28.5377 3.27329 27.1381 1.04344 22.8489 0.861407C22.7579 0.861407 22.6672 0.855713 22.5761 0.855713C18.5714 0.855713 16.95 4.72965 16.7282 5.30419C16.6315 5.28143 16.4951 5.29849 16.3415 5.43501C15.4143 6.24847 14.3787 11.0211 15.4538 14.2067L15.6249 14.713C16.1558 16.2831 16.1687 17.2179 15.6643 17.5175C15.4652 17.6369 15.2209 17.7847 14.9194 18.0009C14.1969 18.5356 14.265 18.8485 14.3105 19.0533C14.3276 19.133 14.3333 19.1785 14.3105 19.2183C14.2252 19.3492 13.7757 19.4857 12.7517 19.6791C11.1191 19.9977 10.5617 20.6746 10.3797 21.1865C10.1521 21.8237 10.3968 22.512 10.7324 22.9159C11.2501 23.5302 11.9613 23.462 12.7179 23.3881C13.7816 23.2857 14.885 23.1776 15.7838 24.7703C17.4505 27.7113 22.1608 28.1208 24.641 28.1208L24.6527 28.1265ZM33.481 25.1116C32.8041 25.1116 32.0078 25.2026 31.0578 25.4416C29.977 25.7203 29.351 26.2038 28.748 26.6702C27.9175 27.313 27.1329 27.916 25.2443 27.9672C23.0315 28.0241 17.7012 27.825 15.9321 24.6963C14.9821 23.0125 13.7816 23.1321 12.7179 23.2345C11.9727 23.3084 11.3244 23.371 10.858 22.8192C10.5451 22.4495 10.3232 21.8123 10.528 21.2321C10.7726 20.5495 11.5516 20.0603 12.7917 19.8213C14.0489 19.5767 14.3392 19.4458 14.4416 19.2922C14.5042 19.2012 14.4815 19.1045 14.4644 19.0192C14.4246 18.8371 14.3732 18.5926 15.0161 18.1148C15.3062 17.8986 15.5508 17.7564 15.7499 17.6369C16.6089 17.1249 16.5975 17.0794 15.7727 14.6561L15.6021 14.1499C14.5441 11.0098 15.5448 6.32807 16.4493 5.53737C16.6143 5.38947 16.7168 5.44072 16.7509 5.45779C16.768 5.46917 16.791 5.46917 16.8137 5.45779C16.8308 5.4521 16.848 5.43499 16.8537 5.41224C16.8708 5.36673 18.3891 0.997926 22.5872 0.997926C22.6726 0.997926 22.764 0.997926 22.855 0.997926C27.2636 1.18565 28.5488 3.5521 28.5602 3.57485C28.5659 3.58623 28.5777 3.59763 28.5891 3.60332C28.6062 3.6147 30.1647 4.53617 30.4434 7.08463C30.5856 8.393 30.9156 9.09275 31.2 9.70711C31.4959 10.3385 31.7461 10.8846 31.7461 11.9199C31.7461 13.0348 31.8087 13.9223 31.8883 14.9462C31.9566 15.8336 32.0306 16.8405 32.0761 18.2001C32.133 19.918 32.6905 19.9294 33.4016 19.9465C33.942 19.9579 34.5562 19.9748 35.1876 20.7087C35.4891 21.0613 35.7394 21.6644 35.967 22.2048C36.1376 22.6201 36.2853 22.9727 36.4275 23.1263C36.6209 23.3424 36.8886 23.553 37.1502 23.7578C37.6338 24.1389 38.1343 24.5314 38.123 24.9239C38.1173 25.1344 37.9636 25.3448 37.6508 25.5553C37.1502 25.8966 36.6949 25.7544 36.0009 25.5382C35.4036 25.3505 34.619 25.1059 33.4927 25.1059L33.481 25.1116ZM24.0438 17.8133C24.6809 17.8133 25.3976 17.6824 26.1826 17.3639C29.6298 15.9645 30.0053 11.2998 29.8574 9.6217C29.846 9.46811 29.8401 9.29181 29.8401 9.10409C29.8288 7.98914 29.8119 6.30538 27.4853 4.02996C26.4045 2.97189 25.2102 2.47693 23.9416 2.55089C22.6048 2.63053 21.245 3.38143 20.3007 4.55896C19.3394 5.75924 19.2879 6.12328 19.1514 7.09602C19.0831 7.57386 18.9981 8.17115 18.7819 9.08132C18.2074 11.4762 19.3278 14.3433 19.8113 15.242C19.8284 15.2762 21.2279 17.8133 24.0494 17.8133H24.0438ZM24.1916 2.6931C25.3293 2.6931 26.3989 3.17665 27.3831 4.13801C29.6642 6.36792 29.681 8.01759 29.6924 9.10979C29.6924 9.29751 29.6925 9.4795 29.7096 9.63878C29.8518 11.2885 29.4935 15.8678 26.1259 17.233C21.9904 18.9111 19.9535 15.2192 19.9307 15.1794C19.4586 14.292 18.3493 11.4762 18.9125 9.12117C19.1343 8.20532 19.2197 7.57957 19.288 7.12449C19.4245 6.18019 19.4704 5.82746 20.409 4.65562C21.3249 3.51222 22.6446 2.78413 23.9416 2.70449C24.0212 2.70449 24.1064 2.69879 24.186 2.69879L24.1916 2.6931Z" fill="black"/>
<path d="M17.7526 9.84259C17.7811 9.84259 17.8097 9.84259 17.8382 9.84259C17.878 9.84259 17.9065 9.8027 17.9065 9.76288C17.9065 9.72306 17.8726 9.689 17.8271 9.69469C17.6393 9.71744 17.4797 9.65483 17.3432 9.51831C16.5184 8.69347 16.8486 5.43964 16.8543 5.40551C16.8543 5.36569 16.8315 5.32593 16.786 5.32593C16.7462 5.32593 16.706 5.34861 16.706 5.39412C16.6889 5.53064 16.3649 8.75601 17.241 9.62636C17.3889 9.77426 17.5653 9.84829 17.7587 9.84829L17.7526 9.84259Z" fill="black"/>
<path d="M29.7781 9.96266C29.8065 9.96266 29.8407 9.94555 29.8464 9.91142C30.3072 8.4779 29.9656 6.81688 29.5959 5.67348C29.1977 4.43907 28.6855 3.52888 28.6798 3.51751C28.6571 3.48337 28.6174 3.47197 28.5776 3.48904C28.5435 3.5061 28.5322 3.55171 28.5493 3.59153C28.572 3.62566 30.5632 7.19239 29.7042 9.866C29.6928 9.90582 29.7156 9.94559 29.7497 9.95697C29.7554 9.95697 29.7668 9.95697 29.7725 9.95697L29.7781 9.96266Z" fill="black"/>
<path d="M10.9323 32.7637C10.9323 32.7637 10.4542 36.9503 10.8923 38.6455C11.865 42.3886 8.95824 41.9904 10.4145 48.1852L10.9323 32.7637Z" fill="#90B1A7"/>
<path d="M10.4131 48.2597C10.4131 48.2597 10.4246 48.2597 10.4303 48.2597C10.4701 48.2483 10.4927 48.2084 10.487 48.1686C9.6792 44.7327 10.2137 43.3562 10.6859 42.1388C11.067 41.1547 11.3972 40.307 10.9592 38.6289C10.5268 36.9679 10.9935 32.821 10.9992 32.7755C10.9992 32.7357 10.9762 32.6958 10.9364 32.6958C10.8966 32.6958 10.857 32.7186 10.857 32.7584C10.8399 32.9291 10.3789 36.9793 10.817 38.6631C11.2436 40.2957 10.9195 41.1205 10.5498 42.0819C10.0662 43.322 9.52561 44.7214 10.3448 48.2028C10.3505 48.2369 10.3845 48.2597 10.4186 48.2597H10.4131Z" fill="black"/>
<path d="M27.4809 12.1468C26.0545 12.1468 24.8982 11.184 24.8982 9.99647C24.8982 8.80892 26.0545 7.84619 27.4809 7.84619C28.9072 7.84619 30.0635 8.80892 30.0635 9.99647C30.0635 11.184 28.9072 12.1468 27.4809 12.1468Z" fill="#625E8A"/>
<path d="M27.4812 12.2207C28.9488 12.2207 30.1377 11.2252 30.1377 9.99652C30.1377 8.7678 28.9431 7.77222 27.4812 7.77222C26.0192 7.77222 24.8247 8.7678 24.8247 9.99652C24.8247 11.2252 26.0192 12.2207 27.4812 12.2207ZM27.4812 7.92012C28.8635 7.92012 29.9955 8.85313 29.9955 9.99652C29.9955 11.1399 28.8692 12.0728 27.4812 12.0728C26.0932 12.0728 24.9725 11.1399 24.9725 9.99652C24.9725 8.85313 26.0989 7.92012 27.4812 7.92012Z" fill="black"/>
<path d="M21.1886 12.1468C19.7623 12.1468 18.606 11.184 18.606 9.99647C18.606 8.80892 19.7623 7.84619 21.1886 7.84619C22.615 7.84619 23.7712 8.80892 23.7712 9.99647C23.7712 11.184 22.615 12.1468 21.1886 12.1468Z" fill="#625E8A"/>
<path d="M21.189 12.2207C22.6566 12.2207 23.8455 11.2252 23.8455 9.99652C23.8455 8.7678 22.6509 7.77222 21.189 7.77222C19.727 7.77222 18.5325 8.7678 18.5325 9.99652C18.5325 11.2252 19.727 12.2207 21.189 12.2207ZM21.189 7.92012C22.5713 7.92012 23.6977 8.85313 23.6977 9.99652C23.6977 11.1399 22.5713 12.0728 21.189 12.0728C19.8066 12.0728 18.6747 11.1399 18.6747 9.99652C18.6747 8.85313 19.801 7.92012 21.189 7.92012Z" fill="black"/>
<path d="M24.4079 9.76985L26.3534 10.4355C26.7004 10.555 26.8032 11.1692 26.5017 11.3228L25.0962 12.0396L24.4024 9.76416L24.4079 9.76985Z" fill="#9F6C56"/>
<path d="M25.0963 12.116C25.0963 12.116 25.1194 12.116 25.1307 12.1103L26.5357 11.3878C26.6836 11.3082 26.7688 11.1375 26.7517 10.9213C26.7347 10.6995 26.6151 10.4435 26.3762 10.3639L24.4308 9.69835C24.391 9.68129 24.3511 9.70409 24.3397 9.74391C24.3283 9.78373 24.3454 9.8235 24.3852 9.83487L26.3307 10.5004C26.5013 10.5573 26.5925 10.7621 26.6095 10.927C26.6209 11.0806 26.5696 11.2001 26.4729 11.2513L25.068 11.9738C25.0338 11.9908 25.017 12.0363 25.0341 12.0704C25.0455 12.0932 25.074 12.1103 25.1024 12.1103L25.0963 12.116Z" fill="black"/>
<path d="M8.43994 73.3758C8.43994 73.3758 7.29081 71.8968 7.39889 70.486C7.50698 69.0753 7.39278 68.1367 7.39278 68.1367L8.43994 73.3758Z" fill="#9F6C56"/>
<path d="M8.44209 73.4475C8.44209 73.4475 8.47571 73.4474 8.48708 73.4304C8.52121 73.4076 8.52719 73.3563 8.49875 73.3279C8.48737 73.3108 7.37253 71.8546 7.47492 70.4893C7.58301 69.0899 7.46937 68.1343 7.46937 68.1229C7.46937 68.0831 7.42919 68.0546 7.38937 68.0603C7.34955 68.0603 7.32147 68.1002 7.32715 68.14C7.32715 68.1514 7.44079 69.0899 7.33271 70.4779C7.22463 71.9001 8.33936 73.3564 8.38487 73.419C8.40193 73.4361 8.41933 73.4475 8.44209 73.4475Z" fill="black"/>
<path d="M6.03357 71.6031C5.90842 70.6304 6.07908 69.8226 6.03357 68.884C5.98806 67.9454 5.98802 67.6609 5.98802 67.6609L6.03357 71.6031Z" fill="#9F6C56"/>
<path d="M6.03498 71.6756C6.03498 71.6756 6.04096 71.6756 6.04665 71.6756C6.08647 71.6756 6.11456 71.6358 6.10887 71.5903C6.03492 71.0385 6.0632 70.5265 6.09165 70.0373C6.10871 69.6676 6.13162 69.2807 6.10887 68.8768C6.06336 67.9553 6.06332 67.6594 6.06332 67.6537C6.06332 67.6139 6.02925 67.5798 5.98943 67.5798C5.94961 67.5798 5.91555 67.6139 5.91555 67.6537C5.91555 67.6651 5.91559 67.9553 5.9611 68.8825C5.98385 69.2807 5.96094 69.6562 5.94388 70.0259C5.91544 70.5265 5.89284 71.0441 5.9611 71.6072C5.9611 71.647 5.99516 71.6699 6.03498 71.6699V71.6756Z" fill="black"/>
<path d="M5.01099 70.546C5.01099 70.546 4.89117 70.0227 4.93099 68.8395C4.94237 68.464 4.92544 67.952 4.92544 67.5254L5.01099 70.546Z" fill="#9F6C56"/>
<path d="M5.01313 70.6229C5.01313 70.6229 5.02467 70.6229 5.03036 70.6229C5.07018 70.6115 5.09271 70.5775 5.08702 70.5377C5.08702 70.5377 4.97345 70.003 5.00758 68.8539C5.01327 68.6206 5.00758 68.3306 5.00758 68.0461C5.00758 67.8698 5.00758 67.6991 5.00758 67.5341C5.00758 67.4943 4.97296 67.4602 4.93314 67.4602C4.89332 67.4602 4.85926 67.4943 4.85926 67.5341C4.85926 67.6991 4.85926 67.8698 4.85926 68.0461C4.85926 68.3249 4.87063 68.6149 4.85926 68.8425C4.82512 70.0143 4.93925 70.5434 4.93925 70.5661C4.94494 70.6003 4.979 70.6229 5.01313 70.6229Z" fill="black"/>
<path d="M26.7191 38.1206C29.3017 35.8224 24.9724 33.7234 23.7721 33.7006C20.2736 33.6437 23.7038 37.3129 23.7038 37.3129C23.7038 37.3129 20.1485 33.8201 18.533 36.6018C16.9174 39.3778 21.2239 40.2481 21.2239 40.2481C21.2239 40.2481 17.6685 41.7442 18.8574 43.7921C20.0406 45.8399 23.5961 45.5157 23.3799 41.8523C23.3799 41.8523 23.1639 46.2665 26.503 45.7318C29.8422 45.1914 26.9352 41.5337 26.9352 41.5337C26.9352 41.5337 30.2742 42.6316 30.3822 40.2538C30.4903 37.876 26.7191 38.1263 26.7191 38.1263V38.1206Z" fill="#E4E4F1"/>
<path d="M25.9635 45.8482C26.1399 45.8482 26.3218 45.8311 26.5152 45.8026C27.3457 45.6661 27.8747 45.3305 28.0795 44.7957C28.4948 43.7206 27.4995 42.1847 27.124 41.667C27.6474 41.8093 29.0069 42.088 29.8261 41.5248C30.2186 41.2575 30.4288 40.8252 30.4516 40.2563C30.4744 39.7102 30.3039 39.255 29.9455 38.9024C29.1036 38.0775 27.4823 38.032 26.9135 38.0434C27.5506 37.412 27.7494 36.7521 27.4935 36.0752C26.9587 34.636 24.5867 33.6461 23.7676 33.6348C23.7391 33.6348 23.711 33.6348 23.6826 33.6348C22.8805 33.6348 22.3797 33.8396 22.1977 34.2492C21.8962 34.9261 22.5559 35.9956 23.0793 36.6896C22.3341 36.1093 21.0884 35.3301 19.9678 35.478C19.3421 35.5633 18.8354 35.9273 18.4657 36.5701C18.0618 37.2641 17.988 37.9069 18.244 38.4757C18.7503 39.6077 20.3999 40.1255 20.9972 40.2791C20.4568 40.5351 19.0006 41.3258 18.6251 42.4407C18.4658 42.9072 18.5227 43.3793 18.7901 43.8401C19.3817 44.8584 20.6048 45.3646 21.7027 45.0346C22.5787 44.7729 23.1649 44.0562 23.3754 43.0436C23.4891 43.7888 23.7617 44.716 24.4159 45.302C24.8311 45.6717 25.3493 45.8596 25.958 45.8596L25.9635 45.8482ZM26.7257 41.3826L26.879 41.5761C26.879 41.5761 28.4154 43.5328 27.949 44.7388C27.7613 45.2223 27.2716 45.5296 26.498 45.6547C25.6845 45.7856 25.0248 45.6262 24.5242 45.1825C23.688 44.4316 23.5057 43.0493 23.4659 42.3269C23.4659 42.1733 23.4661 42.0141 23.4604 41.8491H23.3126C23.3126 41.8491 23.3012 42.0709 23.3126 42.3553C23.2557 43.6523 22.6639 44.5795 21.6627 44.881C20.6331 45.1882 19.4787 44.7161 18.9212 43.7547C18.6766 43.3337 18.6251 42.9014 18.7673 42.4805C19.1997 41.2005 21.2305 40.3302 21.2533 40.3188L21.4749 40.2278L21.2422 40.1823C21.2422 40.1823 18.9609 39.7045 18.3807 38.4132C18.1475 37.8899 18.2156 37.2925 18.5968 36.6383C18.9438 36.041 19.416 35.6998 19.9906 35.6202C21.6232 35.404 23.6311 37.3494 23.6481 37.3665L23.7565 37.2641C23.7565 37.2641 21.9077 35.2675 22.3343 34.3061C22.4936 33.942 22.9769 33.7713 23.7676 33.777C24.5867 33.794 26.8681 34.7953 27.3573 36.1207C27.602 36.7863 27.3744 37.4404 26.6691 38.0662L26.5096 38.2084L26.7257 38.1913C26.7257 38.1913 28.8814 38.0605 29.8428 38.9992C30.1727 39.3234 30.3266 39.7386 30.3038 40.2392C30.2811 40.7626 30.0875 41.1551 29.7405 41.394C28.7962 42.0482 26.9762 41.4623 26.9535 41.4509L26.7202 41.3712L26.7257 41.3826Z" fill="#625E8A"/>
<path d="M25.512 39.0653C24.4597 37.7057 23.3105 38.8037 23.1455 39.4124C22.9806 40.021 23.629 41.574 25.1365 40.9995C26.644 40.4193 25.512 39.0653 25.512 39.0653Z" fill="#ECCA84"/>
<path d="M24.5045 41.2019C24.6979 41.2019 24.9143 41.1621 25.1589 41.071C25.6026 40.9004 25.8701 40.6445 25.9611 40.3146C26.1204 39.7059 25.6025 39.0631 25.5684 39.0233C25.0507 38.3577 24.5331 38.3007 24.1918 38.369C23.6457 38.4771 23.1849 38.9891 23.0768 39.3986C22.9744 39.7798 23.1624 40.4568 23.6118 40.8606C23.8052 41.037 24.1011 41.2076 24.5106 41.2076L24.5045 41.2019ZM24.4134 38.4884C24.7775 38.4884 25.1359 38.699 25.4545 39.1085C25.4545 39.1142 25.9611 39.7286 25.8189 40.269C25.7449 40.5534 25.506 40.7752 25.1078 40.9231C24.4138 41.1905 23.964 40.9687 23.7024 40.7355C23.3042 40.3771 23.1225 39.757 23.2135 39.4214C23.2988 39.1029 23.6969 38.6022 24.2145 38.4941C24.2771 38.4827 24.3396 38.477 24.4079 38.477L24.4134 38.4884Z" fill="#625E8A"/>
<path d="M10.7513 35.085C10.7513 35.085 10.797 35.0737 10.814 35.051C10.8368 35.0168 10.8309 34.9712 10.7968 34.9485C10.2678 34.5844 10.0798 33.1851 10.0741 33.1737C10.0741 33.1339 10.0346 33.1054 9.98909 33.1111C9.94927 33.1111 9.92063 33.1567 9.92632 33.1965C9.932 33.2591 10.131 34.6754 10.7113 35.0736C10.7226 35.085 10.7399 35.085 10.7513 35.085Z" fill="black"/>
</svg>
