<svg width="108" height="143" viewBox="0 0 108 143" fill="none" xmlns="http://www.w3.org/2000/svg">
<path d="M90.1779 65.371L85.1274 70.371L80.4045 66.3035L85.9691 61.8074L90.1779 65.371Z" fill="#D67C6E"/>
<path d="M85.1288 70.4408C85.1288 70.4408 85.0934 70.4358 85.0783 70.4206L80.3557 66.3581C80.3557 66.3581 80.3303 66.3228 80.3303 66.3027C80.3303 66.2825 80.3406 66.2573 80.3557 66.2472L85.9151 61.7512C85.9403 61.731 85.9806 61.731 86.0108 61.7512L90.2196 65.3096C90.2196 65.3096 90.2447 65.345 90.2447 65.3651C90.2447 65.3853 90.2396 65.4055 90.2245 65.4206L85.1741 70.4206C85.1741 70.4206 85.139 70.4408 85.1239 70.4408H85.1288ZM80.5218 66.3027L85.1239 70.2644L90.0633 65.3702L85.9656 61.9024L80.5218 66.3027Z" fill="#625E8A"/>
<path d="M58.3912 58.4138C58.3912 58.4138 64.2128 63.2073 68.7895 72.3304C68.7895 72.3304 72.348 65.8182 83.1949 63.414L86.4864 69.0289C86.4864 69.0289 81.7333 74.8354 80.1557 76.2518C76.3099 79.6994 74.5456 83.3285 69.5758 84.9363C62.9931 87.0684 58.7896 84.3215 54.8681 80.9343C50.9467 77.5472 47.3428 74.5078 47.3428 74.5078L58.3964 58.4138H58.3912Z" fill="#91B1DA"/>
<path d="M65.123 85.7625C60.7983 85.7625 57.6683 83.4489 54.8205 80.9892C50.9444 77.6374 47.3304 74.593 47.2951 74.5628L47.2446 74.5174L47.285 74.462L58.3839 58.3025L58.4445 58.3529C58.4999 58.3983 64.2762 63.2169 68.7974 72.1736C69.3519 71.2764 73.2328 65.5455 83.1775 63.3378L83.228 63.3277L83.2533 63.3731L86.5697 69.0335L86.5345 69.0738C86.4891 69.1293 81.7562 74.9004 80.1936 76.3017C79.0091 77.3601 78.0314 78.4338 77.0838 79.4721C74.9164 81.8411 73.0464 83.8874 69.5887 85.0014C67.9606 85.5306 66.4738 85.7574 65.1129 85.7574L65.123 85.7625ZM47.4413 74.4922C47.8949 74.8753 51.2922 77.7432 54.9162 80.8733C58.631 84.084 62.8246 87.0377 69.5535 84.8653C72.9759 83.7564 74.8306 81.7252 76.9829 79.3763C77.9355 78.338 78.9186 77.2644 80.1031 76.1958C81.59 74.8601 85.9701 69.5425 86.3935 69.0234L83.1573 63.4992C72.5171 65.8782 68.8932 72.3047 68.858 72.3652L68.7873 72.4912L68.7219 72.3652C64.4577 63.8621 59.0442 59.0736 58.4041 58.5242L47.4364 74.4922H47.4413Z" fill="#625E8A"/>
<path d="M69.6992 76.0529C69.674 76.0529 69.6488 76.0379 69.6337 76.0177L69.4673 75.7506C69.4472 75.7153 69.4572 75.6698 69.4925 75.6497C69.5277 75.6295 69.5732 75.6396 69.5934 75.6749L69.6839 75.8211C69.7041 75.7858 69.7444 75.7706 69.7797 75.7858C69.8149 75.8009 69.8353 75.8463 69.8151 75.8867C69.7798 75.9673 69.7597 76.0076 69.7597 76.0076C69.7496 76.0328 69.7244 76.0529 69.6992 76.0529ZM70.0873 75.2617C70.0873 75.2617 70.0619 75.2617 70.0519 75.2516C70.0166 75.2314 70.0017 75.186 70.0218 75.1507C70.0874 75.0297 70.1578 74.8988 70.2384 74.7576C70.2586 74.7223 70.304 74.7122 70.3393 74.7274C70.3746 74.7475 70.3898 74.7929 70.3696 74.8281C70.2889 74.9693 70.2182 75.1003 70.1577 75.2213C70.1426 75.2465 70.1174 75.2617 70.0922 75.2617H70.0873ZM69.1398 75.1608C69.1398 75.1608 69.0892 75.1508 69.0741 75.1256L68.8373 74.7475C68.8171 74.7123 68.8271 74.6668 68.8624 74.6466C68.8977 74.6265 68.9431 74.6366 68.9633 74.6719L69.2001 75.0499C69.2202 75.0852 69.2102 75.1305 69.175 75.1507C69.1649 75.1608 69.1497 75.1608 69.1346 75.1608H69.1398ZM70.677 74.2284C70.677 74.2284 70.6517 74.2284 70.6366 74.2183C70.6013 74.1981 70.5914 74.1528 70.6115 74.1175C70.6871 73.9965 70.7626 73.8655 70.8483 73.7344C70.8684 73.6991 70.9189 73.689 70.9492 73.7142C70.9845 73.7344 70.9945 73.7797 70.9743 73.815C70.8936 73.9461 70.8131 74.0721 70.7375 74.193C70.7224 74.2183 70.697 74.2284 70.6718 74.2284H70.677ZM68.5046 74.1527C68.5046 74.1527 68.4541 74.1427 68.444 74.1175C68.3634 73.9915 68.2829 73.8655 68.2073 73.7395C68.1871 73.7042 68.1972 73.6587 68.2274 73.6386C68.2627 73.6184 68.3079 73.6235 68.3281 73.6587C68.4087 73.7847 68.4894 73.9108 68.57 74.0368C68.5902 74.0721 68.5802 74.1174 68.5449 74.1376C68.5348 74.1476 68.5197 74.1476 68.5046 74.1476V74.1527ZM71.322 73.2253C71.322 73.2253 71.292 73.2253 71.2819 73.2102C71.2467 73.185 71.2416 73.1397 71.2618 73.1044C71.3424 72.9834 71.428 72.8624 71.5187 72.7364C71.5439 72.7012 71.5892 72.6961 71.6245 72.7213C71.6598 72.7465 71.665 72.7918 71.6398 72.8271C71.5491 72.9531 71.4683 73.0741 71.3826 73.19C71.3675 73.2102 71.3473 73.2203 71.322 73.2203V73.2253ZM67.8595 73.1497C67.8595 73.1497 67.809 73.1397 67.799 73.1145L67.557 72.7415C67.5369 72.7062 67.5419 72.6607 67.5772 72.6406C67.6125 72.6154 67.6577 72.6305 67.6779 72.6608L67.9198 73.0337C67.94 73.069 67.9299 73.1144 67.8996 73.1345C67.8895 73.1446 67.8746 73.1446 67.8595 73.1446V73.1497ZM72.0227 72.2625C72.0227 72.2625 71.9926 72.2575 71.9774 72.2474C71.9472 72.2222 71.937 72.1769 71.9622 72.1416C72.0529 72.0257 72.1438 71.9047 72.2396 71.7888C72.2648 71.7585 72.3101 71.7535 72.3454 71.7787C72.3756 71.8039 72.3807 71.8492 72.3555 71.8845C72.2597 72.0004 72.1688 72.1165 72.0781 72.2324C72.063 72.2526 72.043 72.2625 72.0178 72.2625H72.0227ZM67.2093 72.1567C67.2093 72.1567 67.1588 72.1466 67.1487 72.1214C67.0681 71.9954 66.9823 71.8694 66.9016 71.7484C66.8764 71.7131 66.8865 71.6678 66.9218 71.6476C66.9571 71.6275 67.0026 71.6325 67.0227 71.6678C67.1034 71.7888 67.1839 71.9148 67.2696 72.0408C67.2897 72.0761 67.2849 72.1214 67.2496 72.1416C67.2395 72.1517 67.2244 72.1517 67.2093 72.1517V72.1567ZM72.7739 71.3402C72.7739 71.3402 72.7385 71.3352 72.7234 71.3201C72.6932 71.2949 72.6881 71.2445 72.7133 71.2142C72.8091 71.1033 72.9098 70.9873 73.0106 70.8764C73.0358 70.8462 73.0862 70.8412 73.1165 70.8714C73.1467 70.8966 73.1519 70.9471 73.1216 70.9773C73.0208 71.0882 72.925 71.1991 72.8292 71.31C72.8141 71.3251 72.794 71.3352 72.7739 71.3352V71.3402ZM66.5539 71.1638C66.5539 71.1638 66.5087 71.1537 66.4936 71.1285L66.2465 70.7605C66.2213 70.7252 66.2314 70.6799 66.2667 70.6597C66.3019 70.6345 66.3474 70.6446 66.3676 70.6799L66.6144 71.0479C66.6396 71.0831 66.6295 71.1285 66.5942 71.1486C66.5791 71.1587 66.569 71.1638 66.5539 71.1638ZM73.5752 70.4582C73.5752 70.4582 73.5399 70.4531 73.5248 70.438C73.4945 70.4077 73.4945 70.3624 73.5248 70.3322C73.6256 70.2263 73.7315 70.1204 73.8373 70.0146C73.8676 69.9843 73.9129 69.9843 73.9431 70.0146C73.9734 70.0448 73.9734 70.0901 73.9431 70.1204C73.8373 70.2262 73.7314 70.3321 73.6306 70.438C73.6155 70.4531 73.5954 70.4582 73.5752 70.4582ZM65.8835 70.1809C65.8835 70.1809 65.8383 70.1708 65.8232 70.1507L65.5711 69.7827C65.5459 69.7474 65.556 69.7021 65.5913 69.6819C65.6266 69.6567 65.672 69.6668 65.6972 69.7021L65.9492 70.0701C65.9744 70.1053 65.9643 70.1507 65.929 70.1759C65.9139 70.186 65.9038 70.191 65.8886 70.191L65.8835 70.1809ZM74.427 69.6264C74.427 69.6264 74.3867 69.6163 74.3716 69.6012C74.3464 69.571 74.3464 69.5256 74.3716 69.4954C74.4825 69.3946 74.5932 69.2938 74.7041 69.1981C74.7344 69.1729 74.78 69.1729 74.8102 69.2031C74.8354 69.2334 74.8353 69.2787 74.805 69.309C74.6941 69.4098 74.5832 69.5054 74.4723 69.6063C74.4572 69.6214 74.4422 69.6264 74.4221 69.6264H74.427ZM65.2081 69.2031C65.2081 69.2031 65.1627 69.193 65.1476 69.1729C65.0619 69.0519 64.9763 68.9259 64.8906 68.81C64.8654 68.7747 64.8755 68.7293 64.9108 68.7041C64.9461 68.6789 64.9915 68.6889 65.0167 68.7191C65.1023 68.8401 65.1879 68.9612 65.2736 69.0822C65.2988 69.1174 65.2887 69.1628 65.2534 69.188C65.2383 69.1981 65.2234 69.2031 65.2133 69.2031H65.2081ZM75.3292 68.8502C75.3292 68.8502 75.284 68.8402 75.2739 68.8251C75.2487 68.7949 75.2537 68.7443 75.284 68.7191C75.3999 68.6234 75.5157 68.5327 75.6366 68.442C75.6669 68.4168 75.7173 68.4219 75.7425 68.4572C75.7677 68.4924 75.7627 68.5378 75.7275 68.563C75.6115 68.6537 75.4906 68.7443 75.3797 68.8401C75.3646 68.8502 75.3493 68.8552 75.3342 68.8552L75.3292 68.8502ZM64.5175 68.2353C64.5175 68.2353 64.4724 68.2253 64.4572 68.2051L64.1951 67.8421C64.1699 67.8068 64.1799 67.7615 64.2101 67.7363C64.2454 67.7111 64.2908 67.7212 64.316 67.7514L64.5781 68.1143C64.6033 68.1496 64.5933 68.1949 64.5631 68.2201C64.5479 68.2302 64.5327 68.2353 64.5175 68.2353ZM76.2819 68.1345C76.2819 68.1345 76.2365 68.1244 76.2214 68.1042C76.1962 68.0689 76.2063 68.0236 76.2416 67.9984C76.3626 67.9127 76.4884 67.827 76.6144 67.7464C76.6497 67.7262 76.6952 67.7313 76.7154 67.7666C76.7406 67.8018 76.7305 67.8472 76.6952 67.8673C76.5692 67.948 76.4482 68.0337 76.3272 68.1194C76.3121 68.1294 76.297 68.1345 76.2869 68.1345H76.2819ZM77.2799 67.4843C77.2799 67.4843 77.2293 67.4692 77.2142 67.4491C77.1941 67.4138 77.2043 67.3683 77.2396 67.3482C77.3656 67.2726 77.4966 67.197 77.6277 67.1214C77.663 67.1012 77.7082 67.1113 77.7283 67.1517C77.7485 67.1869 77.7336 67.2323 77.6983 67.2524C77.5673 67.328 77.4411 67.3986 77.3151 67.4742C77.305 67.4792 77.2899 67.4843 77.2748 67.4843H77.2799ZM63.8119 67.2726C63.8119 67.2726 63.7665 67.2625 63.7514 67.2423C63.6607 67.1214 63.57 67.0004 63.4844 66.8845C63.4592 66.8492 63.4641 66.8039 63.4994 66.7787C63.5347 66.7535 63.58 66.7636 63.6052 66.7938C63.6959 66.9097 63.7818 67.0307 63.8725 67.1517C63.8977 67.1869 63.8925 67.2323 63.8572 67.2575C63.8421 67.2676 63.8271 67.2726 63.8119 67.2726ZM78.3183 66.9097C78.2931 66.9097 78.2626 66.8946 78.2526 66.8694C78.2324 66.8341 78.2527 66.7887 78.288 66.7686C78.4191 66.7031 78.555 66.6375 78.6911 66.5719C78.7264 66.5568 78.7719 66.572 78.792 66.6073C78.8072 66.6425 78.7919 66.6879 78.7566 66.708C78.6205 66.7685 78.4894 66.8341 78.3584 66.8996C78.3483 66.9047 78.3383 66.9097 78.3232 66.9097H78.3183ZM79.4019 66.4158C79.3717 66.4158 79.3464 66.4006 79.3313 66.3704C79.3162 66.33 79.3313 66.2898 79.3716 66.2746C79.5077 66.2192 79.6489 66.1637 79.79 66.1083C79.8304 66.0931 79.8706 66.1133 79.8858 66.1537C79.9009 66.194 79.8858 66.2343 79.8405 66.2494C79.6994 66.2998 79.5631 66.3553 79.427 66.4107C79.4169 66.4107 79.4068 66.4158 79.3967 66.4158H79.4019ZM63.0913 66.325C63.0913 66.325 63.0459 66.315 63.0308 66.2948C62.94 66.1738 62.8493 66.0578 62.7586 65.9419C62.7334 65.9116 62.7384 65.8613 62.7687 65.8361C62.7989 65.8109 62.8493 65.8159 62.8745 65.8462C62.9652 65.9621 63.0558 66.078 63.1516 66.199C63.1768 66.2342 63.1719 66.2797 63.1366 66.3049C63.1215 66.315 63.1064 66.3199 63.0913 66.3199V66.325ZM80.5158 66.0024C80.4856 66.0024 80.4553 65.9822 80.4452 65.952C80.4301 65.9117 80.4552 65.8714 80.4905 65.8562C80.6316 65.8109 80.7728 65.7655 80.9189 65.7252C80.9593 65.7151 80.9997 65.7353 81.0098 65.7756C81.0198 65.816 80.9996 65.8563 80.9593 65.8663C80.8182 65.9067 80.6771 65.952 80.536 65.9974C80.5259 65.9974 80.5207 65.9974 80.5106 65.9974L80.5158 66.0024ZM81.66 65.6799C81.6247 65.6799 81.5944 65.6546 81.5894 65.6244C81.5793 65.5841 81.6044 65.5438 81.6447 65.5337C81.7909 65.4984 81.9371 65.4681 82.0833 65.4379C82.1236 65.4278 82.1639 65.453 82.169 65.4933C82.179 65.5337 82.1539 65.574 82.1136 65.579C81.9674 65.6092 81.8213 65.6396 81.6802 65.6749C81.6751 65.6749 81.67 65.6749 81.6649 65.6749L81.66 65.6799ZM82.8243 65.4479C82.7891 65.4479 82.7589 65.4228 82.7488 65.3875C82.7438 65.3472 82.7688 65.3069 82.8091 65.3019C82.9553 65.2767 83.1016 65.2564 83.2528 65.2363C83.2982 65.2312 83.3284 65.2616 83.3385 65.3019C83.3435 65.3422 83.3131 65.3774 83.2728 65.3825C83.1266 65.4026 82.9806 65.4227 82.8344 65.4429H82.8243V65.4479ZM62.3451 65.3875C62.3451 65.3875 62.2998 65.3774 62.2897 65.3623C62.194 65.2464 62.0982 65.1305 62.0074 65.0196C61.9822 64.9893 61.9873 64.939 62.0175 64.9138C62.0478 64.8886 62.0982 64.8936 62.1234 64.9238C62.2141 65.0347 62.3099 65.1506 62.4056 65.2716C62.4309 65.3018 62.4258 65.3522 62.3956 65.3774C62.3804 65.3875 62.3654 65.3926 62.3503 65.3926L62.3451 65.3875ZM84.0037 65.3069C83.9634 65.3069 83.9332 65.2766 83.9282 65.2363C83.9282 65.196 83.9534 65.1607 83.9988 65.1557L84.2306 65.1405C84.2659 65.1405 84.3061 65.1657 84.3111 65.2111C84.3111 65.2514 84.281 65.2867 84.2407 65.2918L84.0089 65.3069H84.0037ZM61.5841 64.4701C61.5841 64.4701 61.5439 64.46 61.5288 64.4449C61.4279 64.329 61.3321 64.2181 61.2364 64.1072C61.2112 64.077 61.2111 64.0317 61.2413 64.0014C61.2715 63.9762 61.3219 63.9762 61.3471 64.0065C61.4429 64.1174 61.5387 64.2282 61.6395 64.3441C61.6647 64.3744 61.6647 64.4197 61.6294 64.45C61.6143 64.46 61.5994 64.4701 61.5792 64.4701H61.5841ZM60.7978 63.583C60.7978 63.583 60.7575 63.5729 60.7424 63.5578C60.6366 63.4469 60.5357 63.3361 60.44 63.2353C60.4097 63.205 60.4147 63.1597 60.44 63.1294C60.4702 63.0992 60.5155 63.1042 60.5458 63.1294C60.6466 63.2353 60.7473 63.3411 60.8532 63.457C60.8834 63.4873 60.8784 63.5326 60.8532 63.5628C60.8381 63.578 60.8231 63.583 60.803 63.583H60.7978ZM59.9711 62.7262C59.9711 62.7262 59.936 62.7211 59.9209 62.706C59.81 62.5951 59.7041 62.4944 59.5982 62.3986C59.568 62.3734 59.568 62.3229 59.5982 62.2927C59.6234 62.2624 59.6738 62.2624 59.7041 62.2927C59.8049 62.3884 59.9158 62.4893 60.0267 62.6002C60.057 62.6304 60.057 62.6758 60.0267 62.706C60.0116 62.7211 59.9913 62.7262 59.9711 62.7262ZM59.0942 61.9298C59.0942 61.9298 59.059 61.9247 59.0489 61.9146C58.9229 61.8088 58.8068 61.7182 58.7009 61.6426C58.6656 61.6174 58.6607 61.5719 58.6859 61.5366C58.7111 61.5013 58.7565 61.4964 58.7917 61.5216C58.8976 61.6022 59.0187 61.6929 59.1447 61.7987C59.1749 61.8239 59.18 61.8744 59.1548 61.9047C59.1396 61.9198 59.1193 61.9298 59.0991 61.9298H59.0942ZM58.1265 61.2494C58.1265 61.2494 58.1011 61.2494 58.0911 61.2393C57.829 61.0982 57.7081 61.083 57.7081 61.083C57.6678 61.083 57.6376 61.0427 57.6426 61.0024C57.6426 60.9621 57.6727 60.9318 57.7231 60.9368C57.7382 60.9368 57.8744 60.952 58.1617 61.1082C58.197 61.1284 58.2121 61.1737 58.192 61.209C58.1768 61.2342 58.1517 61.2494 58.1265 61.2494Z" fill="#625E8A"/>
<path d="M38.6386 46.8761L56.4867 43.5847C56.4867 43.5847 58.1802 41.7701 61.1086 50.0868C65.0653 61.3268 59.7627 72.1586 43.5982 85.9843C25.2412 101.69 27.8874 80.1375 30.0094 75.4449C33.1395 68.5194 36.7182 63.4891 40.2666 58.9024L38.6386 46.8761Z" fill="#91B1DA"/>
<path d="M33.1697 91.7142C32.2373 91.7142 31.4309 91.4621 30.7504 90.9531C26.9752 88.1204 28.684 78.1908 29.939 75.4186C33.0691 68.4981 36.7131 63.3821 40.1859 58.8861L38.5529 46.8195L38.6236 46.8043L56.4463 43.518C56.5118 43.4575 56.7488 43.2862 57.1369 43.3669C57.9635 43.5383 59.3344 44.8436 61.1741 50.0655C63.1751 55.756 62.7769 61.3257 59.9593 67.102C57.1468 72.8581 51.8092 79.0578 43.6438 86.0437C39.2334 89.819 35.7252 91.7142 33.1697 91.7142ZM38.7193 46.9404L40.3422 58.9265L40.322 58.9517C36.8492 63.4477 33.2052 68.5587 30.0751 75.4791C28.8352 78.2261 27.1263 88.0498 30.841 90.8371C33.3058 92.687 37.5802 91.0388 43.548 85.9329C51.6983 78.957 57.0259 72.7775 59.8284 67.0365C62.6308 61.3005 63.0239 55.7662 61.038 50.1159C59.1277 44.6874 57.7567 43.6491 57.1115 43.513C56.7385 43.4374 56.5471 43.639 56.542 43.639L56.527 43.6592H56.5017L38.7242 46.9404H38.7193Z" fill="#625E8A"/>
<path d="M38.2836 87.3404L37.5981 86.4885C51.308 75.435 57.1647 64.7947 58.072 58.5195C59.0044 52.0779 54.7707 42.8691 54.7253 42.7733L55.7132 42.3147C55.8947 42.7028 60.1286 51.9116 59.1458 58.6757C58.2083 65.1526 52.2302 76.0853 38.2784 87.3354L38.2836 87.3404Z" fill="#F9F9F9"/>
<path d="M38.2837 87.4144C38.2837 87.4144 38.2384 87.4043 38.2283 87.3892L37.5427 86.5374C37.5427 86.5374 37.5226 86.502 37.5277 86.4819C37.5277 86.4617 37.5377 86.4416 37.5528 86.4316C51.2424 75.3931 57.0945 64.773 58.0017 58.5128C58.4806 55.1963 57.558 51.1237 56.6961 48.2911C55.7536 45.1912 54.7051 42.9028 54.6598 42.8071C54.6447 42.7718 54.6599 42.7264 54.6952 42.7063L55.6831 42.2476C55.6831 42.2476 55.7234 42.2376 55.7385 42.2476C55.7587 42.2527 55.7738 42.2677 55.7789 42.2879C55.9603 42.676 60.2043 51.9049 59.2215 58.6893C58.2789 65.1813 52.296 76.134 38.3241 87.3993C38.309 87.4094 38.2937 87.4144 38.2786 87.4144H38.2837ZM37.7041 86.5021L38.2938 87.2379C52.1901 76.0181 58.1427 65.1258 59.0802 58.6691C60.0228 52.1519 56.1065 43.3464 55.6831 42.4189L54.8262 42.8171C55.0127 43.2305 55.9704 45.3978 56.8374 48.2507C57.6993 51.0985 58.6318 55.1912 58.1479 58.5381C57.2356 64.8184 51.3888 75.4586 37.7041 86.5071V86.5021Z" fill="#625E8A"/>
<path d="M11.4562 140.738C11.4763 140.889 11.6174 141.02 11.7736 141.176C14.3039 143.706 17.0258 141.564 24.4149 139.815C29.294 138.661 28.9967 137.96 28.6237 135.133L24.6064 135.143C22.6004 137.693 11.5064 137.255 11.451 139.603C11.451 139.603 11.4157 140.491 11.451 140.732L11.4562 140.738Z" fill="#414042"/>
<path d="M14.5075 142.405C13.4541 142.405 12.572 142.077 11.7252 141.23L11.69 141.195C11.5388 141.044 11.4078 140.913 11.3826 140.752C11.3473 140.505 11.3826 139.648 11.3826 139.607C11.4129 138.357 14.1901 137.899 17.4109 137.365C20.4452 136.86 23.5853 136.341 24.5531 135.101C24.5682 135.081 24.5884 135.071 24.6136 135.071L28.6307 135.061C28.6659 135.061 28.7012 135.086 28.7062 135.127L28.7466 135.444C29.0944 137.995 29.1953 138.761 24.4372 139.89C22.3454 140.384 20.5964 140.923 19.1851 141.351C17.2295 141.951 15.7474 142.405 14.5075 142.405ZM11.5337 140.726C11.5489 140.837 11.6648 140.953 11.7958 141.084L11.831 141.12C13.6103 142.899 15.4601 142.334 19.1396 141.205C20.5509 140.772 22.3052 140.232 24.402 139.739C29.029 138.645 28.9483 138.03 28.5955 135.459L28.5603 135.207L24.6439 135.217C23.6106 136.477 20.4704 137.002 17.4311 137.506C14.4069 138.005 11.554 138.478 11.5288 139.607C11.5288 139.618 11.4935 140.495 11.5288 140.726H11.5337Z" fill="#625E8A"/>
<path d="M30.0296 79.0817C33.074 79.4143 39.6566 80.6644 43.2554 85.2662C43.8653 86.0475 43.699 87.1765 42.9278 87.8066C41.199 89.2129 38.2957 92.2068 37.1213 97.0909C35.4529 104.016 30.4024 108.079 27.3277 107.313C22.0152 105.982 20.2664 102.298 23.4973 94.3238C25.8511 88.5122 27.3833 83.0081 28.0385 80.4526C28.2704 79.5605 29.1122 78.9809 30.0296 79.0817Z" fill="#625E8A"/>
<path d="M28.1046 107.472C27.8274 107.472 27.5602 107.442 27.3082 107.376C24.8586 106.761 23.266 105.683 22.4494 104.07C21.3305 101.872 21.653 98.6715 23.4272 94.2864C25.7508 88.5504 27.2679 83.1371 27.9685 80.4254C28.2104 79.4929 29.0776 78.893 30.0403 78.9989C32.8125 79.3013 39.6522 80.5211 43.3165 85.2137C43.9416 86.0101 43.7853 87.1946 42.9789 87.8549C41.3256 89.2006 38.3769 92.1945 37.1975 97.0988C36.4212 100.315 34.3901 104.488 30.9979 106.539C29.9898 107.149 28.9917 107.467 28.1046 107.467V107.472ZM29.8185 79.14C29.0171 79.14 28.3164 79.6692 28.1098 80.4656C27.4092 83.1824 25.8869 88.6008 23.5633 94.3468C21.8042 98.6916 21.4816 101.852 22.5804 104.004C23.3818 105.577 24.9394 106.63 27.3436 107.235C28.3618 107.487 29.6319 107.2 30.9172 106.418C34.264 104.392 36.2802 100.259 37.0463 97.0686C38.2359 92.1189 41.2096 89.0997 42.878 87.7439C43.624 87.134 43.765 86.0453 43.1955 85.3094C39.5613 80.6622 32.7721 79.4576 30.0201 79.1552C29.9546 79.1501 29.884 79.1451 29.8185 79.1451V79.14Z" fill="#625E8A"/>
<path d="M24.4349 107.755C24.4349 107.755 25.5893 103.446 27.923 104.419C30.2567 105.391 28.1196 112.196 25.3927 118.617C22.6709 125.034 25.196 122.12 26.3654 127.952C27.5347 133.789 31.8091 137.095 24.4199 138.844C17.0307 140.593 14.3088 142.736 11.7786 140.205C9.24828 137.675 22.4743 136.899 24.6165 134.177C26.7536 131.455 23.6437 127.761 22.0862 123.285C20.5287 118.814 24.4299 107.755 24.4299 107.755H24.4349Z" fill="#414042"/>
<path d="M14.5104 141.433C13.4569 141.433 12.5749 141.106 11.7281 140.259C11.4408 139.972 11.335 139.689 11.4106 139.412C11.6828 138.409 14.3189 137.734 17.3734 136.947C20.2968 136.196 23.6082 135.34 24.5609 134.13C26.0579 132.225 24.9137 129.785 23.5831 126.962C23.0337 125.798 22.4691 124.593 22.0205 123.308C20.4832 118.888 24.2838 107.96 24.3645 107.733C24.4048 107.592 25.1004 105.077 26.5167 104.376C26.9754 104.15 27.454 104.145 27.953 104.351C28.3159 104.503 28.5882 104.795 28.7595 105.218C29.7323 107.602 27.5045 113.837 25.4631 118.646C23.8149 122.537 24.0921 122.94 24.8432 124.014C25.327 124.709 25.9873 125.657 26.4409 127.94C26.7534 129.513 27.2978 130.899 27.7716 132.124C28.5126 134.024 29.0972 135.521 28.4672 136.721C27.9581 137.688 26.678 138.389 24.44 138.918C22.3483 139.412 20.5993 139.952 19.188 140.38C17.2323 140.98 15.7503 141.433 14.5104 141.433ZM27.2526 104.351C27.0258 104.351 26.7988 104.407 26.5871 104.513C25.2212 105.183 24.5157 107.748 24.5107 107.779C24.5107 107.779 24.5107 107.779 24.5107 107.784C24.4703 107.895 20.6344 118.868 22.1667 123.263C22.6102 124.538 23.1749 125.738 23.7243 126.902C25.0751 129.77 26.2393 132.245 24.6869 134.226C23.704 135.476 20.5084 136.302 17.4187 137.094C14.5356 137.835 11.8137 138.535 11.5617 139.453C11.5012 139.674 11.592 139.906 11.844 140.153C13.6233 141.932 15.4731 141.368 19.1525 140.239C20.5639 139.805 22.3179 139.266 24.4147 138.772C26.6072 138.253 27.8574 137.577 28.3463 136.65C28.9461 135.511 28.3714 134.039 27.6456 132.174C27.1668 130.944 26.6224 129.548 26.3048 127.965C25.8562 125.717 25.2061 124.78 24.7272 124.1C23.9661 123.006 23.6537 122.552 25.3322 118.585C29.0117 109.916 29.1528 106.564 28.6286 105.274C28.4724 104.886 28.2254 104.624 27.9028 104.487C27.6861 104.397 27.4692 104.351 27.2575 104.351H27.2526Z" fill="#625E8A"/>
<path d="M27.128 106.965C27.5372 106.965 27.8688 106.633 27.8688 106.224C27.8688 105.815 27.5372 105.483 27.128 105.483C26.7188 105.483 26.387 105.815 26.387 106.224C26.387 106.633 26.7188 106.965 27.128 106.965Z" fill="#E4E4F1"/>
<path d="M27.1303 107.035C26.6817 107.035 26.3186 106.672 26.3186 106.223C26.3186 105.775 26.6817 105.412 27.1303 105.412C27.5789 105.412 27.9417 105.775 27.9417 106.223C27.9417 106.672 27.5789 107.035 27.1303 107.035ZM27.1303 105.558C26.7623 105.558 26.4648 105.855 26.4648 106.223C26.4648 106.591 26.7623 106.889 27.1303 106.889C27.4982 106.889 27.7955 106.591 27.7955 106.223C27.7955 105.855 27.4982 105.558 27.1303 105.558Z" fill="#625E8A"/>
<path d="M27.36 106.509L26.856 106.005L26.9618 105.899L27.4658 106.403L27.36 106.509Z" fill="#625E8A"/>
<path d="M26.9618 106.509L26.856 106.403L27.36 105.899L27.4658 106.005L26.9618 106.509Z" fill="#625E8A"/>
<path d="M48.7561 3.35021C49.4768 2.30181 50.1877 0.28574 54.1142 0.910747C58.3985 1.5912 56.1252 4.42888 57.7281 4.64058C59.3309 4.85227 63.479 4.88757 63.7815 7.04989C64.0839 9.21222 61.1504 9.72122 60.7673 8.11334C60.3842 6.50546 60.7926 11.2485 56.9115 9.36839C53.0304 7.48833 54.7895 6.6315 53.6151 8.13857C52.4457 9.65068 46.2158 7.03473 48.7511 3.35021H48.7561Z" fill="#490E00"/>
<path d="M58.5533 9.89495C58.0694 9.89495 57.5099 9.74379 56.8849 9.44136C54.8838 8.46857 54.3746 7.778 54.1831 7.5159C54.173 7.50078 54.1629 7.48562 54.1528 7.47554C54.1427 7.4957 54.1277 7.51593 54.1176 7.54113C54.047 7.66714 53.9312 7.87886 53.6842 8.1964C53.0642 8.99783 51.0682 8.7256 49.5813 7.64191C47.9734 6.46751 47.6457 4.85455 48.6992 3.32228C48.7798 3.20635 48.8605 3.08034 48.9411 2.94425C49.5964 1.88577 50.5945 0.288017 54.1328 0.852539C56.8446 1.28601 56.9856 2.58646 57.0864 3.53405C57.1469 4.10362 57.1922 4.5118 57.7416 4.58237C57.9734 4.61261 58.2506 4.6379 58.5732 4.66814C60.4533 4.84455 63.5935 5.14193 63.8607 7.05223C64.027 8.25184 63.2307 8.95753 62.4192 9.10874C61.7337 9.23475 60.902 8.98769 60.7004 8.14091C60.6701 8.01994 60.65 7.94939 60.6349 7.90907C60.6147 7.95947 60.5845 8.04007 60.5593 8.11063C60.398 8.57435 60.0956 9.43123 59.2791 9.76389C59.0573 9.85462 58.8152 9.89999 58.5481 9.89999L58.5533 9.89495ZM54.1429 7.2992C54.2034 7.2992 54.2385 7.34961 54.299 7.43026C54.4653 7.65707 54.9796 8.35768 56.9503 9.31031C57.8778 9.7589 58.6439 9.86469 59.2286 9.62779C59.9796 9.32033 60.267 8.49882 60.4232 8.06031C60.5089 7.81837 60.5492 7.71255 60.645 7.71255C60.7307 7.71255 60.776 7.80317 60.8465 8.11063C61.023 8.86669 61.774 9.08857 62.3889 8.9676C63.1601 8.82647 63.8658 8.1813 63.7096 7.07746C63.4626 5.28308 60.3929 4.99579 58.5582 4.81938C58.2356 4.78913 57.9533 4.76385 57.7214 4.73361C57.0561 4.64288 57.0006 4.13892 56.9351 3.54919C56.8343 2.59656 56.7034 1.41204 54.1026 0.99873C50.665 0.449329 49.7376 1.93625 49.0622 3.01993C48.9765 3.15602 48.8957 3.28707 48.8151 3.403C48.3312 4.10361 47.4543 5.90803 49.662 7.52095C51.0632 8.54415 52.9937 8.83644 53.5582 8.10559C53.7951 7.79813 53.911 7.59159 53.9766 7.47062C54.0371 7.36477 54.0673 7.30929 54.1328 7.30425H54.1378L54.1429 7.2992Z" fill="#625E8A"/>
<path d="M56.503 19.6501C50.6208 17.0694 49.6077 19.1309 46.8204 18.9746C44.0331 18.8184 44.6177 12.9666 44.6177 12.9666L37.2085 15.8295C37.2085 15.8295 39.0381 19.141 38.156 20.5271C37.274 21.9132 35.7871 22.145 34.2699 22.4827C29.1993 23.6067 27.6871 25.4969 26.0288 30.1139C25.0863 32.74 22.3394 37.6846 22.3394 37.6846C14.9754 34.0606 11.0893 34.9981 11.2707 33.3952C11.4522 31.7974 10.2878 29.9123 9.6577 28.9748C9.0327 28.0322 9.56693 26.8125 8.85119 26.3387C8.13546 25.8649 6.61334 27.1854 7.4198 29.0655C8.22626 30.9456 6.88057 30.8548 6.88057 30.8548C6.88057 30.8548 6.16468 29.1612 3.56889 28.7832C0.973092 28.4052 1.4218 30.5726 1.4218 30.5726C-0.100391 30.5726 0.706109 32.4526 0.706109 32.4526C-0.639672 32.6391 0.615294 34.7107 0.615294 34.7107C-1.26477 36.5 3.21104 38.2844 7.11733 38.4457C8.59416 38.5062 13.6798 42.0495 16.8855 43.2692C20.061 44.4789 23.0448 44.7512 24.9199 44.7714C26.18 44.7865 27.3546 44.1564 28.0401 43.103C28.7709 41.9891 29.8696 40.1846 31.3968 37.3872C32.5561 35.2601 34.7437 29.0907 34.7437 29.0907L41.513 38.7078L53.7408 29.6552C53.7408 29.6552 53.5696 27.3669 54.7238 25.0029L56.4929 19.6451L56.503 19.6501Z" fill="#D67C6E"/>
<path d="M24.9617 44.8504C24.9617 44.8504 24.9316 44.8504 24.9164 44.8504C22.9809 44.8252 20.012 44.548 16.8568 43.3434C15.3598 42.7738 13.4142 41.675 11.7005 40.7073C9.73975 39.5984 7.88509 38.555 7.11391 38.5247C4.18041 38.4088 0.687408 37.3403 0.163208 35.9391C0.00191632 35.5157 0.122866 35.1023 0.521056 34.7041C0.379925 34.4571 -0.19965 33.3836 0.087652 32.7787C0.183419 32.5822 0.354556 32.4562 0.601534 32.4007C0.505767 32.1386 0.253965 31.3523 0.571509 30.8735C0.72272 30.6467 0.979661 30.5207 1.33249 30.5005C1.30225 30.2636 1.26191 29.5932 1.70043 29.1295C2.07845 28.7263 2.71353 28.5851 3.58048 28.7111C5.94945 29.0539 6.79115 30.5056 6.93228 30.7828C7.03813 30.7828 7.32548 30.7525 7.48677 30.5257C7.68335 30.2485 7.6381 29.7545 7.35584 29.0992C6.83164 27.8744 7.26505 26.9168 7.79933 26.4732C8.17232 26.1607 8.60084 26.0851 8.89822 26.2816C9.30649 26.5488 9.33671 27.0377 9.37199 27.5518C9.40223 28.0004 9.43737 28.5044 9.72467 28.9379C10.1733 29.6133 11.5444 31.6699 11.3478 33.4088C11.2722 34.1044 12.0936 34.2908 13.7368 34.6538C15.6269 35.0771 18.4799 35.7123 22.3106 37.5873C22.6281 37.0076 25.0877 32.5166 25.9597 30.0871C26.741 27.9047 27.5275 26.1909 28.8178 24.9359C30.0426 23.7413 31.6704 22.9853 34.2562 22.4107L34.5739 22.3401C35.9701 22.0377 37.2905 21.7503 38.097 20.4852C38.9438 19.1495 37.1646 15.8935 37.1494 15.8632C37.1394 15.843 37.1394 15.8228 37.1494 15.8027C37.1545 15.7825 37.1746 15.7675 37.1947 15.7574L44.6042 12.8944C44.6042 12.8944 44.6547 12.8893 44.6748 12.9044C44.695 12.9196 44.7048 12.9448 44.7048 12.97C44.7048 13.0104 44.342 16.7806 45.6273 18.2877C45.9499 18.6657 46.3582 18.8723 46.832 18.8975C47.6939 18.9429 48.3795 18.7816 49.1053 18.6051C50.683 18.2271 52.4723 17.7936 56.5399 19.5779C56.5752 19.593 56.5951 19.6385 56.58 19.6738C56.5649 19.7141 56.5196 19.7291 56.4843 19.714C52.462 17.9499 50.6979 18.3733 49.1455 18.7513C48.4096 18.9278 47.7091 19.0941 46.8271 19.0488C46.3079 19.0185 45.8643 18.7967 45.5165 18.3884C44.3018 16.9721 44.4934 13.7513 44.5488 13.0809L37.3308 15.8733C37.603 16.3874 39.0647 19.2655 38.2331 20.576C37.3964 21.8916 36.0456 22.1838 34.6192 22.4963L34.3017 22.5669C29.2613 23.6859 27.7743 25.5257 26.116 30.1477C25.1835 32.7485 22.4466 37.683 22.4214 37.7334C22.4012 37.7686 22.3609 37.7838 22.3256 37.7636C18.4798 35.8684 15.617 35.2334 13.7218 34.81C11.9929 34.4219 11.1208 34.2304 11.2166 33.4038C11.4031 31.7152 10.0574 29.694 9.61884 29.0337C9.31138 28.5699 9.27609 28.0408 9.24081 27.577C9.20553 27.078 9.17526 26.6496 8.83251 26.4228C8.59057 26.2665 8.22763 26.3371 7.91008 26.6043C7.41613 27.0176 7.01816 27.9097 7.51212 29.0589C7.81958 29.7746 7.8599 30.3039 7.62804 30.6315C7.38106 30.9793 6.92217 30.949 6.90201 30.949C6.87177 30.949 6.85166 30.9289 6.83654 30.9037C6.8315 30.8886 6.10067 29.2454 3.58048 28.8775C2.76394 28.7565 2.17435 28.8825 1.8316 29.2454C1.35277 29.7495 1.51387 30.566 1.51387 30.576C1.51387 30.5962 1.51398 30.6215 1.49886 30.6366C1.48374 30.6517 1.46365 30.6617 1.44348 30.6617C1.0957 30.6617 0.85379 30.7626 0.717699 30.9692C0.385034 31.4732 0.788215 32.4309 0.793256 32.441C0.803337 32.4611 0.803337 32.4864 0.793256 32.5065C0.783175 32.5267 0.762836 32.5419 0.737634 32.5419C0.490656 32.5772 0.329374 32.6779 0.243687 32.8543C-0.0385741 33.4541 0.692478 34.679 0.697518 34.6891C0.71768 34.7193 0.712629 34.7596 0.687428 34.7798C0.304359 35.1427 0.183281 35.5156 0.324412 35.8937C0.773006 37.0933 3.9637 38.2576 7.14418 38.3836C7.95064 38.4138 9.73493 39.422 11.7964 40.5863C13.5051 41.554 15.4456 42.6478 16.9326 43.2123C20.0677 44.4069 23.0161 44.6891 24.9415 44.7093H24.9871C26.2068 44.7093 27.3308 44.0994 28.0012 43.0762C28.9538 41.6195 30.0828 39.6991 31.353 37.3654C32.4972 35.2636 34.6746 29.1396 34.6947 29.0791C34.7048 29.0539 34.725 29.0337 34.7553 29.0286C34.7855 29.0236 34.8108 29.0387 34.8259 29.0589L41.5497 38.6154L53.687 29.6285C53.6718 29.3059 53.6112 27.1638 54.6798 24.9763C54.6999 24.941 54.7454 24.9258 54.7807 24.9409C54.816 24.9611 54.831 25.0014 54.8159 25.0417C53.6818 27.3653 53.8381 29.6335 53.8381 29.6587C53.8381 29.6839 53.828 29.7091 53.8078 29.7243L41.58 38.7768C41.58 38.7768 41.5447 38.7969 41.5246 38.7919C41.5044 38.7919 41.4893 38.7767 41.4741 38.7616L34.7855 29.2606C34.4579 30.1779 32.5325 35.4955 31.479 37.431C30.2038 39.7647 29.0748 41.6901 28.1171 43.1518C27.4165 44.2203 26.2472 44.8555 24.977 44.8555L24.9617 44.8504Z" fill="#625E8A"/>
<path d="M33.9525 6.89745C33.7912 5.15347 33.6955 0.975006 38.3074 2.24014C43.1915 3.58088 45.0666 0.586847 48.5142 5.59194C49.9507 7.67866 49.9407 8.66657 48.4689 11.5093C47.4709 13.4348 45.6713 17.2555 42.0624 14.2413C38.4534 11.2221 34.2246 9.80574 33.9525 6.89745Z" fill="#490E00"/>
<path d="M44.5793 15.4367C43.7779 15.4367 42.9211 15.0537 42.0138 14.2976C40.8293 13.3046 39.5994 12.5033 38.4149 11.7271C36.0812 10.2049 34.0651 8.88427 33.8786 6.89836C33.677 4.75116 34.0399 3.27435 34.9472 2.51325C35.7083 1.87313 36.8473 1.75723 38.3241 2.1655C40.058 2.63929 41.4039 2.56869 42.5934 2.50316C44.7658 2.38723 46.3333 2.29653 48.5712 5.55262C50.0279 7.66453 50.0178 8.67256 48.5309 11.5506L48.4351 11.7422C47.7547 13.0628 46.7265 15.0588 45.0631 15.3965C44.9069 15.4267 44.7456 15.4468 44.5793 15.4468V15.4367ZM34.0297 6.88827C34.2111 8.80361 36.1971 10.1041 38.5006 11.6061C39.6347 12.3471 40.9199 13.1887 42.1145 14.1867C43.1679 15.0688 44.1509 15.4217 45.038 15.2453C46.6308 14.9227 47.6388 12.967 48.3091 11.6716L48.4049 11.4801C49.8766 8.63733 49.8868 7.70986 48.4553 5.63826C46.2627 2.45274 44.7305 2.53847 42.6035 2.6544C41.4039 2.71992 40.0428 2.79544 38.2837 2.31156C36.8523 1.91842 35.7637 2.02937 35.0429 2.63422C34.1709 3.36507 33.8332 4.79651 34.0248 6.89331L34.0297 6.88827Z" fill="#625E8A"/>
<path d="M44.3744 14.8117C43.8049 14.9176 43.8151 15.0789 42.8372 15.7392C40.0297 17.6495 37.4743 17.7957 35.3675 15.6132C33.0136 13.1787 34.3694 11.1928 34.3946 9.66554C34.4752 4.34794 36.9247 3.21385 39.0619 3.99007C40.7252 4.59491 40.2263 6.79258 40.8211 8.72305C41.3302 10.3713 43.5025 11.4195 43.3966 12.1353C43.2605 13.0728 44.5057 10.7189 45.8061 11.7724C46.4361 12.2865 46.1688 14.4791 44.3744 14.8067V14.8117Z" fill="#D67C6E"/>
<path d="M38.8313 17.2921C37.536 17.2921 36.3617 16.7526 35.3183 15.6689C33.5139 13.804 33.8616 12.171 34.1439 10.8605C34.2346 10.4371 34.3202 10.0389 34.3253 9.67095C34.3757 6.21829 35.419 4.78689 36.2809 4.19212C37.0672 3.64776 38.0653 3.55702 39.0885 3.93001C40.2579 4.3534 40.399 5.55805 40.5502 6.82823C40.6258 7.4482 40.7015 8.09335 40.893 8.70828C41.1652 9.59035 41.9364 10.306 42.5513 10.8856C43.0957 11.3947 43.5239 11.7929 43.4735 12.1558C43.4634 12.2314 43.4634 12.2718 43.4634 12.2919C43.5188 12.2667 43.6349 12.171 43.7307 12.0954C44.1742 11.7275 45.0059 11.042 45.8527 11.7275C46.1702 11.9845 46.2761 12.6095 46.1148 13.2446C45.888 14.1216 45.2427 14.7366 44.3858 14.8928C44.0229 14.9584 43.917 15.0439 43.5894 15.2909C43.4281 15.4169 43.2064 15.5833 42.8737 15.8101C41.4171 16.798 40.0663 17.2971 38.8264 17.2971L38.8313 17.2921ZM37.8789 3.84929C37.3295 3.84929 36.8103 4.00562 36.3668 4.30804C35.5301 4.88264 34.5219 6.27877 34.4714 9.67095C34.4664 10.054 34.3807 10.4572 34.2849 10.8907C33.9976 12.2365 33.675 13.7587 35.419 15.5682C37.4049 17.6246 39.8849 17.6599 42.7932 15.6841C43.1209 15.4623 43.3426 15.2909 43.4988 15.17C43.8265 14.9179 43.9624 14.8172 44.3556 14.7416C45.157 14.5954 45.7569 14.0208 45.9686 13.2043C46.1148 12.6347 46.0241 12.0601 45.7569 11.8383C45.0059 11.2234 44.2648 11.8383 43.8213 12.2012C43.6045 12.3827 43.4837 12.4835 43.3829 12.423C43.2972 12.3776 43.3022 12.2517 43.3224 12.1307C43.3627 11.8434 42.9392 11.4452 42.4452 10.9865C41.8152 10.3968 41.0291 9.66587 40.7468 8.74852C40.5502 8.11847 40.4747 7.46837 40.3991 6.83832C40.2479 5.55806 40.1115 4.45422 39.0329 4.06107C38.6397 3.9149 38.2467 3.84424 37.8737 3.84424L37.8789 3.84929Z" fill="#625E8A"/>
<path d="M38.4183 13.9658C37.6371 13.9658 37.1582 13.4567 37.138 13.4315C37.1128 13.4013 37.1128 13.356 37.138 13.3257C37.1683 13.3005 37.2136 13.3005 37.2439 13.3257C37.2439 13.3257 37.7026 13.8096 38.4183 13.8096H38.4535C39.1037 13.7944 39.7592 13.4013 40.4094 12.6402C40.4346 12.6099 40.485 12.605 40.5152 12.6302C40.5454 12.6554 40.5505 12.7058 40.5253 12.736C39.8448 13.5324 39.1492 13.9406 38.4587 13.9558C38.4486 13.9558 38.4333 13.9558 38.4232 13.9558L38.4183 13.9658Z" fill="#625E8A"/>
<path d="M37.1224 8.50215C37.1224 8.50215 37.0819 8.49709 37.0668 8.48197C36.346 7.74103 35.4691 8.16955 35.4338 8.18971C35.3986 8.20987 35.3531 8.18967 35.3329 8.15439C35.3128 8.11911 35.3331 8.07377 35.3684 8.05361C35.3785 8.05361 36.3764 7.5596 37.1778 8.37614C37.208 8.40638 37.208 8.45172 37.1778 8.48197C37.1627 8.49709 37.1425 8.50215 37.1273 8.50215H37.1224Z" fill="#625E8A"/>
<path d="M41.2611 8.19604C41.2611 8.19604 41.2206 8.19098 41.2055 8.17586C40.4847 7.43996 39.6078 7.86331 39.5725 7.88347C39.5372 7.90364 39.4918 7.88356 39.4716 7.84828C39.4514 7.813 39.4718 7.76754 39.507 7.74737C39.5171 7.74233 40.515 7.25349 41.3165 8.07003C41.3467 8.10027 41.3467 8.14561 41.3165 8.17586C41.3013 8.19098 41.2811 8.19604 41.266 8.19604H41.2611Z" fill="#625E8A"/>
<path d="M37.6775 12.217C37.6775 12.217 37.6473 12.217 37.6322 12.2019L36.4124 11.2845C36.2663 11.1736 36.2107 10.9922 36.2712 10.8208C36.3317 10.6545 36.4829 10.5486 36.6593 10.5486C36.6593 10.5486 36.6695 10.5486 36.6746 10.5486L38.4891 10.1807C38.5295 10.1706 38.5698 10.2009 38.5748 10.2362C38.5849 10.2765 38.5547 10.3168 38.5194 10.3218L36.6846 10.6948C36.5284 10.6948 36.4427 10.7856 36.4124 10.8713C36.3822 10.957 36.3873 11.0829 36.5033 11.1686L37.723 12.086C37.7583 12.1112 37.7632 12.1565 37.738 12.1918C37.7229 12.2119 37.7027 12.2221 37.6775 12.2221V12.217Z" fill="#625E8A"/>
<path d="M36.816 21.44C36.816 21.44 36.2161 25.7243 40.7222 24.4542C45.0822 23.2243 46.6851 18.6729 46.6851 18.6729H48.0812C48.0812 18.6729 47.3858 24.1869 50.7427 27.5136C52.023 28.7837 53.0662 29.0056 53.6862 28.9905C53.9836 28.9804 54.2103 29.2475 54.1649 29.5398C53.8978 31.3291 53.6307 36.6418 57.7537 44.7669C57.7537 44.7669 44.8604 50.2558 38.6305 48.3203C38.6305 48.3203 38.2676 40.5883 36.2263 38.9754C34.1849 37.3625 31.4532 34.4945 33.3433 28.9451C34.6689 25.0489 35.0065 21.9944 35.0065 21.9944L36.816 21.4451V21.44Z" fill="#91B1DA"/>
<path d="M41.7851 48.7985C40.6208 48.7985 39.542 48.6776 38.6095 48.3902L38.5591 48.3751V48.3247C38.554 48.2491 38.1711 40.6079 36.1801 39.0353C34.0329 37.3367 31.3918 34.4435 33.2718 28.9242C34.5773 25.0835 34.9301 22.0189 34.9301 21.9887V21.9384L36.9059 21.3385L36.8907 21.4545C36.8907 21.4545 36.6538 23.2286 37.6669 24.1107C38.3171 24.6752 39.3404 24.771 40.7064 24.3829C44.9756 23.1782 46.6036 18.6923 46.6187 18.652L46.6389 18.6016H48.1712L48.1611 18.6872C48.1561 18.7427 47.5108 24.2015 50.8022 27.4626C52.0471 28.6975 53.0552 28.9242 53.6903 28.9142H53.7055C53.8618 28.9142 54.008 28.9797 54.1138 29.0957C54.2247 29.2217 54.2701 29.3829 54.2499 29.5492C53.9677 31.4344 53.7508 36.6915 57.8284 44.7309L57.8639 44.8014L57.7932 44.8317C57.6823 44.8771 48.383 48.7985 41.7952 48.7985H41.7851ZM38.7053 48.2592C44.6126 50.0435 56.5988 45.1594 57.6522 44.7208C53.5897 36.6814 53.8114 31.4143 54.0937 29.5191C54.1138 29.3981 54.0735 29.2771 53.9979 29.1864C53.9223 29.1007 53.8062 29.0503 53.6903 29.0553C53.6701 29.0553 53.645 29.0553 53.6248 29.0553C52.9645 29.0553 51.9363 28.7831 50.6963 27.5583C47.5763 24.4686 47.9343 19.4484 48.0048 18.7427H46.7448C46.5532 19.2417 44.8495 23.3647 40.7517 24.519C39.3353 24.9172 38.2618 24.8164 37.5763 24.2166C36.6489 23.4051 36.6992 21.9585 36.7396 21.5401L35.0864 22.0442C35.036 22.4525 34.6479 25.3708 33.4281 28.9646C31.5783 34.3981 34.1741 37.2459 36.286 38.9143C38.2668 40.4768 38.675 47.5233 38.7153 48.2642L38.7053 48.2592Z" fill="#625E8A"/>
<path d="M48.0029 26.8769C48.1037 27.2549 47.4587 27.7539 46.5665 27.9908C45.6744 28.2277 44.8678 28.1117 44.767 27.7337C44.6662 27.3557 45.3114 26.8567 46.2035 26.6198C47.0957 26.3829 47.902 26.4988 48.0029 26.8769Z" fill="#F9F9F9"/>
<path d="M45.6821 28.1847C45.5712 28.1847 45.4602 28.1797 45.3594 28.1645C44.9864 28.1141 44.7547 27.9681 44.6942 27.7513C44.5833 27.3279 45.2334 26.7986 46.181 26.5466C46.6195 26.4307 47.0581 26.3904 47.4059 26.4408C47.7788 26.4912 48.0106 26.6374 48.0711 26.8541C48.182 27.2775 47.5319 27.8067 46.5843 28.0587C46.2718 28.1444 45.9593 28.1847 45.6821 28.1847ZM47.0884 26.5718C46.8212 26.5718 46.5237 26.6121 46.2213 26.6928C45.2989 26.9398 44.7595 27.4186 44.8401 27.716C44.8805 27.8672 45.0772 27.978 45.3796 28.0184C45.7072 28.0637 46.1256 28.0285 46.544 27.9176C47.4664 27.6706 48.0056 27.1917 47.9249 26.8944C47.8846 26.7431 47.6881 26.6323 47.3857 26.592C47.2899 26.5769 47.189 26.5718 47.0832 26.5718H47.0884Z" fill="#625E8A"/>
<path d="M37.0428 38.3785C37.0025 38.3785 36.9723 38.3483 36.9673 38.308C36.9673 38.2676 36.9974 38.2323 37.0377 38.2323C37.0679 38.2323 40.0116 38.1165 41.0247 36.307C41.2767 35.8533 41.4934 35.6265 41.7303 35.561C42.0075 35.4854 42.2747 35.6365 42.6426 35.8532C43.2324 36.196 44.044 36.6698 45.5258 36.6043C46.5541 36.5589 48.7062 35.6113 48.7314 35.6012C48.7667 35.5861 48.8121 35.6013 48.8272 35.6416C48.8423 35.6819 48.8271 35.7222 48.7868 35.7424C48.6961 35.7827 46.5842 36.7101 45.5308 36.7555C44.0035 36.8261 43.1417 36.317 42.5671 35.9843C42.2294 35.7877 41.9825 35.6466 41.7657 35.7071C41.5742 35.7575 41.3826 35.9692 41.1507 36.3825C40.0973 38.2676 37.1637 38.3785 37.0377 38.3835L37.0428 38.3785Z" fill="#625E8A"/>
<path d="M36.4897 9.77764C36.4544 10.0196 36.2328 10.1859 35.9909 10.1506C35.7489 10.1153 35.5825 9.89357 35.6178 9.65163C35.653 9.40969 35.8749 9.24336 36.1169 9.27864C36.3588 9.31393 36.525 9.5357 36.4897 9.77764Z" fill="#625E8A"/>
<path d="M36.0536 10.2312C36.0536 10.2312 36.0032 10.2312 35.978 10.2262C35.8419 10.206 35.7208 10.1354 35.6401 10.0245C35.5595 9.91358 35.5242 9.77749 35.5444 9.6414C35.5847 9.35914 35.842 9.16767 36.1242 9.20799C36.2603 9.22816 36.3812 9.29867 36.4619 9.40956C36.5425 9.52045 36.5778 9.65654 36.5576 9.79263C36.5223 10.0497 36.3004 10.2312 36.0484 10.2312H36.0536ZM36.0536 9.35419C35.8772 9.35419 35.7208 9.48517 35.6906 9.66662C35.6755 9.76239 35.7007 9.85818 35.7612 9.93882C35.8217 10.0144 35.9023 10.0648 36.0031 10.08C36.2048 10.1102 36.3861 9.96903 36.4164 9.77245C36.4315 9.67669 36.4065 9.5809 36.346 9.50025C36.2855 9.42465 36.2048 9.37435 36.104 9.35923C36.0839 9.35923 36.0687 9.35923 36.0536 9.35923V9.35419Z" fill="#625E8A"/>
<path d="M40.6706 10.1675C40.6354 10.4095 40.4137 10.5758 40.1718 10.5405C39.9298 10.5052 39.7634 10.2835 39.7987 10.0415C39.8339 9.79958 40.0558 9.63325 40.2978 9.66854C40.5397 9.70382 40.7059 9.92559 40.6706 10.1675Z" fill="#625E8A"/>
<path d="M40.2379 10.6232C40.2379 10.6232 40.1874 10.6233 40.1673 10.6183C39.885 10.5779 39.6936 10.3158 39.7339 10.0386C39.7742 9.75629 40.0312 9.55979 40.3135 9.60515C40.5957 9.64547 40.7874 9.90752 40.7471 10.1847C40.7118 10.4418 40.4899 10.6232 40.2379 10.6232ZM40.2379 9.74617C40.0615 9.74617 39.9054 9.87728 39.8751 10.0587C39.8449 10.2553 39.986 10.4418 40.1825 10.4721C40.3842 10.5023 40.5655 10.3611 40.5958 10.1646C40.626 9.96799 40.4849 9.78146 40.2884 9.75122C40.2732 9.75122 40.253 9.75122 40.2379 9.75122V9.74617Z" fill="#625E8A"/>
<path d="M50.2217 8.68831C50.2217 8.68831 51.5321 9.5653 51.7892 8.14391C51.9555 7.21144 49.3549 5.25073 49.3347 5.49267L49.9042 8.154L50.2217 8.68831Z" fill="#FDC99D"/>
<path d="M51.0224 9.03777C50.604 9.03777 50.2008 8.7706 50.1807 8.75548C50.1706 8.75044 50.1655 8.74046 50.1605 8.73038L49.843 8.19607C49.843 8.19607 49.838 8.18093 49.8329 8.17589L49.2634 5.51455C49.2634 5.51455 49.2634 5.49941 49.2634 5.49437C49.2634 5.45909 49.2886 5.42889 49.3188 5.41377C49.4549 5.35328 49.9389 5.71116 50.2161 5.9279C50.5135 6.1648 52.0055 7.38957 51.8643 8.16075C51.7887 8.58414 51.6123 8.85638 51.3401 8.97231C51.2393 9.01767 51.1333 9.03273 51.0224 9.03273V9.03777ZM50.2764 8.63956C50.3672 8.69501 50.8915 9.00758 51.2796 8.83621C51.5014 8.74044 51.6475 8.50347 51.713 8.13552C51.7533 7.90367 51.602 7.56599 51.2643 7.15268C50.6544 6.39662 49.7019 5.7011 49.4246 5.57005L49.9742 8.12543L50.2764 8.63452V8.63956Z" fill="#625E8A"/>
<path d="M49.9321 6.4855C50.8142 8.63774 50.9249 9.92304 49.5186 9.89784C48.7021 9.88272 49.5388 8.65291 48.7626 7.29201C47.9864 5.9311 47.3161 4.90285 47.7092 4.50466C48.551 3.63772 49.67 5.84537 49.9321 6.49054V6.4855Z" fill="#FDC99D"/>
<path d="M49.5692 9.96804C49.5692 9.96804 49.539 9.96804 49.5239 9.96804C49.3021 9.96804 49.1661 9.87225 49.1006 9.69584C49.0502 9.54463 49.05 9.34304 49.0551 9.09102C49.0651 8.6273 49.0754 7.98718 48.7024 7.32689C48.6167 7.17063 48.5258 7.02439 48.4452 6.87822C47.7647 5.69877 47.2708 4.84692 47.6589 4.44873C47.8353 4.26727 48.037 4.19675 48.2537 4.24212C49.0047 4.38829 49.7707 5.89543 50.0026 6.45996C50.683 8.11824 50.8294 9.08597 50.4867 9.59001C50.3103 9.84707 50.0027 9.97813 49.5692 9.97813V9.96804ZM48.1378 4.37317C48.0068 4.37317 47.8858 4.42866 47.7699 4.54963C47.4624 4.86718 47.9564 5.71899 48.5764 6.80267C48.6621 6.94884 48.7476 7.09999 48.8333 7.25121C49.2315 7.94678 49.2165 8.60714 49.2064 9.09102C49.2064 9.32288 49.1963 9.51938 49.2416 9.64539C49.2719 9.73107 49.3272 9.81681 49.5288 9.82185C49.544 9.82185 49.5592 9.82185 49.5744 9.82185C49.9625 9.82185 50.2194 9.71593 50.3656 9.4992C50.6731 9.04556 50.5167 8.098 49.8665 6.51029C49.6598 6.00121 48.9088 4.51431 48.2284 4.37822C48.1981 4.37318 48.168 4.36812 48.1378 4.36812V4.37317Z" fill="#625E8A"/>
<path d="M44.8108 54.0181C44.8108 54.0181 41.842 56.7146 40.2644 58.8971L44.8108 54.0181Z" fill="#91B1DA"/>
<path d="M40.3257 58.9439L40.2048 58.8583C41.7674 56.6959 44.7311 53.9942 44.7614 53.969L44.862 54.08C44.8318 54.1052 41.8781 56.7967 40.3257 58.9439Z" fill="#625E8A"/>
<path d="M23.8466 38.922C23.8466 38.922 23.0149 38.0147 22.3345 37.6921L23.8466 38.922Z" fill="#D67C6E"/>
<path d="M23.8463 38.9912C23.8463 38.9912 23.8058 38.9812 23.7907 38.9661C23.7806 38.956 22.9642 38.0688 22.3039 37.7513C22.2687 37.7311 22.2534 37.6908 22.2685 37.6505C22.2836 37.6152 22.3291 37.595 22.3694 37.6152C23.0549 37.9428 23.8664 38.8249 23.9017 38.8652C23.9269 38.8954 23.9269 38.9409 23.9017 38.9711C23.8866 38.9863 23.8714 38.9912 23.8513 38.9912H23.8463Z" fill="#625E8A"/>
<path d="M6.88053 30.8594C6.88053 30.8594 7.26345 32.1346 6.09912 32.0791L6.88053 30.8594Z" fill="#D67C6E"/>
<path d="M6.17378 32.1607C6.17378 32.1607 6.12342 32.1607 6.09822 32.1607C6.0579 32.1607 6.02759 32.1253 6.02759 32.085C6.02759 32.0447 6.06811 32.0044 6.10339 32.0145C6.39573 32.0246 6.6073 31.9539 6.72827 31.7977C6.98029 31.4751 6.81403 30.8955 6.80899 30.8905C6.79891 30.8502 6.81912 30.8098 6.85945 30.7997C6.89977 30.7896 6.93994 30.8098 6.95002 30.8501C6.9601 30.8753 7.14157 31.5105 6.84419 31.8935C6.70306 32.075 6.4762 32.1708 6.17378 32.1708V32.1607Z" fill="#625E8A"/>
<path d="M1.41626 30.5747C1.41626 30.5747 6.15426 31.0536 6.38108 33.0395C6.6079 35.0254 5.16135 33.7502 5.16135 33.7502L1.41626 30.5747Z" fill="#D67C6E"/>
<path d="M5.98228 34.2326C5.59417 34.2326 5.1355 33.8294 5.1103 33.8092C5.08006 33.784 5.07514 33.7336 5.10538 33.7034C5.13058 33.6731 5.18097 33.6681 5.21121 33.6983C5.37754 33.8445 5.85628 34.1924 6.11838 34.0512C6.30487 33.9555 6.37034 33.6076 6.30985 33.0531C6.09312 31.1479 1.45611 30.6591 1.41074 30.654C1.37042 30.654 1.34024 30.6136 1.34528 30.5733C1.34528 30.533 1.38543 30.4978 1.42576 30.5078C1.62233 30.528 6.22419 31.0169 6.45604 33.0381C6.53165 33.6783 6.44103 34.0562 6.18901 34.1872C6.12349 34.2225 6.05788 34.2326 5.98228 34.2326Z" fill="#625E8A"/>
<path d="M0.695801 32.4596C0.695801 32.4596 6.37629 33.2057 6.09403 35.1664C5.81177 37.1321 4.53146 35.5394 4.53146 35.5394L0.695801 32.4546V32.4596Z" fill="#D67C6E"/>
<path d="M5.46387 36.2241C4.99512 36.2241 4.50118 35.6193 4.47598 35.5891C4.45077 35.5588 4.45583 35.5084 4.48607 35.4832C4.51631 35.458 4.56669 35.4631 4.5919 35.4933C4.74311 35.6849 5.21686 36.1587 5.55961 36.0579C5.78643 35.9974 5.94768 35.6849 6.02328 35.1506C6.05857 34.8986 5.98804 34.6466 5.81163 34.4147C4.79851 33.079 0.731093 32.5296 0.69077 32.5246C0.650447 32.5195 0.620018 32.4842 0.625058 32.4388C0.630099 32.3985 0.665588 32.3683 0.710952 32.3734C0.882324 32.3935 4.87928 32.9328 5.93271 34.3189C6.13433 34.586 6.21497 34.8734 6.17464 35.1657C6.08896 35.7706 5.89735 36.1134 5.59997 36.194C5.55461 36.2041 5.50936 36.2141 5.46904 36.2141L5.46387 36.2241Z" fill="#625E8A"/>
<path d="M0.608398 34.7151C0.608398 34.7151 5.69928 34.7453 5.24564 36.9631C5.24564 36.9631 4.87768 37.9308 3.71335 36.9631C2.54902 35.9953 2.29205 36.5095 2.29205 36.5095L0.608398 34.7201V34.7151Z" fill="#D67C6E"/>
<path d="M4.62796 37.4609C4.3457 37.4609 4.02304 37.3097 3.66517 37.0174C2.9948 36.4629 2.65203 36.4276 2.5109 36.4528C2.40002 36.473 2.35979 36.5386 2.35979 36.5436C2.33963 36.5789 2.29417 36.5941 2.25888 36.5739C2.2236 36.5537 2.2087 36.5133 2.22886 36.473C2.2339 36.4579 2.2993 36.3471 2.47571 36.3067C2.77813 36.2412 3.21163 36.4428 3.76608 36.9015C4.16427 37.2341 4.50689 37.3652 4.77907 37.2946C5.06638 37.219 5.18245 36.9317 5.18245 36.9317C5.25302 36.589 5.17731 36.2714 4.95554 35.9992C3.99786 34.8198 0.651122 34.7845 0.61584 34.7845C0.575517 34.7845 0.540283 34.7492 0.540283 34.7089C0.540283 34.6685 0.575517 34.6333 0.61584 34.6333C0.75697 34.6333 4.06842 34.6686 5.07146 35.9035C5.32347 36.2109 5.40412 36.5687 5.32347 36.9669C5.31339 36.9921 5.1773 37.34 4.81944 37.4307C4.75895 37.4459 4.69841 37.456 4.63288 37.456L4.62796 37.4609Z" fill="#625E8A"/>
<path d="M7.32399 32.2793C7.32399 32.2793 6.73935 34.0333 7.9944 36.0394L7.32399 32.2793Z" fill="#D67C6E"/>
<path d="M7.99021 36.1084C7.99021 36.1084 7.93962 36.0984 7.9245 36.0732C6.66945 34.0621 7.24413 32.2677 7.24917 32.2526C7.26429 32.2122 7.30458 32.192 7.34491 32.2072C7.38523 32.2223 7.40556 32.2626 7.39044 32.3029C7.3854 32.318 6.83074 34.0469 8.05051 35.9975C8.07067 36.0328 8.06069 36.0782 8.02541 36.0983C8.01533 36.1084 8.00017 36.1084 7.98504 36.1084H7.99021Z" fill="#625E8A"/>
<path d="M93.7395 64.742C93.2052 66.8488 92.0662 65.997 90.9825 66.7026C89.9039 67.4083 89.304 69.5656 87.9381 68.2803C86.5722 66.99 87.7615 66.2994 85.0246 64.122C82.2877 61.9446 85.942 62.126 86.1688 61.3548C86.3956 60.5837 88.1849 58.5372 90.3271 58.0382C92.4693 57.5392 93.7345 64.7369 93.7345 64.7369L93.7395 64.742Z" fill="#E4DCE9"/>
<path d="M88.7546 68.7538C88.4774 68.7538 88.1951 68.6127 87.8927 68.3305C87.3231 67.7911 87.1819 67.3526 87.0357 66.8838C86.8291 66.2134 86.5872 65.4573 84.9844 64.1771C84.2283 63.5722 83.8905 63.0934 83.951 62.7104C84.0266 62.2517 84.6264 62.04 85.201 61.8333C85.6143 61.6872 86.0378 61.536 86.0983 61.3243C86.315 60.5833 88.0591 58.4815 90.3071 57.9573C90.5944 57.8868 90.8816 57.9472 91.1589 58.1337C92.8222 59.2325 93.7647 64.4946 93.8051 64.7164C93.8051 64.7265 93.8051 64.7366 93.8051 64.7467C93.4422 66.1882 92.7818 66.2941 92.0862 66.405C91.7384 66.4604 91.3756 66.5209 91.0228 66.7528C90.6901 66.9695 90.3976 67.3375 90.1153 67.6954C89.702 68.2145 89.3139 68.7084 88.8048 68.7437C88.7846 68.7437 88.7647 68.7437 88.7445 68.7437L88.7546 68.7538ZM90.549 58.0884C90.4835 58.0884 90.4179 58.0985 90.3523 58.1136C88.2505 58.6025 86.4712 60.6187 86.2494 61.3747C86.1688 61.657 85.7455 61.8082 85.2566 61.9795C84.7425 62.161 84.1628 62.3676 84.1023 62.7406C84.0469 63.0632 84.3795 63.5067 85.0801 64.0662C86.7233 65.3717 86.9652 66.1529 87.1819 66.8434C87.3281 67.3122 87.4542 67.7154 87.9985 68.2296C88.2909 68.5017 88.5528 68.6277 88.8048 68.6126C89.2483 68.5824 89.6164 68.1136 90.0095 67.6197C90.2968 67.2568 90.5993 66.8788 90.9521 66.6469C91.3302 66.3999 91.7082 66.3344 92.0761 66.279C92.7515 66.1681 93.3311 66.0774 93.6739 64.7467C93.6134 64.4241 92.6607 59.3131 91.0931 58.2748C90.9117 58.1538 90.7354 58.0985 90.5539 58.0985L90.549 58.0884Z" fill="#625E8A"/>
<path d="M97.8821 68.255C94.6764 67.5191 94.0314 66.7429 92.479 67.7762C90.9265 68.8094 89.5202 67.2771 91.0121 65.1249C92.5041 62.9727 92.1514 61.5362 90.2915 60.0845C88.4316 58.6329 87.3024 58.7842 89.374 57.2368C91.4456 55.6843 91.7532 55.2558 92.2976 53.8848C92.731 52.786 94.7218 51.4252 96.748 53.7841C98.7743 56.148 99.117 57.6349 101.557 60.2055C103.996 62.7761 106.315 64.6612 106.995 68.6784C107.676 72.6956 107.57 72.9023 105.917 73.1089C104.258 73.3156 103.185 72.0503 101.466 70.1047C99.7472 68.1592 98.8651 68.4868 97.8873 68.26L97.8821 68.255Z" fill="#F9F9F9"/>
<path d="M105.562 73.1987C104.09 73.1987 103.042 72.0041 101.504 70.2652L101.399 70.1442C100.043 68.6069 99.2311 68.5112 98.4448 68.4154C98.2533 68.3902 98.0567 68.3701 97.8551 68.3247C96.9529 68.1181 96.2522 67.9063 95.6827 67.7349C94.2109 67.2914 93.5961 67.1099 92.5073 67.8357C91.8269 68.2893 91.1011 68.2893 90.6576 67.8357C90.214 67.3871 90.0225 66.3942 90.9398 65.0736C92.3411 63.0474 92.1393 61.621 90.234 60.1341C89.8056 59.7964 89.4074 59.5444 89.0898 59.3427C88.5455 58.995 88.1876 58.7681 88.1775 58.4506C88.1674 58.1431 88.475 57.7953 89.3167 57.1653C91.3732 55.6279 91.6807 55.1944 92.215 53.8436C92.4418 53.269 93.107 52.5786 94.0244 52.4274C94.6847 52.3114 95.7029 52.4525 96.7917 53.7226C97.6989 54.7761 98.2734 55.6733 98.8329 56.5352C99.5285 57.6088 100.244 58.7178 101.595 60.1392C101.908 60.4668 102.215 60.7843 102.517 61.0917C104.629 63.2541 106.454 65.119 107.049 68.6473C107.467 71.117 107.598 72.1705 107.22 72.6796C106.973 73.0072 106.52 73.0878 105.905 73.1634C105.784 73.1785 105.668 73.1836 105.552 73.1836L105.562 73.1987ZM97.8955 68.1785C98.087 68.2239 98.2736 68.244 98.4701 68.2692C99.2464 68.36 100.123 68.4658 101.515 70.0485L101.62 70.1695C103.243 72.0092 104.317 73.2289 105.9 73.0324C106.479 72.9618 106.908 72.8863 107.114 72.604C107.457 72.1453 107.316 71.0566 106.913 68.6876C106.323 65.2047 104.513 63.3549 102.417 61.2127C102.114 60.9002 101.802 60.5827 101.489 60.2551C100.128 58.8236 99.4075 57.7045 98.7069 56.6259C98.1525 55.764 97.5729 54.877 96.6757 53.8286C95.6273 52.6088 94.6645 52.4777 94.0446 52.5835C93.1826 52.7297 92.5628 53.3699 92.3511 53.9092C91.8067 55.2903 91.4892 55.7288 89.4076 57.2913C88.6313 57.8709 88.3188 58.2086 88.3288 58.4506C88.3389 58.6875 88.6717 58.9042 89.1757 59.2218C89.4983 59.4234 89.8963 59.6804 90.3297 60.0181C92.3156 61.5655 92.5274 63.0525 91.0708 65.1594C90.2089 66.4043 90.3702 67.3216 90.7735 67.7299C91.1616 68.1281 91.8167 68.118 92.4367 67.7046C93.5859 66.9385 94.2563 67.1452 95.7331 67.5887C96.2977 67.7601 96.9983 67.9668 97.8955 68.1735V68.1785Z" fill="#625E8A"/>
<path d="M86.1765 61.3562C86.1765 61.3562 90.995 62.2584 89.8357 63.5941C89.0494 64.5014 88.8025 63.0044 87.2198 62.3845L86.1765 61.3562Z" fill="#E4DCE9"/>
<path d="M89.3715 63.9521C89.1195 63.9521 88.8927 63.7303 88.6155 63.4581C88.2778 63.1255 87.8595 62.7122 87.1942 62.4551C87.1539 62.44 87.1387 62.3997 87.1538 62.3594C87.1689 62.3191 87.2092 62.2989 87.2495 62.319C87.9401 62.5912 88.3937 63.0348 88.7213 63.3574C88.9834 63.6144 89.1953 63.821 89.3868 63.8109C89.5078 63.8059 89.6388 63.7202 89.785 63.5539C89.9362 63.3825 89.9816 63.2162 89.9211 63.0498C89.5884 62.0922 86.2012 61.447 86.1659 61.442C86.1256 61.4319 86.1003 61.3967 86.1054 61.3563C86.1104 61.316 86.1457 61.2908 86.191 61.2958C86.3322 61.321 89.6943 61.9662 90.0572 63.0046C90.1328 63.2213 90.0773 63.4431 89.8908 63.6548C89.7144 63.8614 89.5531 63.9571 89.3868 63.9672H89.3715V63.9521Z" fill="#625E8A"/>
<path d="M89.9493 67.7997C89.9493 67.7997 89.7932 66.3631 88.2861 65.5819C86.779 64.8006 87.5753 63.1827 88.3415 64.2462C89.1076 65.3097 89.5058 65.7987 89.5058 65.7987L89.9545 67.8048L89.9493 67.7997Z" fill="#E4DCE9"/>
<path d="M89.9504 67.8739C89.9151 67.8739 89.8799 67.8438 89.8748 67.8085C89.8748 67.7934 89.7036 66.4022 88.252 65.6461C87.5312 65.2731 87.3194 64.7187 87.3647 64.3305C87.395 64.0735 87.531 63.882 87.7226 63.8315C87.8486 63.7963 88.1108 63.8013 88.3982 64.1995C89.1542 65.2479 89.5523 65.7419 89.5573 65.7469C89.5825 65.7772 89.5775 65.8275 89.5472 65.8527C89.517 65.8779 89.4666 65.8729 89.4414 65.8427C89.4414 65.8427 89.0331 65.3387 88.2771 64.2903C88.1057 64.0534 87.9193 63.9374 87.758 63.9777C87.627 64.013 87.5312 64.1541 87.506 64.3457C87.4657 64.6884 87.662 65.1723 88.3123 65.5151C89.8345 66.3064 90.0111 67.7782 90.0161 67.7933C90.0161 67.8337 89.9907 67.8689 89.9504 67.8739C89.9504 67.8739 89.9453 67.8739 89.9403 67.8739H89.9504Z" fill="#625E8A"/>
<path d="M92.1094 58.384C91.4844 58.3084 90.9049 58.6462 90.6428 59.1804C90.2396 59.0796 89.8261 59.251 89.6094 59.5938C89.8211 59.7349 90.0481 59.8962 90.285 60.0827C90.7386 60.4355 91.1013 60.7883 91.3735 61.1512C91.4945 61.2066 91.6257 61.242 91.7668 61.2622C92.4372 61.3428 93.052 60.9497 93.2838 60.3499C93.3998 60.6472 93.6619 60.874 93.9946 60.9143C94.4835 60.9748 94.9269 60.6271 94.9874 60.1382C95.0076 59.9668 94.9674 59.8105 94.8969 59.6643C95.5975 59.5433 96.167 58.9839 96.2527 58.243C96.3636 57.3408 95.7184 56.5191 94.8161 56.4082C94.3625 56.3528 93.9291 56.4889 93.5964 56.751C93.5006 56.6249 93.3797 56.5141 93.2184 56.4536C92.7849 56.3024 92.311 56.5293 92.1598 56.9627C92.0086 57.3962 92.2356 57.8699 92.669 58.0211C92.7698 58.0564 92.8756 58.0665 92.9764 58.0665C92.9815 58.5605 93.2083 59.0141 93.5762 59.3166C93.4905 59.3821 93.4149 59.4627 93.3545 59.5534C93.2385 58.9486 92.7546 58.4546 92.1094 58.379V58.384Z" fill="#625E8A"/>
<path d="M98.9904 58.962C98.8795 59.8642 99.5245 60.6857 100.427 60.7966C100.916 60.8571 101.374 60.6909 101.717 60.3884C101.657 60.3279 101.601 60.2674 101.541 60.2069C100.699 59.3249 100.114 58.5688 99.6153 57.8582C99.2776 58.1203 99.0407 58.5083 98.9853 58.962H98.9904Z" fill="#625E8A"/>
<path d="M89.3529 58.9568C89.4134 58.4477 89.0958 57.984 88.617 57.8479C87.9063 58.5384 88.3144 58.7652 89.2217 59.3499C89.2872 59.234 89.3327 59.1029 89.3529 58.9618V58.9568Z" fill="#625E8A"/>
<path d="M106.999 70.6462C107.034 70.369 106.979 70.1018 106.858 69.8699C106.964 69.8296 107.06 69.7642 107.15 69.6886C107.1 69.3761 107.044 69.0434 106.984 68.6704C106.934 68.3781 106.873 68.1007 106.807 67.8286C106.243 67.637 105.623 67.9345 105.427 68.499C105.346 68.7308 105.351 68.9678 105.416 69.1845C104.988 69.2702 104.63 69.5626 104.459 69.9658C104.272 69.4063 103.788 68.9778 103.163 68.9022C102.362 68.8065 101.641 69.3356 101.46 70.1018C102.12 70.8478 102.685 71.498 103.224 71.997C103.783 71.9062 104.257 71.5181 104.449 70.9788C104.625 71.4123 105.018 71.745 105.517 71.8055C106.248 71.8912 106.908 71.372 106.994 70.6462H106.999Z" fill="#625E8A"/>
<path d="M91.9739 55.0922C92.1604 55.6517 92.6444 56.08 93.2694 56.1556C94.1263 56.2615 94.9074 55.6466 95.0082 54.7897C95.114 53.9329 94.4991 53.1516 93.6423 53.0508C93.3045 53.0105 92.987 53.086 92.7097 53.2322C92.5182 53.4389 92.3672 53.6657 92.2815 53.8774C91.9388 54.7443 91.6867 55.2332 91.0315 55.8683C91.4498 55.7776 91.8026 55.4904 91.9689 55.0922H91.9739Z" fill="#625E8A"/>
<path d="M103.425 64.601C103.309 64.3036 103.052 64.0768 102.714 64.0365C102.225 63.976 101.782 64.3237 101.721 64.8126C101.701 64.984 101.746 65.1404 101.812 65.2865C101.318 65.3722 100.895 65.6796 100.653 66.108C100.612 66.098 100.572 66.0879 100.531 66.0828C99.9418 66.0123 99.4077 66.4307 99.3371 67.0204C99.2665 67.6101 99.6848 68.1443 100.275 68.2149C100.516 68.2451 100.748 68.1848 100.945 68.0739C101.197 68.3208 101.52 68.4922 101.898 68.5375C102.351 68.593 102.785 68.4569 103.117 68.1948C103.213 68.3208 103.334 68.4317 103.495 68.4921C103.929 68.6433 104.402 68.4165 104.554 67.9831C104.705 67.5496 104.478 67.0759 104.045 66.9246C103.944 66.8894 103.838 66.8792 103.737 66.8792C103.732 66.3853 103.506 65.9317 103.138 65.6292C103.223 65.5637 103.299 65.4831 103.359 65.3924C103.475 65.9972 103.959 66.4912 104.604 66.5668C105.229 66.6424 105.809 66.3047 106.071 65.7704C106.071 65.7704 106.076 65.7704 106.081 65.7704C105.713 65.0042 105.27 64.3237 104.771 63.6836C104.176 63.6836 103.647 64.0566 103.435 64.601H103.425Z" fill="#625E8A"/>
<path d="M95.0854 66.1501C95.0854 66.1501 95.0601 66.1501 95.05 66.1501C94.9895 65.6763 94.6216 65.2831 94.1226 65.2226C93.7144 65.1722 93.3362 65.3638 93.1195 65.6814C93.0036 65.5906 92.8674 65.52 92.7112 65.4999C92.2374 65.4444 91.8041 65.7821 91.7486 66.2559C91.6932 66.7297 92.0309 67.1631 92.5047 67.2186C92.7718 67.2488 93.0138 67.148 93.1953 66.9767C93.2608 67.0523 93.3363 67.1179 93.422 67.1733C93.4018 67.2287 93.3967 67.2841 93.3816 67.3395C94.1981 67.1278 94.9542 67.4505 96.4563 67.8789C96.552 67.022 95.9423 66.2509 95.0854 66.145V66.1501Z" fill="#625E8A"/>
<path d="M97.0516 55.9234C97.0264 56.1301 97.0468 56.3266 97.0972 56.5131C96.825 56.6391 96.6182 56.8811 96.5779 57.1987C96.5174 57.6876 96.8652 58.1311 97.3541 58.1916C97.7825 58.242 98.1555 57.9749 98.2916 57.5817C98.3168 57.5817 98.3422 57.5969 98.3674 57.5969C98.7051 57.6372 99.0276 57.5565 99.3048 57.4002C98.7504 56.5686 98.2765 55.7823 97.6263 54.9053C97.3189 55.1422 97.0971 55.5 97.0467 55.9184L97.0516 55.9234Z" fill="#625E8A"/>
<path d="M103.572 72.3013C103.688 72.3968 103.803 72.4873 103.919 72.5678C103.833 72.4471 103.713 72.3516 103.572 72.3013Z" fill="#625E8A"/>
<path d="M107.343 72.2048C107.273 72.2956 107.207 72.3963 107.157 72.5072C107.121 72.5878 107.096 72.6735 107.071 72.7542C107.212 72.6281 107.298 72.4569 107.343 72.2048Z" fill="#625E8A"/>
<path d="M98.4816 66.4519C98.532 66.0336 98.2347 65.6556 97.8163 65.6052C97.398 65.5548 97.0198 65.8522 96.9694 66.2705C96.919 66.6889 97.2163 67.0669 97.6347 67.1173C98.053 67.1677 98.4311 66.8703 98.4816 66.4519Z" fill="#625E8A"/>
<path d="M99.0353 61.0192C98.2238 60.9234 97.4877 61.498 97.392 62.3095C97.3819 62.4002 97.382 62.496 97.387 62.5867C97.1905 62.7379 97.0493 62.9647 97.0191 63.2319C96.9536 63.7561 97.3317 64.2349 97.8559 64.3004C97.9012 64.3054 97.9466 64.3004 97.992 64.3004C98.1583 64.7036 98.5263 65.0111 98.99 65.0665C99.6755 65.1472 100.295 64.6633 100.376 63.9779C100.411 63.6704 100.331 63.3831 100.174 63.1462C100.25 63.0001 100.3 62.8387 100.326 62.6673C100.421 61.8558 99.8468 61.1199 99.0353 61.0241V61.0192Z" fill="#625E8A"/>
<path d="M96.5396 60.1993C96.2574 60.164 96.0005 60.3656 95.9652 60.6479C95.9299 60.9301 96.1313 61.1873 96.4136 61.2225C96.6959 61.2578 96.953 61.0561 96.9883 60.7739C97.0236 60.4916 96.8219 60.2346 96.5396 60.1993Z" fill="#625E8A"/>
<path d="M93.2957 52.7783C93.3713 52.7581 93.4469 52.7178 93.5074 52.6724C93.4318 52.7026 93.3612 52.7379 93.2957 52.7783Z" fill="#625E8A"/>
<path d="M91.2876 65.1873C91.8269 65.2528 92.316 64.89 92.4269 64.3708C92.6789 64.6077 92.9964 64.769 93.3643 64.8143C93.9944 64.8899 94.579 64.5977 94.9217 64.1138C95.083 64.2902 95.3048 64.4162 95.5619 64.4464C96.1314 64.517 96.6506 64.1088 96.7161 63.5392C96.7867 62.9697 96.3785 62.4505 95.8089 62.385C95.5519 62.3547 95.3099 62.4252 95.1083 62.5563C94.8915 62.0018 94.3926 61.5785 93.7625 61.5029C92.8754 61.397 92.074 62.0069 91.9228 62.884C91.9228 62.9495 91.9127 63.0149 91.9027 63.0805C91.9027 63.1309 91.8976 63.1864 91.9027 63.2368C91.8976 63.2368 91.8875 63.2317 91.8825 63.2267C91.7766 63.7962 91.4893 64.4162 91.0105 65.1118C91.0962 65.147 91.1868 65.1772 91.2876 65.1873Z" fill="#625E8A"/>
<path d="M68.7927 72.3286C68.7927 72.3286 69.7304 74.7883 69.7304 76.5524L68.7927 72.3286Z" fill="#91B1DA"/>
<path d="M69.7999 76.5525H69.6537C69.6537 74.8287 68.7315 72.3842 68.7214 72.359L68.8625 72.3035C68.8625 72.3035 69.8051 74.7984 69.8051 76.5525H69.7999Z" fill="#625E8A"/>
<path d="M52.6189 26.3776C53.8991 31.4936 61.8579 36.1257 61.8579 36.1257C57.7752 39.4322 56.1773 49.2156 52.1399 48.0412C48.1026 46.8618 45.3507 49.6188 44.5845 50.0674C43.1279 50.9192 45.517 52.0382 46.7267 51.0301C47.5432 50.3497 47.9162 50.8588 47.3063 51.9475C46.8073 52.8397 45.4313 53.4948 44.6601 54.1097C42.271 56.0301 45.2449 56.1259 45.2449 56.1259C44.3981 57.6431 46.4646 57.618 46.4646 57.618C46.4646 57.618 46.157 58.5806 46.7215 58.9587C47.4826 59.4778 48.2538 58.9132 48.2538 58.9132C49.398 61.0302 52.9365 58.0313 56.0817 53.3387C59.2319 48.6461 69.1412 40.7376 69.5142 36.7305C69.8872 32.7234 62.3015 26.8867 59.4084 22.4965C58.0676 20.4602 55.9608 17.9401 50.6079 18.3836L52.6139 26.3727L52.6189 26.3776Z" fill="#D67C6E"/>
<path d="M49.3524 59.6786C49.3524 59.6786 49.307 59.6786 49.2818 59.6786C48.8332 59.6584 48.4804 59.4366 48.2284 59.0182C48.0117 59.1442 47.3362 59.4668 46.6759 59.0182C46.1769 58.6805 46.3029 57.9497 46.3634 57.6876C46.0912 57.6775 45.3352 57.6019 45.058 57.1432C44.9068 56.8912 44.927 56.5737 45.1185 56.1906C44.7859 56.1654 43.8484 56.0444 43.6771 55.5253C43.546 55.1372 43.8534 54.6584 44.6044 54.0535C44.8464 53.862 45.1388 53.6705 45.4513 53.4638C46.1267 53.0203 46.8978 52.5162 47.2304 51.9114C47.5581 51.3216 47.5733 50.9385 47.4473 50.8327C47.3565 50.7571 47.1245 50.7823 46.7616 51.0847C46.1315 51.6089 45.2244 51.5737 44.6448 51.3217C44.2768 51.1604 44.055 50.9235 44.0398 50.6664C44.0298 50.495 44.1054 50.243 44.5338 49.996C44.6447 49.9305 44.7958 49.8196 44.9874 49.6735C46.0862 48.8569 48.6669 46.9415 52.1448 47.9597C54.4281 48.625 55.9653 45.5908 57.5883 42.375C58.7879 39.996 60.0329 37.5362 61.7164 36.1299C61.303 35.8779 59.5289 34.7841 57.6589 33.2216C55.6882 31.5734 53.2033 29.0532 52.5329 26.3919C52.5228 26.3515 52.548 26.3113 52.5883 26.3012C52.6286 26.2911 52.669 26.3163 52.6791 26.3567C53.3344 28.9777 55.799 31.4776 57.7547 33.1107C59.8767 34.8849 61.8626 36.0493 61.8827 36.0644C61.9029 36.0745 61.9182 36.0997 61.9182 36.1249C61.9182 36.1501 61.9079 36.1753 61.8928 36.1905C60.1942 37.5665 58.9391 40.0514 57.7244 42.4556C56.0712 45.7268 54.5139 48.8216 52.1096 48.1159C48.6973 47.123 46.2526 48.9325 45.0782 49.8045C44.8816 49.9507 44.7253 50.0666 44.6093 50.1321C44.322 50.2984 44.1811 50.485 44.1912 50.6664C44.2013 50.863 44.3976 51.0596 44.7051 51.1906C45.2444 51.4225 46.0862 51.4577 46.6659 50.9738C47.0388 50.6613 47.3615 50.5706 47.543 50.7218C47.7648 50.9083 47.6991 51.3821 47.3614 51.9869C47.0085 52.622 46.2223 53.1362 45.5318 53.5899C45.2243 53.7915 44.932 53.983 44.7002 54.1694C44.0197 54.7138 43.7173 55.1675 43.8181 55.48C43.9945 56.0042 45.2293 56.0495 45.2394 56.0495C45.2646 56.0495 45.2898 56.0647 45.2999 56.0899C45.31 56.11 45.3151 56.1402 45.2999 56.1604C45.0882 56.5384 45.053 56.8409 45.184 57.0677C45.4612 57.5364 46.3937 57.5414 46.4542 57.5414C46.4542 57.5414 46.4996 57.5515 46.5147 57.5717C46.5299 57.5919 46.5349 57.617 46.5248 57.6372C46.5248 57.6473 46.2424 58.5495 46.7515 58.8973C47.4572 59.3761 48.1731 58.8772 48.2033 58.852C48.2184 58.8369 48.2435 58.8368 48.2636 58.8419C48.2838 58.8419 48.304 58.8621 48.3141 58.8772C48.5358 59.2905 48.8634 59.5072 49.2818 59.5273C49.3019 59.5273 49.3273 59.5273 49.3475 59.5273C50.8646 59.5273 53.4655 57.0979 56.0159 53.2975C57.2407 51.4729 59.4483 49.1996 61.787 46.7903C65.4362 43.0352 69.2064 39.1491 69.4332 36.7246C69.6751 34.149 66.5602 30.7871 63.5511 27.536C61.9029 25.7568 60.3506 24.0784 59.3374 22.5411C57.78 20.1721 55.6429 18.0349 50.6076 18.4634C50.5673 18.4634 50.5319 18.4382 50.5269 18.3929C50.5269 18.3525 50.552 18.3172 50.5923 18.3121C55.7234 17.8887 57.9512 20.1671 59.4583 22.4554C60.4664 23.9827 62.0138 25.661 63.657 27.4302C66.6913 30.7065 69.8264 34.0936 69.5794 36.7347C69.3475 39.2146 65.5572 43.1159 61.8928 46.8912C59.5591 49.2954 57.3565 51.5635 56.1367 53.3781C53.5611 57.2188 50.9048 59.6735 49.3423 59.6735L49.3524 59.6786Z" fill="#625E8A"/>
<path d="M61.8582 36.1309C61.8582 36.1309 63.2241 35.259 65.5023 35.0271L61.8582 36.1309Z" fill="#D67C6E"/>
<path d="M61.8574 36.2056C61.8574 36.2056 61.8069 36.1956 61.7969 36.1704C61.7767 36.1351 61.7869 36.0898 61.8222 36.0696C61.8373 36.0595 63.2334 35.1875 65.5016 34.9556C65.5469 34.9455 65.5773 34.9809 65.5823 35.0212C65.5823 35.0615 65.5569 35.0967 65.5166 35.1018C63.2837 35.3286 61.9178 36.1856 61.9027 36.1956C61.8926 36.2057 61.8774 36.2056 61.8623 36.2056H61.8574Z" fill="#625E8A"/>
<path d="M45.2507 56.1411C45.2507 56.1411 47.7409 55.5564 49.7167 52.0029L45.2507 56.1411Z" fill="#D67C6E"/>
<path d="M45.2491 56.2141C45.2138 56.2141 45.1838 56.1889 45.1787 56.1586C45.1687 56.1183 45.1938 56.078 45.2341 56.0679C45.2593 56.0629 47.7189 55.4479 49.6494 51.965C49.6695 51.9297 49.715 51.9147 49.7503 51.9348C49.7856 51.955 49.8007 52.0003 49.7805 52.0356C48.7523 53.8854 47.5828 54.9238 46.7814 55.4631C45.9094 56.0528 45.2896 56.204 45.2644 56.2091C45.2593 56.2091 45.2542 56.2091 45.2491 56.2091V56.2141Z" fill="#625E8A"/>
<path d="M51.1387 53.5039C51.1387 53.5039 50.2212 56.7701 46.4712 57.6169L51.1387 53.5039Z" fill="#D67C6E"/>
<path d="M46.4696 57.6922C46.4343 57.6922 46.4042 57.6669 46.3992 57.6367C46.3891 57.5963 46.4143 57.5561 46.4546 57.546C50.1189 56.7194 51.0564 53.5187 51.0665 53.4885C51.0766 53.4481 51.117 53.428 51.1573 53.4381C51.1976 53.4482 51.2178 53.4885 51.2077 53.5288C51.1977 53.5641 50.2349 56.8454 46.4848 57.6922C46.4798 57.6922 46.4746 57.6922 46.4696 57.6922Z" fill="#625E8A"/>
<path d="M48.2571 58.9109C48.2571 58.9109 51.5333 57.686 52.4255 54.9995L48.2571 58.9109Z" fill="#D67C6E"/>
<path d="M48.258 58.9844C48.2278 58.9844 48.1975 58.9642 48.1874 58.934C48.1723 58.8936 48.1924 58.8533 48.2327 58.8382C48.2629 58.8281 51.4838 57.5933 52.3558 54.9723C52.3709 54.932 52.4112 54.9118 52.4515 54.9269C52.4919 54.942 52.5122 54.9823 52.4971 55.0226C52.0283 56.4289 50.9092 57.4319 50.0473 58.0216C49.1198 58.6618 48.2882 58.9743 48.2831 58.9794C48.2731 58.9794 48.2681 58.9794 48.258 58.9794V58.9844Z" fill="#625E8A"/>
<path d="M55.6907 31.5789C55.6907 31.5789 61.7894 29.4015 62.48 25.969L65.8219 29.6283C65.8219 29.6283 63.3318 33.9982 59.2037 34.5627L55.6855 31.5789H55.6907Z" fill="#6D6E71"/>
<path d="M59.2086 34.6406C59.2086 34.6406 59.1732 34.6356 59.1581 34.6255L55.6399 31.6416C55.6399 31.6416 55.6098 31.5962 55.6148 31.571C55.6148 31.5458 55.6398 31.5257 55.665 31.5156C55.7255 31.4955 61.7338 29.313 62.4092 25.9611C62.4143 25.9359 62.4344 25.9107 62.4646 25.9056C62.4898 25.9006 62.52 25.9056 62.5402 25.9258L65.8819 29.5851C65.8819 29.5851 65.9071 29.6456 65.892 29.6708C65.8668 29.7161 63.3366 34.0812 59.2186 34.6406C59.2186 34.6406 59.2136 34.6406 59.2086 34.6406ZM55.8366 31.6114L59.2337 34.4894C63.0291 33.9551 65.4537 30.1094 65.7359 29.6457L62.5252 26.1324C62.0967 27.8663 60.3123 29.2626 58.8657 30.1346C57.525 30.9461 56.2297 31.4652 55.8366 31.6114Z" fill="#625E8A"/>
<path d="M45.5029 12.4208C45.271 12.0226 44.893 11.9974 44.5251 12.2746C43.9656 12.698 44.1773 13.2928 43.895 13.5498L43.1793 14.0942C43.0634 14.1799 43.0432 14.3462 43.1289 14.4571C43.1793 14.5227 43.26 14.5579 43.3356 14.5579C43.391 14.5579 43.4465 14.5429 43.4919 14.5076L44.2984 13.8927C44.6966 13.6155 45.0341 13.9228 45.4071 13.4087C45.6239 13.1113 45.6744 12.7232 45.4979 12.4208H45.5029Z" fill="#F4E8DE"/>
<path d="M43.3359 14.639C43.23 14.639 43.1341 14.5886 43.0686 14.508C42.9577 14.3618 42.9881 14.15 43.1343 14.0391L43.85 13.4949C43.9458 13.4092 43.976 13.2579 44.0063 13.0866C44.0617 12.8194 44.1271 12.4868 44.4749 12.2196C44.6916 12.0583 44.9135 11.9927 45.1101 12.0331C45.2916 12.0684 45.4478 12.1943 45.5637 12.3909C45.7502 12.7085 45.7099 13.1319 45.4679 13.4595C45.2311 13.7872 44.9991 13.8073 44.7774 13.8325C44.6312 13.8476 44.49 13.8577 44.3388 13.9636L43.5325 14.5734C43.472 14.6188 43.4013 14.639 43.3307 14.639H43.3359ZM44.9991 12.1692C44.863 12.1692 44.717 12.2247 44.5709 12.3406C44.2634 12.5724 44.2078 12.8598 44.1574 13.1168C44.1171 13.3084 44.0817 13.4898 43.9507 13.6108L43.2301 14.1601C43.1494 14.2206 43.1341 14.3365 43.1946 14.4222C43.2551 14.5029 43.3761 14.518 43.4567 14.4575L44.2632 13.8426C44.4447 13.7166 44.6212 13.6964 44.7724 13.6813C44.9791 13.6611 45.1604 13.6461 45.357 13.3739C45.5636 13.0916 45.5991 12.7337 45.4428 12.4666C45.3471 12.3053 45.2311 12.2095 45.0899 12.1793C45.0597 12.1742 45.0345 12.1692 45.0043 12.1692H44.9991Z" fill="#625E8A"/>
<path d="M45.1662 12.5395C45.0201 12.4085 44.8233 12.4539 44.7124 12.5799L45.1662 12.5395Z" fill="#F4E8DE"/>
<path d="M44.7138 12.6496C44.7138 12.6496 44.6787 12.6447 44.6636 12.6295C44.6334 12.6043 44.6282 12.5538 44.6584 12.5236C44.7945 12.3774 45.0414 12.317 45.2179 12.4783C45.2481 12.5035 45.2533 12.5539 45.223 12.5841C45.1978 12.6144 45.1474 12.6194 45.1172 12.5892C45.0063 12.4934 44.85 12.5287 44.7643 12.6245C44.7492 12.6396 44.7291 12.6496 44.7089 12.6496H44.7138Z" fill="#625E8A"/>
</svg>
